<svg xmlns="http://www.w3.org/2000/svg" xmlns:xlink="http://www.w3.org/1999/xlink" width="1024" zoomAndPan="magnify" viewBox="0 0 768 767.999994" height="1024" preserveAspectRatio="xMidYMid meet" version="1.0"><defs><g/></defs><path stroke-linecap="butt" transform="matrix(12.689135, 0, 0, 12.689135, 44.425628, -202.366844)" fill="none" stroke-linejoin="miter" d="M 14.054543 60.546973 C 10.463565 60.546973 7.6425 59.152448 5.591656 56.363399 C 3.54112 53.574349 2.515698 49.7097 2.515698 44.769449 C 2.515698 39.756549 3.559282 35.850956 5.646452 33.052671 C 7.733621 30.254694 10.609482 28.855552 14.273419 28.855552 C 18.119906 28.855552 21.054565 30.350126 23.078011 33.339888 L 23.351682 33.339888 C 22.932401 31.061241 22.722761 29.028559 22.722761 27.242152 L 22.722761 17.453081 L 31.089909 17.453081 L 31.089909 59.999937 L 24.691411 59.999937 L 23.078011 56.035239 L 22.722761 56.035239 C 20.826761 59.042856 17.937356 60.546973 14.054543 60.546973 Z M 16.980582 53.902201 C 19.113312 53.902201 20.676535 53.282515 21.669941 52.042835 C 22.663347 50.803462 23.205765 48.697823 23.296886 45.726531 L 23.296886 44.824245 C 23.296886 41.542956 22.791102 39.191351 21.779225 37.769428 C 20.767656 36.347505 19.122548 35.636698 16.8439 35.636698 C 14.984226 35.636698 13.539831 36.425082 12.509791 38.001849 C 11.479752 39.578924 10.964732 41.871116 10.964732 44.879041 C 10.964732 47.886659 11.484369 50.142525 12.523337 51.646334 C 13.562611 53.150451 15.048257 53.902201 16.980582 53.902201 Z M 37.351418 73.453253 C 35.218687 73.453253 33.386719 73.225142 31.855513 72.769535 L 31.855513 66.206958 C 33.131518 66.55328 34.434921 66.726595 35.765723 66.726595 C 37.169175 66.726595 38.194597 66.334712 38.841681 65.550638 C 39.489073 64.766872 39.812615 63.609386 39.812615 62.078179 L 39.812615 29.429678 L 48.152365 29.429678 L 48.152365 63.308624 C 48.152365 66.55328 47.213447 69.055421 45.335918 70.81443 C 43.458389 72.57344 40.796786 73.453253 37.351418 73.453253 Z M 39.457057 21.527371 C 39.457057 18.81128 40.970101 17.453081 43.996189 17.453081 C 47.022277 17.453081 48.535013 18.81128 48.535013 21.527371 C 48.535013 22.821539 48.156983 23.828799 47.400307 24.548841 C 46.643939 25.268884 45.509233 25.629059 43.996189 25.629059 C 40.970101 25.629059 39.457057 24.261625 39.457057 21.527371 Z M 39.457057 21.527371 " stroke="#ff91fd" stroke-width="4.2" stroke-opacity="1" stroke-miterlimit="4"/><g fill="#ffffff" fill-opacity="1"><g transform="translate(44.425628, 558.981264)"><g><path d="M 178.34375 6.9375 C 132.769531 6.9375 96.972656 -10.753906 70.953125 -46.140625 C 44.929688 -81.535156 31.921875 -130.578125 31.921875 -193.265625 C 31.921875 -256.867188 45.160156 -306.425781 71.640625 -341.9375 C 98.128906 -377.445312 134.625 -395.203125 181.125 -395.203125 C 229.925781 -395.203125 267.164062 -376.234375 292.84375 -338.296875 L 296.3125 -338.296875 C 290.988281 -367.210938 288.328125 -393.003906 288.328125 -415.671875 L 288.328125 -539.890625 L 394.5 -539.890625 L 394.5 0 L 313.3125 0 L 292.84375 -50.3125 L 288.328125 -50.3125 C 264.273438 -12.144531 227.613281 6.9375 178.34375 6.9375 Z M 215.46875 -77.375 C 242.53125 -77.375 262.363281 -85.238281 274.96875 -100.96875 C 287.582031 -116.695312 294.46875 -143.414062 295.625 -181.125 L 295.625 -192.5625 C 295.625 -234.195312 289.203125 -264.035156 276.359375 -282.078125 C 263.523438 -300.128906 242.648438 -309.15625 213.734375 -309.15625 C 190.140625 -309.15625 171.804688 -299.148438 158.734375 -279.140625 C 145.671875 -259.128906 139.140625 -230.039062 139.140625 -191.875 C 139.140625 -153.707031 145.726562 -125.082031 158.90625 -106 C 172.09375 -86.914062 190.945312 -77.375 215.46875 -77.375 Z M 215.46875 -77.375 "/></g></g><g transform="translate(494.096854, 558.981264)"><g><path d="M 24.28125 170.703125 C -2.78125 170.703125 -26.023438 167.8125 -45.453125 162.03125 L -45.453125 78.765625 C -29.265625 83.160156 -12.726562 85.359375 4.15625 85.359375 C 21.96875 85.359375 34.976562 80.382812 43.1875 70.4375 C 51.40625 60.488281 55.515625 45.800781 55.515625 26.375 L 55.515625 -387.90625 L 161.34375 -387.90625 L 161.34375 41.984375 C 161.34375 83.160156 149.425781 114.90625 125.59375 137.21875 C 101.769531 159.539062 68 170.703125 24.28125 170.703125 Z M 51 -488.1875 C 51 -522.65625 70.195312 -539.890625 108.59375 -539.890625 C 147 -539.890625 166.203125 -522.65625 166.203125 -488.1875 C 166.203125 -471.757812 161.398438 -458.976562 151.796875 -449.84375 C 142.203125 -440.707031 127.800781 -436.140625 108.59375 -436.140625 C 70.195312 -436.140625 51 -453.488281 51 -488.1875 Z M 51 -488.1875 "/></g></g></g></svg>