<svg xmlns="http://www.w3.org/2000/svg" xmlns:xlink="http://www.w3.org/1999/xlink" width="1024" zoomAndPan="magnify" viewBox="0 0 768 767.999994" height="1024" preserveAspectRatio="xMidYMid meet" version="1.0"><defs><g/></defs><path stroke-linecap="butt" transform="matrix(1.032346, 0, 0, 1.032346, 19.856223, -2.613261)" fill="none" stroke-linejoin="miter" d="M 125.937455 520.617381 C 195.511273 520.617381 246.381476 501.913765 246.381476 440.320105 C 246.381476 389.446119 218.002532 377.678317 157.453218 370.746287 C 153.794226 370.224114 151.569317 367.999205 151.569317 364.862386 C 151.569317 362.115304 154.316399 360.02283 158.501347 360.02283 C 194.463144 360.545002 221.797743 365.906731 240.497575 375.453408 L 240.497575 268.34749 C 214.211106 258.800813 171.445929 247.555183 129.60023 247.555183 C 62.118886 247.555183 10.722727 274.757347 10.722727 335.306662 C 10.722727 386.699037 42.893097 406.057261 100.173158 412.985507 C 103.968368 413.511463 106.060842 415.732589 106.060842 418.873192 C 106.060842 421.61649 103.442412 424.23492 99.650985 424.23492 C 73.890472 423.186791 33.217769 416.780718 15.562282 407.623778 L 15.562282 499.821291 C 47.078046 510.022575 80.296545 520.617381 125.937455 520.617381 Z M 441.378875 496.029864 L 444.125957 591.890153 L 541.030591 591.890153 L 545.870146 397.422494 L 542.07872 250.16983 L 452.628289 250.16983 L 450.009858 283.910502 C 436.017147 264.684714 410.911241 249.647658 385.146944 249.647658 C 317.143427 249.647658 267.839742 283.910502 267.839742 383.562218 C 267.839742 480.989024 309.034617 517.476778 377.170569 517.476778 C 404.894905 517.476778 425.819646 508.845795 441.378875 496.029864 Z M 377.692741 408.149735 C 377.692741 391.01642 388.416198 385.132519 401.754302 385.132519 C 415.618362 385.132519 426.341819 393.763502 426.341819 408.149735 C 426.341819 424.757093 415.618362 432.865903 401.754302 432.865903 C 388.416198 432.865903 377.692741 426.456045 377.692741 408.149735 Z M 567.271654 517.998951 L 694.780141 517.998951 L 684.578856 175.234283 L 576.950766 175.234283 Z M 567.271654 517.998951 " stroke="#ff91fd" stroke-width="40.174801" stroke-opacity="1" stroke-miterlimit="4"/><g fill="#ffffff" fill-opacity="1"><g transform="translate(19.856223, 532.141708)"><g><path d="M 129.953125 2.765625 C 201.839844 2.765625 254.375 -16.589844 254.375 -80.183594 C 254.375 -132.714844 225.066406 -144.882812 162.578125 -152.070312 C 158.707031 -152.625 156.496094 -154.835938 156.496094 -158.152344 C 156.496094 -160.917969 159.261719 -163.132812 163.683594 -163.132812 C 200.734375 -162.578125 228.9375 -157.046875 248.289062 -147.09375 L 248.289062 -257.691406 C 221.195312 -267.644531 176.957031 -279.257812 133.824219 -279.257812 C 64.144531 -279.257812 11.058594 -251.054688 11.058594 -188.566406 C 11.058594 -135.480469 44.238281 -115.574219 103.410156 -108.386719 C 107.28125 -107.832031 109.492188 -105.621094 109.492188 -102.300781 C 109.492188 -99.539062 106.726562 -96.773438 102.855469 -96.773438 C 76.3125 -97.878906 34.285156 -104.515625 16.035156 -113.914062 L 16.035156 -18.800781 C 48.664062 -8.292969 82.949219 2.765625 129.953125 2.765625 Z M 129.953125 2.765625 "/></g></g></g><g fill="#ffffff" fill-opacity="1"><g transform="translate(285.289202, 532.141708)"><g><path d="M 190.226562 -22.671875 L 192.992188 76.3125 L 293.082031 76.3125 L 298.058594 -124.421875 L 294.1875 -276.492188 L 201.839844 -276.492188 L 199.074219 -241.65625 C 184.699219 -261.5625 158.707031 -277.046875 132.164062 -277.046875 C 61.933594 -277.046875 11.058594 -241.65625 11.058594 -138.800781 C 11.058594 -38.15625 53.640625 -0.554688 123.867188 -0.554688 C 152.625 -0.554688 174.191406 -9.402344 190.226562 -22.671875 Z M 124.421875 -113.363281 C 124.421875 -131.058594 135.480469 -137.140625 149.304688 -137.140625 C 163.683594 -137.140625 174.742188 -128.292969 174.742188 -113.363281 C 174.742188 -96.21875 163.683594 -87.925781 149.304688 -87.925781 C 135.480469 -87.925781 124.421875 -94.5625 124.421875 -113.363281 Z M 124.421875 -113.363281 "/></g></g></g><g fill="#ffffff" fill-opacity="1"><g transform="translate(594.407905, 532.141708)"><g><path d="M 11.058594 0 L 142.671875 0 L 132.164062 -353.910156 L 21.011719 -353.910156 Z M 11.058594 0 "/></g></g></g></svg>