<svg xmlns="http://www.w3.org/2000/svg" xmlns:xlink="http://www.w3.org/1999/xlink" width="1024" zoomAndPan="magnify" viewBox="0 0 768 767.999994" height="1024" preserveAspectRatio="xMidYMid meet" version="1.0"><defs><clipPath id="3ad06438b3"><path d="M 51 0 L 716.96875 0 L 716.96875 768 L 51 768 Z M 51 0 " clip-rule="nonzero"/></clipPath></defs><path fill="#ff91fd" d="M 524.796875 512 C 523.957031 512 523.121094 511.957031 522.289062 511.875 C 521.453125 511.792969 520.625 511.671875 519.800781 511.507812 C 518.980469 511.34375 518.167969 511.140625 517.367188 510.898438 C 516.5625 510.65625 515.773438 510.371094 515 510.050781 C 514.226562 509.730469 513.46875 509.371094 512.730469 508.976562 C 511.988281 508.582031 511.269531 508.152344 510.574219 507.6875 C 509.875 507.21875 509.203125 506.722656 508.554688 506.1875 C 507.90625 505.65625 507.289062 505.09375 506.695312 504.5 C 506.101562 503.910156 505.539062 503.289062 505.007812 502.640625 C 504.476562 501.992188 503.976562 501.320312 503.511719 500.621094 C 503.046875 499.925781 502.613281 499.207031 502.21875 498.46875 C 501.824219 497.726562 501.464844 496.972656 501.144531 496.195312 C 500.824219 495.421875 500.542969 494.632812 500.300781 493.832031 C 500.054688 493.027344 499.851562 492.214844 499.6875 491.394531 C 499.523438 490.570312 499.402344 489.742188 499.320312 488.910156 C 499.238281 488.074219 499.195312 487.238281 499.195312 486.398438 L 499.195312 460.800781 C 499.195312 459.125 499.113281 457.449219 498.949219 455.78125 C 498.785156 454.113281 498.539062 452.457031 498.210938 450.8125 C 497.886719 449.167969 497.480469 447.542969 496.992188 445.9375 C 496.503906 444.332031 495.941406 442.757812 495.300781 441.207031 C 494.65625 439.65625 493.941406 438.144531 493.152344 436.664062 C 492.359375 435.1875 491.5 433.75 490.566406 432.355469 C 489.636719 430.960938 488.636719 429.617188 487.574219 428.320312 C 486.511719 427.023438 485.386719 425.78125 484.199219 424.597656 C 483.015625 423.410156 481.773438 422.285156 480.476562 421.222656 C 479.179688 420.15625 477.835938 419.160156 476.441406 418.230469 C 475.046875 417.296875 473.609375 416.4375 472.132812 415.644531 C 470.652344 414.855469 469.140625 414.140625 467.589844 413.496094 C 466.039062 412.855469 464.464844 412.292969 462.859375 411.804688 C 461.253906 411.316406 459.628906 410.910156 457.984375 410.582031 C 456.339844 410.257812 454.683594 410.011719 453.015625 409.847656 C 451.347656 409.683594 449.671875 409.601562 447.996094 409.601562 C 447.15625 409.601562 446.324219 409.683594 445.5 409.847656 C 444.675781 410.011719 443.875 410.253906 443.097656 410.574219 C 442.320312 410.894531 441.582031 411.289062 440.886719 411.757812 C 440.1875 412.222656 439.539062 412.753906 438.945312 413.347656 C 438.351562 413.941406 437.820312 414.589844 437.355469 415.289062 C 436.886719 415.988281 436.492188 416.726562 436.171875 417.5 C 435.847656 418.277344 435.605469 419.078125 435.441406 419.902344 C 435.277344 420.726562 435.195312 421.558594 435.195312 422.398438 C 435.195312 423.242188 435.277344 424.074219 435.441406 424.898438 C 435.605469 425.722656 435.847656 426.523438 436.171875 427.296875 C 436.492188 428.074219 436.886719 428.8125 437.355469 429.511719 C 437.820312 430.210938 438.351562 430.855469 438.945312 431.449219 C 439.539062 432.046875 440.1875 432.574219 440.886719 433.042969 C 441.582031 433.507812 442.320312 433.902344 443.097656 434.226562 C 443.875 434.546875 444.675781 434.789062 445.5 434.953125 C 446.324219 435.117188 447.15625 435.199219 447.996094 435.199219 C 448.835938 435.199219 449.671875 435.242188 450.503906 435.324219 C 451.339844 435.40625 452.167969 435.527344 452.992188 435.691406 C 453.8125 435.855469 454.625 436.058594 455.429688 436.300781 C 456.230469 436.546875 457.019531 436.828125 457.792969 437.148438 C 458.566406 437.46875 459.324219 437.828125 460.0625 438.222656 C 460.804688 438.617188 461.523438 439.046875 462.21875 439.515625 C 462.917969 439.980469 463.589844 440.480469 464.238281 441.011719 C 464.886719 441.542969 465.503906 442.105469 466.097656 442.699219 C 466.691406 443.289062 467.253906 443.910156 467.785156 444.558594 C 468.316406 445.207031 468.816406 445.878906 469.28125 446.578125 C 469.746094 447.273438 470.179688 447.992188 470.574219 448.730469 C 470.96875 449.472656 471.328125 450.230469 471.648438 451.003906 C 471.96875 451.777344 472.25 452.566406 472.496094 453.367188 C 472.738281 454.171875 472.941406 454.984375 473.105469 455.804688 C 473.269531 456.628906 473.390625 457.457031 473.472656 458.289062 C 473.554688 459.125 473.597656 459.960938 473.597656 460.800781 L 473.597656 486.398438 C 473.59375 490.035156 473.976562 493.628906 474.742188 497.179688 C 475.507812 500.734375 476.640625 504.164062 478.136719 507.476562 C 479.636719 510.789062 481.464844 513.902344 483.628906 516.824219 C 485.792969 519.742188 488.242188 522.402344 490.972656 524.800781 C 488.242188 527.199219 485.792969 529.855469 483.628906 532.777344 C 481.464844 535.695312 479.636719 538.8125 478.136719 542.125 C 476.640625 545.433594 475.507812 548.867188 474.742188 552.417969 C 473.976562 555.972656 473.59375 559.566406 473.597656 563.199219 L 473.597656 588.800781 C 473.597656 589.636719 473.554688 590.476562 473.472656 591.308594 C 473.390625 592.144531 473.269531 592.972656 473.105469 593.792969 C 472.941406 594.617188 472.738281 595.429688 472.496094 596.230469 C 472.25 597.035156 471.96875 597.820312 471.648438 598.597656 C 471.328125 599.371094 470.96875 600.128906 470.574219 600.867188 C 470.179688 601.605469 469.746094 602.324219 469.28125 603.023438 C 468.816406 603.71875 468.316406 604.390625 467.785156 605.039062 C 467.253906 605.6875 466.691406 606.308594 466.097656 606.902344 C 465.503906 607.496094 464.886719 608.058594 464.238281 608.589844 C 463.589844 609.121094 462.917969 609.621094 462.21875 610.085938 C 461.523438 610.550781 460.804688 610.980469 460.0625 611.378906 C 459.324219 611.773438 458.566406 612.128906 457.792969 612.453125 C 457.019531 612.773438 456.230469 613.054688 455.429688 613.296875 C 454.625 613.542969 453.8125 613.746094 452.992188 613.90625 C 452.167969 614.070312 451.339844 614.195312 450.503906 614.277344 C 449.671875 614.359375 448.835938 614.398438 447.996094 614.398438 C 447.15625 614.398438 446.324219 614.480469 445.5 614.644531 C 444.675781 614.808594 443.875 615.050781 443.097656 615.375 C 442.320312 615.695312 441.582031 616.089844 440.886719 616.558594 C 440.1875 617.023438 439.539062 617.554688 438.945312 618.148438 C 438.351562 618.742188 437.820312 619.390625 437.355469 620.089844 C 436.886719 620.789062 436.492188 621.523438 436.171875 622.300781 C 435.847656 623.078125 435.605469 623.878906 435.441406 624.703125 C 435.277344 625.527344 435.195312 626.359375 435.195312 627.199219 C 435.195312 628.039062 435.277344 628.871094 435.441406 629.695312 C 435.605469 630.519531 435.847656 631.320312 436.171875 632.097656 C 436.492188 632.875 436.886719 633.613281 437.355469 634.3125 C 437.820312 635.011719 438.351562 635.65625 438.945312 636.25 C 439.539062 636.84375 440.1875 637.375 440.886719 637.84375 C 441.582031 638.308594 442.320312 638.703125 443.097656 639.027344 C 443.875 639.347656 444.675781 639.589844 445.5 639.753906 C 446.324219 639.917969 447.15625 640 447.996094 640 C 449.671875 640 451.347656 639.917969 453.015625 639.753906 C 454.683594 639.589844 456.339844 639.34375 457.984375 639.015625 C 459.628906 638.6875 461.253906 638.28125 462.859375 637.796875 C 464.464844 637.308594 466.039062 636.746094 467.589844 636.101562 C 469.140625 635.460938 470.652344 634.746094 472.132812 633.953125 C 473.609375 633.164062 475.046875 632.304688 476.441406 631.371094 C 477.835938 630.441406 479.179688 629.441406 480.476562 628.378906 C 481.773438 627.3125 483.015625 626.191406 484.199219 625.003906 C 485.386719 623.816406 486.511719 622.578125 487.574219 621.28125 C 488.636719 619.984375 489.636719 618.640625 490.566406 617.246094 C 491.5 615.851562 492.359375 614.414062 493.152344 612.933594 C 493.941406 611.457031 494.65625 609.941406 495.300781 608.394531 C 495.941406 606.84375 496.503906 605.265625 496.992188 603.664062 C 497.480469 602.058594 497.886719 600.433594 498.210938 598.789062 C 498.539062 597.144531 498.785156 595.488281 498.949219 593.820312 C 499.113281 592.148438 499.195312 590.476562 499.195312 588.800781 L 499.195312 563.199219 C 499.195312 562.363281 499.238281 561.523438 499.320312 560.691406 C 499.402344 559.855469 499.523438 559.027344 499.6875 558.207031 C 499.851562 557.382812 500.054688 556.570312 500.300781 555.769531 C 500.542969 554.964844 500.824219 554.179688 501.144531 553.402344 C 501.464844 552.628906 501.824219 551.871094 502.21875 551.132812 C 502.613281 550.394531 503.046875 549.675781 503.511719 548.976562 C 503.976562 548.28125 504.476562 547.609375 505.007812 546.960938 C 505.539062 546.3125 506.101562 545.691406 506.695312 545.097656 C 507.289062 544.503906 507.90625 543.941406 508.554688 543.410156 C 509.203125 542.878906 509.875 542.378906 510.574219 541.914062 C 511.269531 541.449219 511.988281 541.019531 512.730469 540.621094 C 513.46875 540.226562 514.226562 539.871094 515 539.546875 C 515.773438 539.226562 516.5625 538.945312 517.367188 538.703125 C 518.167969 538.460938 518.980469 538.253906 519.800781 538.09375 C 520.625 537.929688 521.453125 537.804688 522.289062 537.722656 C 523.121094 537.640625 523.957031 537.601562 524.796875 537.601562 C 525.636719 537.601562 526.46875 537.519531 527.292969 537.355469 C 528.117188 537.191406 528.917969 536.949219 529.695312 536.625 C 530.472656 536.304688 531.210938 535.910156 531.90625 535.441406 C 532.605469 534.976562 533.253906 534.445312 533.847656 533.851562 C 534.441406 533.257812 534.972656 532.609375 535.4375 531.910156 C 535.90625 531.210938 536.300781 530.476562 536.621094 529.699219 C 536.945312 528.921875 537.1875 528.121094 537.351562 527.296875 C 537.515625 526.472656 537.597656 525.640625 537.597656 524.800781 C 537.597656 523.960938 537.515625 523.128906 537.351562 522.304688 C 537.1875 521.476562 536.945312 520.679688 536.621094 519.902344 C 536.300781 519.125 535.90625 518.386719 535.4375 517.6875 C 534.972656 516.988281 534.441406 516.34375 533.847656 515.75 C 533.253906 515.15625 532.605469 514.625 531.90625 514.15625 C 531.210938 513.691406 530.472656 513.296875 529.695312 512.972656 C 528.917969 512.652344 528.117188 512.410156 527.292969 512.246094 C 526.46875 512.082031 525.636719 512 524.796875 512 Z M 524.796875 512 " fill-opacity="1" fill-rule="nonzero"/><path fill="#ff91fd" d="M 243.195312 460.800781 C 243.195312 459.960938 243.238281 459.125 243.320312 458.289062 C 243.402344 457.457031 243.523438 456.628906 243.6875 455.804688 C 243.851562 454.984375 244.054688 454.171875 244.300781 453.367188 C 244.542969 452.566406 244.824219 451.777344 245.144531 451.003906 C 245.464844 450.230469 245.824219 449.472656 246.21875 448.730469 C 246.613281 447.992188 247.046875 447.273438 247.511719 446.578125 C 247.976562 445.878906 248.476562 445.207031 249.007812 444.558594 C 249.539062 443.910156 250.101562 443.289062 250.695312 442.699219 C 251.289062 442.105469 251.90625 441.542969 252.554688 441.011719 C 253.203125 440.480469 253.875 439.980469 254.574219 439.515625 C 255.269531 439.046875 255.988281 438.617188 256.730469 438.222656 C 257.46875 437.828125 258.226562 437.46875 259 437.148438 C 259.773438 436.828125 260.5625 436.546875 261.367188 436.300781 C 262.167969 436.058594 262.980469 435.855469 263.800781 435.691406 C 264.625 435.527344 265.453125 435.40625 266.289062 435.324219 C 267.121094 435.242188 267.957031 435.199219 268.796875 435.199219 C 269.636719 435.199219 270.46875 435.117188 271.292969 434.953125 C 272.117188 434.789062 272.917969 434.546875 273.695312 434.226562 C 274.472656 433.902344 275.210938 433.507812 275.90625 433.042969 C 276.605469 432.574219 277.253906 432.046875 277.847656 431.449219 C 278.441406 430.855469 278.972656 430.210938 279.4375 429.511719 C 279.90625 428.8125 280.300781 428.074219 280.621094 427.296875 C 280.945312 426.523438 281.1875 425.722656 281.351562 424.898438 C 281.515625 424.074219 281.597656 423.242188 281.597656 422.398438 C 281.597656 421.558594 281.515625 420.726562 281.351562 419.902344 C 281.1875 419.078125 280.945312 418.277344 280.621094 417.5 C 280.300781 416.726562 279.90625 415.988281 279.4375 415.289062 C 278.972656 414.589844 278.441406 413.941406 277.847656 413.347656 C 277.253906 412.753906 276.605469 412.222656 275.90625 411.757812 C 275.210938 411.289062 274.472656 410.894531 273.695312 410.574219 C 272.917969 410.253906 272.117188 410.011719 271.292969 409.847656 C 270.46875 409.683594 269.636719 409.601562 268.796875 409.601562 C 267.121094 409.601562 265.445312 409.683594 263.777344 409.847656 C 262.109375 410.011719 260.453125 410.257812 258.808594 410.582031 C 257.164062 410.910156 255.539062 411.316406 253.933594 411.804688 C 252.328125 412.292969 250.753906 412.855469 249.203125 413.496094 C 247.652344 414.140625 246.140625 414.855469 244.660156 415.644531 C 243.183594 416.4375 241.746094 417.296875 240.351562 418.230469 C 238.957031 419.160156 237.613281 420.15625 236.316406 421.222656 C 235.019531 422.285156 233.777344 423.410156 232.59375 424.597656 C 231.40625 425.78125 230.28125 427.023438 229.21875 428.320312 C 228.15625 429.617188 227.15625 430.960938 226.226562 432.355469 C 225.292969 433.75 224.433594 435.1875 223.640625 436.664062 C 222.851562 438.144531 222.136719 439.65625 221.492188 441.207031 C 220.851562 442.757812 220.289062 444.332031 219.800781 445.9375 C 219.316406 447.542969 218.90625 449.167969 218.582031 450.8125 C 218.253906 452.457031 218.007812 454.113281 217.84375 455.78125 C 217.679688 457.449219 217.597656 459.125 217.597656 460.800781 L 217.597656 486.398438 C 217.597656 487.238281 217.554688 488.074219 217.472656 488.910156 C 217.390625 489.742188 217.269531 490.570312 217.105469 491.394531 C 216.941406 492.214844 216.738281 493.027344 216.496094 493.832031 C 216.25 494.632812 215.96875 495.421875 215.648438 496.195312 C 215.328125 496.972656 214.96875 497.726562 214.574219 498.46875 C 214.179688 499.207031 213.746094 499.925781 213.28125 500.621094 C 212.816406 501.320312 212.316406 501.992188 211.785156 502.640625 C 211.253906 503.289062 210.691406 503.910156 210.097656 504.5 C 209.503906 505.09375 208.886719 505.65625 208.238281 506.1875 C 207.589844 506.722656 206.917969 507.21875 206.21875 507.6875 C 205.523438 508.152344 204.804688 508.582031 204.0625 508.976562 C 203.324219 509.371094 202.566406 509.730469 201.792969 510.050781 C 201.019531 510.371094 200.230469 510.65625 199.429688 510.898438 C 198.625 511.140625 197.8125 511.34375 196.992188 511.507812 C 196.167969 511.671875 195.339844 511.792969 194.503906 511.875 C 193.671875 511.957031 192.835938 512 191.996094 512 C 191.15625 512 190.324219 512.082031 189.5 512.246094 C 188.675781 512.410156 187.875 512.652344 187.097656 512.972656 C 186.320312 513.296875 185.585938 513.691406 184.886719 514.15625 C 184.1875 514.625 183.539062 515.15625 182.945312 515.75 C 182.351562 516.34375 181.820312 516.988281 181.355469 517.6875 C 180.886719 518.386719 180.492188 519.125 180.171875 519.902344 C 179.847656 520.679688 179.605469 521.476562 179.441406 522.304688 C 179.277344 523.128906 179.195312 523.960938 179.195312 524.800781 C 179.195312 525.640625 179.277344 526.472656 179.441406 527.296875 C 179.605469 528.121094 179.847656 528.921875 180.171875 529.699219 C 180.492188 530.476562 180.886719 531.210938 181.355469 531.910156 C 181.820312 532.609375 182.351562 533.257812 182.945312 533.851562 C 183.539062 534.445312 184.1875 534.976562 184.886719 535.441406 C 185.585938 535.910156 186.320312 536.304688 187.097656 536.625 C 187.875 536.949219 188.675781 537.191406 189.5 537.355469 C 190.324219 537.519531 191.15625 537.601562 191.996094 537.601562 C 192.835938 537.601562 193.671875 537.640625 194.503906 537.722656 C 195.339844 537.804688 196.167969 537.929688 196.992188 538.09375 C 197.8125 538.253906 198.625 538.460938 199.429688 538.703125 C 200.230469 538.945312 201.019531 539.226562 201.792969 539.546875 C 202.566406 539.871094 203.324219 540.226562 204.0625 540.621094 C 204.804688 541.019531 205.523438 541.449219 206.21875 541.914062 C 206.917969 542.378906 207.589844 542.878906 208.238281 543.410156 C 208.886719 543.941406 209.503906 544.503906 210.097656 545.097656 C 210.691406 545.691406 211.253906 546.3125 211.785156 546.960938 C 212.316406 547.609375 212.816406 548.28125 213.28125 548.976562 C 213.746094 549.675781 214.179688 550.394531 214.574219 551.132812 C 214.96875 551.871094 215.328125 552.628906 215.648438 553.402344 C 215.96875 554.179688 216.25 554.964844 216.496094 555.769531 C 216.738281 556.570312 216.941406 557.382812 217.105469 558.207031 C 217.269531 559.027344 217.390625 559.855469 217.472656 560.691406 C 217.554688 561.523438 217.597656 562.363281 217.597656 563.199219 L 217.597656 588.800781 C 217.597656 590.476562 217.679688 592.148438 217.84375 593.820312 C 218.007812 595.488281 218.253906 597.144531 218.582031 598.789062 C 218.90625 600.433594 219.316406 602.058594 219.800781 603.664062 C 220.289062 605.265625 220.851562 606.84375 221.492188 608.394531 C 222.136719 609.941406 222.851562 611.457031 223.640625 612.933594 C 224.433594 614.414062 225.292969 615.851562 226.226562 617.246094 C 227.15625 618.640625 228.15625 619.984375 229.21875 621.28125 C 230.28125 622.578125 231.40625 623.816406 232.59375 625.003906 C 233.777344 626.191406 235.019531 627.3125 236.316406 628.378906 C 237.613281 629.441406 238.957031 630.441406 240.351562 631.371094 C 241.746094 632.304688 243.183594 633.164062 244.660156 633.953125 C 246.140625 634.746094 247.652344 635.460938 249.203125 636.101562 C 250.753906 636.746094 252.328125 637.308594 253.933594 637.796875 C 255.539062 638.28125 257.164062 638.6875 258.808594 639.015625 C 260.453125 639.34375 262.109375 639.589844 263.777344 639.753906 C 265.445312 639.917969 267.121094 640 268.796875 640 C 269.636719 640 270.46875 639.917969 271.292969 639.753906 C 272.117188 639.589844 272.917969 639.347656 273.695312 639.027344 C 274.472656 638.703125 275.210938 638.308594 275.90625 637.84375 C 276.605469 637.375 277.253906 636.84375 277.847656 636.25 C 278.441406 635.65625 278.972656 635.011719 279.4375 634.3125 C 279.90625 633.613281 280.300781 632.875 280.621094 632.097656 C 280.945312 631.320312 281.1875 630.519531 281.351562 629.695312 C 281.515625 628.871094 281.597656 628.039062 281.597656 627.199219 C 281.597656 626.359375 281.515625 625.527344 281.351562 624.703125 C 281.1875 623.878906 280.945312 623.078125 280.621094 622.300781 C 280.300781 621.523438 279.90625 620.789062 279.4375 620.089844 C 278.972656 619.390625 278.441406 618.742188 277.847656 618.148438 C 277.253906 617.554688 276.605469 617.023438 275.90625 616.558594 C 275.210938 616.089844 274.472656 615.695312 273.695312 615.375 C 272.917969 615.050781 272.117188 614.808594 271.292969 614.644531 C 270.46875 614.480469 269.636719 614.398438 268.796875 614.398438 C 267.957031 614.398438 267.121094 614.359375 266.289062 614.277344 C 265.453125 614.195312 264.625 614.070312 263.800781 613.90625 C 262.980469 613.746094 262.167969 613.542969 261.367188 613.296875 C 260.5625 613.054688 259.773438 612.773438 259 612.453125 C 258.226562 612.128906 257.46875 611.773438 256.730469 611.378906 C 255.988281 610.980469 255.269531 610.550781 254.574219 610.085938 C 253.875 609.621094 253.203125 609.121094 252.554688 608.589844 C 251.90625 608.058594 251.289062 607.496094 250.695312 606.902344 C 250.101562 606.308594 249.539062 605.6875 249.007812 605.039062 C 248.476562 604.390625 247.976562 603.71875 247.511719 603.023438 C 247.046875 602.324219 246.613281 601.605469 246.21875 600.867188 C 245.824219 600.128906 245.464844 599.371094 245.144531 598.597656 C 244.824219 597.820312 244.542969 597.035156 244.300781 596.230469 C 244.054688 595.429688 243.851562 594.617188 243.6875 593.792969 C 243.523438 592.972656 243.402344 592.144531 243.320312 591.308594 C 243.238281 590.476562 243.195312 589.636719 243.195312 588.800781 L 243.195312 563.199219 C 243.199219 559.566406 242.816406 555.972656 242.050781 552.417969 C 241.285156 548.867188 240.152344 545.433594 238.65625 542.125 C 237.15625 538.8125 235.328125 535.695312 233.164062 532.777344 C 231 529.855469 228.550781 527.199219 225.820312 524.800781 C 228.550781 522.402344 231 519.742188 233.164062 516.824219 C 235.328125 513.902344 237.15625 510.789062 238.65625 507.476562 C 240.152344 504.164062 241.285156 500.734375 242.050781 497.179688 C 242.816406 493.628906 243.199219 490.035156 243.195312 486.398438 Z M 243.195312 460.800781 " fill-opacity="1" fill-rule="nonzero"/><g clip-path="url(#3ad06438b3)"><path fill="#ff91fd" d="M 703.996094 0 L 115.195312 0 C 114.355469 0 113.523438 0.0820312 112.699219 0.246094 C 111.875 0.410156 111.074219 0.652344 110.296875 0.972656 C 109.523438 1.296875 108.785156 1.691406 108.085938 2.15625 C 107.386719 2.625 106.738281 3.15625 106.144531 3.75 C 105.550781 4.34375 105.019531 4.988281 104.554688 5.6875 C 104.085938 6.386719 103.691406 7.125 103.371094 7.902344 C 103.050781 8.679688 102.804688 9.480469 102.640625 10.304688 C 102.480469 11.128906 102.398438 11.960938 102.398438 12.800781 L 102.398438 51.199219 L 63.996094 51.199219 C 63.15625 51.199219 62.324219 51.28125 61.5 51.445312 C 60.675781 51.609375 59.875 51.851562 59.097656 52.175781 C 58.320312 52.496094 57.585938 52.890625 56.886719 53.355469 C 56.1875 53.824219 55.539062 54.355469 54.945312 54.949219 C 54.351562 55.542969 53.820312 56.191406 53.355469 56.890625 C 52.886719 57.585938 52.492188 58.324219 52.171875 59.101562 C 51.847656 59.878906 51.605469 60.679688 51.441406 61.503906 C 51.277344 62.328125 51.195312 63.160156 51.195312 64 L 51.195312 755.199219 C 51.195312 756.039062 51.277344 756.871094 51.441406 757.695312 C 51.605469 758.519531 51.847656 759.320312 52.171875 760.097656 C 52.492188 760.875 52.886719 761.613281 53.355469 762.3125 C 53.820312 763.011719 54.351562 763.65625 54.945312 764.25 C 55.539062 764.84375 56.1875 765.375 56.886719 765.84375 C 57.585938 766.308594 58.320312 766.703125 59.097656 767.027344 C 59.875 767.347656 60.675781 767.589844 61.5 767.753906 C 62.324219 767.917969 63.15625 768 63.996094 768 L 652.796875 768 C 653.636719 768 654.46875 767.917969 655.292969 767.753906 C 656.117188 767.589844 656.917969 767.347656 657.695312 767.027344 C 658.472656 766.703125 659.207031 766.308594 659.90625 765.84375 C 660.605469 765.375 661.253906 764.84375 661.847656 764.25 C 662.441406 763.65625 662.972656 763.011719 663.4375 762.3125 C 663.90625 761.613281 664.300781 760.875 664.621094 760.097656 C 664.945312 759.320312 665.1875 758.519531 665.351562 757.695312 C 665.515625 756.871094 665.597656 756.039062 665.597656 755.199219 L 665.597656 716.800781 L 703.996094 716.800781 C 704.835938 716.800781 705.667969 716.71875 706.492188 716.554688 C 707.316406 716.390625 708.117188 716.148438 708.894531 715.824219 C 709.671875 715.503906 710.410156 715.109375 711.109375 714.644531 C 711.804688 714.175781 712.453125 713.644531 713.046875 713.050781 C 713.640625 712.457031 714.171875 711.808594 714.640625 711.109375 C 715.105469 710.414062 715.5 709.675781 715.820312 708.898438 C 716.144531 708.121094 716.386719 707.320312 716.550781 706.496094 C 716.714844 705.671875 716.796875 704.839844 716.796875 704 L 716.796875 12.800781 C 716.796875 11.960938 716.714844 11.128906 716.550781 10.304688 C 716.386719 9.480469 716.144531 8.679688 715.820312 7.902344 C 715.5 7.125 715.105469 6.386719 714.640625 5.6875 C 714.171875 4.988281 713.640625 4.34375 713.046875 3.75 C 712.453125 3.15625 711.804688 2.625 711.109375 2.15625 C 710.410156 1.691406 709.671875 1.296875 708.894531 0.972656 C 708.117188 0.652344 707.316406 0.410156 706.492188 0.246094 C 705.667969 0.0820312 704.835938 0 703.996094 0 Z M 115.195312 166.398438 C 115.195312 165.351562 115.222656 164.304688 115.273438 163.257812 C 115.324219 162.214844 115.402344 161.167969 115.503906 160.125 C 115.605469 159.085938 115.734375 158.046875 115.890625 157.007812 C 116.042969 155.972656 116.222656 154.941406 116.425781 153.914062 C 116.628906 152.886719 116.859375 151.867188 117.113281 150.847656 C 117.367188 149.832031 117.648438 148.824219 117.953125 147.820312 C 118.257812 146.820312 118.585938 145.824219 118.9375 144.839844 C 119.289062 143.851562 119.667969 142.875 120.066406 141.910156 C 120.46875 140.941406 120.894531 139.984375 121.339844 139.035156 C 121.789062 138.089844 122.261719 137.15625 122.753906 136.230469 C 123.246094 135.308594 123.761719 134.394531 124.300781 133.496094 C 124.839844 132.597656 125.402344 131.714844 125.984375 130.84375 C 126.5625 129.972656 127.167969 129.117188 127.792969 128.273438 C 128.414062 127.433594 129.058594 126.609375 129.722656 125.800781 C 130.386719 124.988281 131.074219 124.195312 131.777344 123.421875 C 132.480469 122.644531 133.199219 121.886719 133.941406 121.144531 C 134.683594 120.40625 135.441406 119.683594 136.214844 118.980469 C 136.992188 118.277344 137.785156 117.59375 138.59375 116.925781 C 139.40625 116.261719 140.230469 115.617188 141.070312 114.996094 C 141.914062 114.371094 142.769531 113.769531 143.640625 113.1875 C 144.511719 112.605469 145.394531 112.042969 146.292969 111.503906 C 147.191406 110.96875 148.101562 110.449219 149.027344 109.957031 C 149.949219 109.464844 150.886719 108.992188 151.832031 108.542969 C 152.78125 108.097656 153.738281 107.671875 154.703125 107.273438 C 155.671875 106.871094 156.648438 106.492188 157.636719 106.140625 C 158.621094 105.789062 159.617188 105.460938 160.617188 105.15625 C 161.621094 104.851562 162.628906 104.574219 163.644531 104.316406 C 164.660156 104.0625 165.683594 103.835938 166.710938 103.628906 C 167.738281 103.425781 168.769531 103.246094 169.804688 103.09375 C 170.84375 102.9375 171.882812 102.8125 172.921875 102.707031 C 173.964844 102.605469 175.011719 102.527344 176.054688 102.476562 C 177.101562 102.425781 178.148438 102.398438 179.195312 102.398438 L 204.796875 102.398438 C 205.636719 102.398438 206.46875 102.480469 207.292969 102.644531 C 208.117188 102.808594 208.917969 103.050781 209.695312 103.375 C 210.472656 103.695312 211.210938 104.089844 211.90625 104.558594 C 212.605469 105.023438 213.253906 105.554688 213.847656 106.148438 C 214.441406 106.742188 214.972656 107.390625 215.4375 108.089844 C 215.90625 108.789062 216.300781 109.523438 216.621094 110.300781 C 216.945312 111.078125 217.1875 111.878906 217.351562 112.703125 C 217.515625 113.527344 217.597656 114.359375 217.597656 115.199219 C 217.597656 116.039062 217.515625 116.871094 217.351562 117.695312 C 217.1875 118.519531 216.945312 119.320312 216.621094 120.097656 C 216.300781 120.875 215.90625 121.613281 215.4375 122.3125 C 214.972656 123.011719 214.441406 123.65625 213.847656 124.25 C 213.253906 124.84375 212.605469 125.375 211.90625 125.84375 C 211.210938 126.308594 210.472656 126.703125 209.695312 127.027344 C 208.917969 127.347656 208.117188 127.589844 207.292969 127.753906 C 206.46875 127.917969 205.636719 128 204.796875 128 L 179.195312 128 C 177.941406 128.003906 176.6875 128.070312 175.4375 128.195312 C 174.1875 128.320312 172.945312 128.507812 171.710938 128.757812 C 170.480469 129.003906 169.265625 129.3125 168.0625 129.679688 C 166.859375 130.046875 165.679688 130.46875 164.519531 130.953125 C 163.359375 131.433594 162.226562 131.972656 161.117188 132.566406 C 160.007812 133.160156 158.933594 133.808594 157.890625 134.503906 C 156.84375 135.203125 155.835938 135.953125 154.867188 136.75 C 153.894531 137.546875 152.964844 138.390625 152.078125 139.28125 C 151.1875 140.167969 150.34375 141.097656 149.546875 142.070312 C 148.75 143.039062 148 144.046875 147.300781 145.09375 C 146.601562 146.136719 145.957031 147.210938 145.363281 148.320312 C 144.769531 149.429688 144.230469 150.5625 143.75 151.722656 C 143.265625 152.882812 142.84375 154.0625 142.476562 155.265625 C 142.109375 156.46875 141.800781 157.683594 141.554688 158.917969 C 141.304688 160.148438 141.117188 161.390625 140.992188 162.640625 C 140.863281 163.890625 140.800781 165.144531 140.796875 166.398438 L 140.796875 192 C 140.800781 193.257812 140.863281 194.511719 140.992188 195.761719 C 141.117188 197.011719 141.304688 198.25 141.554688 199.484375 C 141.800781 200.714844 142.109375 201.933594 142.476562 203.132812 C 142.84375 204.335938 143.265625 205.515625 143.75 206.675781 C 144.230469 207.839844 144.769531 208.972656 145.363281 210.078125 C 145.957031 211.1875 146.601562 212.261719 147.300781 213.308594 C 148 214.351562 148.75 215.359375 149.546875 216.332031 C 150.34375 217.300781 151.1875 218.230469 152.078125 219.121094 C 152.964844 220.007812 153.894531 220.851562 154.867188 221.648438 C 155.835938 222.445312 156.84375 223.195312 157.890625 223.894531 C 158.933594 224.59375 160.007812 225.238281 161.117188 225.832031 C 162.226562 226.425781 163.359375 226.964844 164.519531 227.445312 C 165.679688 227.929688 166.859375 228.355469 168.0625 228.722656 C 169.265625 229.089844 170.480469 229.394531 171.710938 229.644531 C 172.945312 229.890625 174.1875 230.078125 175.4375 230.203125 C 176.6875 230.332031 177.941406 230.394531 179.195312 230.398438 L 204.796875 230.398438 C 205.636719 230.398438 206.46875 230.480469 207.292969 230.644531 C 208.117188 230.808594 208.917969 231.050781 209.695312 231.375 C 210.472656 231.695312 211.210938 232.089844 211.90625 232.558594 C 212.605469 233.023438 213.253906 233.554688 213.847656 234.148438 C 214.441406 234.742188 214.972656 235.390625 215.4375 236.089844 C 215.90625 236.789062 216.300781 237.523438 216.621094 238.300781 C 216.945312 239.078125 217.1875 239.878906 217.351562 240.703125 C 217.515625 241.527344 217.597656 242.359375 217.597656 243.199219 C 217.597656 244.039062 217.515625 244.871094 217.351562 245.695312 C 217.1875 246.519531 216.945312 247.320312 216.621094 248.097656 C 216.300781 248.875 215.90625 249.613281 215.4375 250.3125 C 214.972656 251.011719 214.441406 251.65625 213.847656 252.25 C 213.253906 252.84375 212.605469 253.375 211.90625 253.84375 C 211.210938 254.308594 210.472656 254.703125 209.695312 255.027344 C 208.917969 255.347656 208.117188 255.589844 207.292969 255.753906 C 206.46875 255.917969 205.636719 256 204.796875 256 L 179.195312 256 C 178.148438 256 177.101562 255.972656 176.054688 255.921875 C 175.011719 255.871094 173.964844 255.792969 172.921875 255.691406 C 171.882812 255.589844 170.84375 255.460938 169.804688 255.308594 C 168.769531 255.152344 167.738281 254.972656 166.710938 254.769531 C 165.683594 254.566406 164.660156 254.335938 163.644531 254.082031 C 162.628906 253.828125 161.621094 253.546875 160.617188 253.246094 C 159.617188 252.941406 158.621094 252.613281 157.636719 252.257812 C 156.648438 251.90625 155.671875 251.527344 154.703125 251.128906 C 153.738281 250.726562 152.78125 250.304688 151.832031 249.855469 C 150.886719 249.40625 149.949219 248.9375 149.027344 248.441406 C 148.101562 247.949219 147.191406 247.433594 146.292969 246.894531 C 145.394531 246.355469 144.511719 245.796875 143.640625 245.214844 C 142.769531 244.632812 141.914062 244.027344 141.070312 243.40625 C 140.230469 242.78125 139.40625 242.136719 138.59375 241.472656 C 137.785156 240.808594 136.992188 240.125 136.214844 239.421875 C 135.441406 238.71875 134.683594 237.996094 133.941406 237.253906 C 133.199219 236.515625 132.480469 235.757812 131.777344 234.980469 C 131.074219 234.203125 130.386719 233.410156 129.722656 232.601562 C 129.058594 231.792969 128.414062 230.964844 127.792969 230.125 C 127.167969 229.285156 126.5625 228.425781 125.984375 227.554688 C 125.402344 226.6875 124.839844 225.800781 124.300781 224.902344 C 123.761719 224.003906 123.246094 223.09375 122.753906 222.167969 C 122.261719 221.246094 121.789062 220.308594 121.339844 219.363281 C 120.894531 218.417969 120.46875 217.460938 120.066406 216.492188 C 119.667969 215.523438 119.289062 214.546875 118.9375 213.5625 C 118.585938 212.574219 118.257812 211.582031 117.953125 210.578125 C 117.648438 209.574219 117.367188 208.566406 117.113281 207.550781 C 116.859375 206.535156 116.628906 205.511719 116.425781 204.484375 C 116.222656 203.457031 116.042969 202.425781 115.890625 201.390625 C 115.734375 200.355469 115.605469 199.316406 115.503906 198.273438 C 115.402344 197.230469 115.324219 196.1875 115.273438 195.140625 C 115.222656 194.09375 115.195312 193.046875 115.195312 192 Z M 639.996094 742.398438 L 76.796875 742.398438 L 76.796875 307.199219 L 639.996094 307.199219 Z M 300.796875 192 L 287.996094 192 C 286.53125 192 285.066406 191.929688 283.605469 191.785156 C 282.144531 191.640625 280.695312 191.425781 279.257812 191.140625 C 277.816406 190.851562 276.394531 190.496094 274.992188 190.070312 C 273.585938 189.644531 272.207031 189.152344 270.851562 188.589844 C 269.496094 188.027344 268.171875 187.402344 266.878906 186.710938 C 265.582031 186.019531 264.328125 185.265625 263.105469 184.449219 C 261.886719 183.632812 260.710938 182.761719 259.574219 181.832031 C 258.441406 180.898438 257.355469 179.914062 256.316406 178.878906 C 255.28125 177.839844 254.296875 176.753906 253.367188 175.621094 C 252.433594 174.488281 251.5625 173.308594 250.746094 172.089844 C 249.929688 170.871094 249.179688 169.613281 248.488281 168.320312 C 247.792969 167.023438 247.167969 165.699219 246.605469 164.34375 C 246.046875 162.988281 245.550781 161.609375 245.125 160.203125 C 244.699219 158.800781 244.34375 157.378906 244.058594 155.941406 C 243.769531 154.5 243.554688 153.050781 243.414062 151.589844 C 243.269531 150.132812 243.195312 148.667969 243.195312 147.199219 C 243.195312 145.734375 243.269531 144.269531 243.414062 142.808594 C 243.554688 141.347656 243.769531 139.898438 244.058594 138.460938 C 244.34375 137.019531 244.699219 135.597656 245.125 134.195312 C 245.550781 132.792969 246.046875 131.410156 246.605469 130.054688 C 247.167969 128.699219 247.792969 127.375 248.488281 126.082031 C 249.179688 124.789062 249.929688 123.53125 250.746094 122.308594 C 251.5625 121.089844 252.433594 119.914062 253.367188 118.777344 C 254.296875 117.644531 255.28125 116.558594 256.316406 115.523438 C 257.355469 114.484375 258.441406 113.5 259.574219 112.570312 C 260.710938 111.636719 261.886719 110.765625 263.105469 109.949219 C 264.328125 109.136719 265.582031 108.382812 266.878906 107.691406 C 268.171875 107 269.496094 106.371094 270.851562 105.808594 C 272.207031 105.25 273.585938 104.753906 274.992188 104.328125 C 276.394531 103.902344 277.816406 103.546875 279.257812 103.261719 C 280.695312 102.972656 282.144531 102.757812 283.605469 102.617188 C 285.066406 102.472656 286.53125 102.398438 287.996094 102.398438 L 307.195312 102.398438 C 308.453125 102.402344 309.707031 102.46875 310.957031 102.59375 C 312.207031 102.722656 313.449219 102.910156 314.679688 103.15625 C 315.914062 103.402344 317.128906 103.710938 318.332031 104.078125 C 319.53125 104.445312 320.714844 104.871094 321.875 105.351562 C 323.035156 105.835938 324.167969 106.375 325.277344 106.96875 C 326.382812 107.5625 327.460938 108.207031 328.503906 108.90625 C 329.546875 109.605469 330.554688 110.351562 331.527344 111.152344 C 332.5 111.949219 333.429688 112.792969 334.316406 113.679688 C 335.207031 114.566406 336.046875 115.5 336.847656 116.46875 C 337.644531 117.441406 338.390625 118.449219 339.089844 119.492188 C 339.789062 120.535156 340.4375 121.613281 341.03125 122.71875 C 341.625 123.828125 342.160156 124.960938 342.644531 126.121094 C 343.125 127.28125 343.550781 128.464844 343.917969 129.664062 C 344.285156 130.867188 344.59375 132.085938 344.839844 133.316406 C 345.089844 134.546875 345.273438 135.789062 345.402344 137.039062 C 345.527344 138.289062 345.59375 139.542969 345.597656 140.800781 C 345.597656 141.640625 345.515625 142.472656 345.351562 143.296875 C 345.1875 144.121094 344.945312 144.921875 344.621094 145.699219 C 344.300781 146.476562 343.90625 147.210938 343.4375 147.910156 C 342.972656 148.609375 342.441406 149.257812 341.847656 149.851562 C 341.253906 150.445312 340.605469 150.976562 339.90625 151.441406 C 339.210938 151.910156 338.472656 152.304688 337.695312 152.625 C 336.917969 152.949219 336.117188 153.191406 335.292969 153.355469 C 334.46875 153.519531 333.636719 153.601562 332.796875 153.601562 C 331.957031 153.601562 331.125 153.519531 330.300781 153.355469 C 329.476562 153.191406 328.675781 152.949219 327.898438 152.625 C 327.121094 152.304688 326.382812 151.910156 325.683594 151.441406 C 324.988281 150.976562 324.339844 150.445312 323.746094 149.851562 C 323.152344 149.257812 322.621094 148.609375 322.152344 147.910156 C 321.6875 147.210938 321.292969 146.476562 320.972656 145.699219 C 320.648438 144.921875 320.40625 144.121094 320.242188 143.296875 C 320.078125 142.472656 319.996094 141.640625 319.996094 140.800781 C 319.996094 139.960938 319.914062 139.128906 319.75 138.304688 C 319.585938 137.480469 319.34375 136.679688 319.023438 135.902344 C 318.699219 135.125 318.304688 134.386719 317.839844 133.6875 C 317.371094 132.988281 316.839844 132.34375 316.246094 131.75 C 315.652344 131.15625 315.007812 130.625 314.308594 130.15625 C 313.609375 129.691406 312.871094 129.296875 312.09375 128.972656 C 311.320312 128.652344 310.519531 128.410156 309.695312 128.246094 C 308.871094 128.082031 308.035156 128 307.195312 128 L 287.996094 128 C 287.367188 128 286.742188 128.03125 286.113281 128.09375 C 285.488281 128.152344 284.867188 128.246094 284.25 128.367188 C 283.632812 128.492188 283.023438 128.644531 282.421875 128.828125 C 281.820312 129.007812 281.230469 129.222656 280.648438 129.460938 C 280.066406 129.703125 279.5 129.96875 278.945312 130.265625 C 278.390625 130.5625 277.851562 130.886719 277.328125 131.234375 C 276.808594 131.585938 276.300781 131.960938 275.816406 132.359375 C 275.332031 132.757812 274.863281 133.179688 274.421875 133.625 C 273.976562 134.066406 273.554688 134.535156 273.15625 135.019531 C 272.753906 135.503906 272.382812 136.011719 272.03125 136.53125 C 271.683594 137.054688 271.359375 137.59375 271.0625 138.148438 C 270.765625 138.703125 270.5 139.273438 270.257812 139.851562 C 270.015625 140.433594 269.804688 141.023438 269.625 141.625 C 269.441406 142.226562 269.289062 142.835938 269.164062 143.453125 C 269.042969 144.070312 268.949219 144.691406 268.890625 145.316406 C 268.828125 145.945312 268.796875 146.570312 268.796875 147.199219 C 268.796875 147.828125 268.828125 148.457031 268.890625 149.082031 C 268.949219 149.707031 269.042969 150.328125 269.164062 150.945312 C 269.289062 151.5625 269.441406 152.171875 269.625 152.773438 C 269.804688 153.375 270.015625 153.964844 270.257812 154.546875 C 270.5 155.128906 270.765625 155.695312 271.0625 156.25 C 271.359375 156.804688 271.683594 157.34375 272.03125 157.867188 C 272.382812 158.390625 272.753906 158.894531 273.15625 159.378906 C 273.554688 159.867188 273.976562 160.332031 274.421875 160.777344 C 274.863281 161.222656 275.332031 161.644531 275.816406 162.042969 C 276.300781 162.441406 276.808594 162.816406 277.328125 163.164062 C 277.851562 163.511719 278.390625 163.835938 278.945312 164.132812 C 279.5 164.429688 280.066406 164.699219 280.648438 164.9375 C 281.230469 165.179688 281.820312 165.390625 282.421875 165.574219 C 283.023438 165.753906 283.632812 165.910156 284.25 166.03125 C 284.867188 166.152344 285.488281 166.246094 286.113281 166.308594 C 286.742188 166.371094 287.367188 166.398438 287.996094 166.398438 L 300.796875 166.398438 C 302.265625 166.398438 303.726562 166.472656 305.1875 166.617188 C 306.648438 166.757812 308.097656 166.972656 309.535156 167.261719 C 310.976562 167.546875 312.398438 167.902344 313.800781 168.328125 C 315.207031 168.753906 316.585938 169.25 317.941406 169.808594 C 319.296875 170.371094 320.621094 171 321.914062 171.691406 C 323.210938 172.382812 324.464844 173.136719 325.6875 173.949219 C 326.90625 174.765625 328.082031 175.636719 329.21875 176.570312 C 330.351562 177.5 331.4375 178.484375 332.476562 179.523438 C 333.511719 180.558594 334.496094 181.644531 335.425781 182.777344 C 336.359375 183.914062 337.230469 185.089844 338.046875 186.308594 C 338.863281 187.53125 339.613281 188.789062 340.304688 190.082031 C 341 191.375 341.625 192.699219 342.1875 194.054688 C 342.746094 195.410156 343.242188 196.792969 343.667969 198.195312 C 344.09375 199.597656 344.449219 201.019531 344.734375 202.460938 C 345.023438 203.898438 345.238281 205.347656 345.378906 206.808594 C 345.523438 208.269531 345.597656 209.734375 345.597656 211.199219 C 345.597656 212.667969 345.523438 214.132812 345.378906 215.589844 C 345.238281 217.050781 345.023438 218.5 344.734375 219.941406 C 344.449219 221.378906 344.09375 222.800781 343.667969 224.203125 C 343.242188 225.609375 342.746094 226.988281 342.1875 228.34375 C 341.625 229.699219 341 231.023438 340.304688 232.320312 C 339.613281 233.613281 338.863281 234.871094 338.046875 236.089844 C 337.230469 237.308594 336.359375 238.488281 335.425781 239.621094 C 334.496094 240.753906 333.511719 241.839844 332.476562 242.878906 C 331.4375 243.914062 330.351562 244.898438 329.21875 245.832031 C 328.082031 246.761719 326.90625 247.632812 325.6875 248.449219 C 324.464844 249.265625 323.210938 250.019531 321.914062 250.710938 C 320.621094 251.402344 319.296875 252.027344 317.941406 252.589844 C 316.585938 253.152344 315.207031 253.644531 313.800781 254.070312 C 312.398438 254.496094 310.976562 254.851562 309.535156 255.140625 C 308.097656 255.425781 306.648438 255.640625 305.1875 255.785156 C 303.726562 255.929688 302.265625 256 300.796875 256 L 281.597656 256 C 280.339844 255.996094 279.085938 255.929688 277.835938 255.804688 C 276.585938 255.679688 275.34375 255.492188 274.113281 255.242188 C 272.878906 254.996094 271.664062 254.6875 270.460938 254.320312 C 269.261719 253.953125 268.078125 253.53125 266.917969 253.046875 C 265.757812 252.566406 264.625 252.027344 263.515625 251.433594 C 262.410156 250.839844 261.332031 250.191406 260.289062 249.496094 C 259.246094 248.796875 258.238281 248.046875 257.265625 247.25 C 256.292969 246.453125 255.363281 245.609375 254.476562 244.71875 C 253.585938 243.832031 252.746094 242.902344 251.945312 241.929688 C 251.148438 240.960938 250.402344 239.953125 249.703125 238.90625 C 249.003906 237.863281 248.355469 236.789062 247.761719 235.679688 C 247.171875 234.570312 246.632812 233.4375 246.148438 232.277344 C 245.667969 231.117188 245.242188 229.9375 244.875 228.734375 C 244.507812 227.53125 244.199219 226.316406 243.953125 225.082031 C 243.703125 223.851562 243.519531 222.609375 243.390625 221.359375 C 243.265625 220.109375 243.199219 218.855469 243.195312 217.601562 C 243.195312 216.757812 243.277344 215.925781 243.441406 215.101562 C 243.605469 214.277344 243.847656 213.476562 244.171875 212.703125 C 244.492188 211.925781 244.886719 211.1875 245.355469 210.488281 C 245.820312 209.789062 246.351562 209.144531 246.945312 208.550781 C 247.539062 207.953125 248.1875 207.425781 248.886719 206.957031 C 249.585938 206.488281 250.320312 206.097656 251.097656 205.773438 C 251.875 205.453125 252.675781 205.210938 253.5 205.046875 C 254.324219 204.882812 255.15625 204.800781 255.996094 204.800781 C 256.835938 204.800781 257.667969 204.882812 258.492188 205.046875 C 259.316406 205.210938 260.117188 205.453125 260.894531 205.773438 C 261.671875 206.097656 262.410156 206.488281 263.109375 206.957031 C 263.808594 207.425781 264.453125 207.953125 265.046875 208.550781 C 265.640625 209.144531 266.171875 209.789062 266.640625 210.488281 C 267.105469 211.1875 267.5 211.925781 267.820312 212.703125 C 268.144531 213.476562 268.386719 214.277344 268.550781 215.101562 C 268.714844 215.925781 268.796875 216.757812 268.796875 217.601562 C 268.796875 218.441406 268.878906 219.273438 269.042969 220.097656 C 269.207031 220.921875 269.449219 221.722656 269.769531 222.5 C 270.09375 223.273438 270.488281 224.011719 270.953125 224.710938 C 271.421875 225.410156 271.953125 226.058594 272.546875 226.652344 C 273.140625 227.246094 273.785156 227.777344 274.484375 228.242188 C 275.183594 228.710938 275.921875 229.105469 276.699219 229.425781 C 277.476562 229.746094 278.273438 229.988281 279.097656 230.152344 C 279.921875 230.316406 280.757812 230.398438 281.597656 230.398438 L 300.796875 230.398438 C 301.425781 230.398438 302.050781 230.371094 302.679688 230.308594 C 303.304688 230.246094 303.925781 230.152344 304.542969 230.03125 C 305.160156 229.910156 305.769531 229.753906 306.371094 229.574219 C 306.972656 229.390625 307.5625 229.179688 308.144531 228.9375 C 308.726562 228.699219 309.292969 228.429688 309.847656 228.132812 C 310.402344 227.835938 310.941406 227.511719 311.464844 227.164062 C 311.984375 226.816406 312.492188 226.441406 312.976562 226.042969 C 313.464844 225.644531 313.929688 225.222656 314.371094 224.777344 C 314.816406 224.332031 315.238281 223.867188 315.636719 223.378906 C 316.039062 222.894531 316.410156 222.390625 316.761719 221.867188 C 317.109375 221.34375 317.433594 220.804688 317.730469 220.25 C 318.027344 219.695312 318.292969 219.128906 318.535156 218.546875 C 318.777344 217.964844 318.988281 217.375 319.167969 216.773438 C 319.351562 216.171875 319.503906 215.5625 319.628906 214.945312 C 319.75 214.328125 319.84375 213.707031 319.902344 213.082031 C 319.964844 212.457031 319.996094 211.828125 319.996094 211.199219 C 319.996094 210.570312 319.964844 209.945312 319.902344 209.316406 C 319.84375 208.691406 319.75 208.070312 319.628906 207.453125 C 319.503906 206.835938 319.351562 206.226562 319.167969 205.625 C 318.988281 205.023438 318.777344 204.433594 318.535156 203.851562 C 318.292969 203.273438 318.027344 202.703125 317.730469 202.148438 C 317.433594 201.59375 317.109375 201.054688 316.761719 200.53125 C 316.410156 200.011719 316.039062 199.503906 315.636719 199.019531 C 315.238281 198.535156 314.816406 198.066406 314.371094 197.625 C 313.929688 197.179688 313.464844 196.757812 312.976562 196.359375 C 312.492188 195.960938 311.988281 195.585938 311.464844 195.234375 C 310.941406 194.886719 310.402344 194.5625 309.847656 194.265625 C 309.292969 193.96875 308.726562 193.703125 308.144531 193.460938 C 307.5625 193.222656 306.972656 193.007812 306.371094 192.828125 C 305.769531 192.644531 305.160156 192.492188 304.542969 192.367188 C 303.925781 192.246094 303.304688 192.152344 302.679688 192.09375 C 302.050781 192.03125 301.425781 192 300.796875 192 Z M 428.796875 192 L 415.996094 192 C 414.53125 192 413.066406 191.929688 411.605469 191.785156 C 410.144531 191.640625 408.695312 191.425781 407.257812 191.140625 C 405.816406 190.851562 404.394531 190.496094 402.992188 190.070312 C 401.585938 189.644531 400.207031 189.152344 398.851562 188.589844 C 397.496094 188.027344 396.171875 187.402344 394.878906 186.710938 C 393.582031 186.019531 392.328125 185.265625 391.105469 184.449219 C 389.886719 183.632812 388.710938 182.761719 387.574219 181.832031 C 386.441406 180.898438 385.355469 179.914062 384.316406 178.878906 C 383.28125 177.839844 382.296875 176.753906 381.367188 175.621094 C 380.433594 174.488281 379.5625 173.308594 378.746094 172.089844 C 377.929688 170.871094 377.179688 169.613281 376.488281 168.320312 C 375.792969 167.023438 375.167969 165.699219 374.605469 164.34375 C 374.046875 162.988281 373.550781 161.609375 373.125 160.203125 C 372.699219 158.800781 372.34375 157.378906 372.058594 155.941406 C 371.769531 154.5 371.554688 153.050781 371.414062 151.589844 C 371.269531 150.132812 371.195312 148.667969 371.195312 147.199219 C 371.195312 145.734375 371.269531 144.269531 371.414062 142.808594 C 371.554688 141.347656 371.769531 139.898438 372.058594 138.460938 C 372.34375 137.019531 372.699219 135.597656 373.125 134.195312 C 373.550781 132.792969 374.046875 131.410156 374.605469 130.054688 C 375.167969 128.699219 375.792969 127.375 376.488281 126.082031 C 377.179688 124.789062 377.929688 123.53125 378.746094 122.308594 C 379.5625 121.089844 380.433594 119.914062 381.367188 118.777344 C 382.296875 117.644531 383.28125 116.558594 384.316406 115.523438 C 385.355469 114.484375 386.441406 113.5 387.574219 112.570312 C 388.710938 111.636719 389.886719 110.765625 391.105469 109.949219 C 392.328125 109.136719 393.582031 108.382812 394.878906 107.691406 C 396.171875 107 397.496094 106.371094 398.851562 105.808594 C 400.207031 105.25 401.585938 104.753906 402.992188 104.328125 C 404.394531 103.902344 405.816406 103.546875 407.257812 103.261719 C 408.695312 102.972656 410.144531 102.757812 411.605469 102.617188 C 413.066406 102.472656 414.53125 102.398438 415.996094 102.398438 L 435.195312 102.398438 C 436.453125 102.402344 437.707031 102.46875 438.957031 102.59375 C 440.207031 102.722656 441.449219 102.910156 442.679688 103.15625 C 443.914062 103.402344 445.128906 103.710938 446.332031 104.078125 C 447.53125 104.445312 448.714844 104.871094 449.875 105.351562 C 451.035156 105.835938 452.167969 106.375 453.277344 106.96875 C 454.382812 107.5625 455.460938 108.207031 456.503906 108.90625 C 457.546875 109.605469 458.554688 110.351562 459.527344 111.152344 C 460.5 111.949219 461.429688 112.792969 462.316406 113.679688 C 463.207031 114.566406 464.046875 115.5 464.847656 116.46875 C 465.644531 117.441406 466.390625 118.449219 467.089844 119.492188 C 467.789062 120.535156 468.4375 121.613281 469.03125 122.71875 C 469.625 123.828125 470.160156 124.960938 470.644531 126.121094 C 471.125 127.28125 471.550781 128.464844 471.917969 129.664062 C 472.285156 130.867188 472.59375 132.085938 472.839844 133.316406 C 473.089844 134.546875 473.273438 135.789062 473.402344 137.039062 C 473.527344 138.289062 473.59375 139.542969 473.597656 140.800781 C 473.597656 141.640625 473.515625 142.472656 473.351562 143.296875 C 473.1875 144.121094 472.945312 144.921875 472.621094 145.699219 C 472.300781 146.476562 471.90625 147.210938 471.4375 147.910156 C 470.972656 148.609375 470.441406 149.257812 469.847656 149.851562 C 469.253906 150.445312 468.605469 150.976562 467.90625 151.441406 C 467.207031 151.910156 466.472656 152.304688 465.695312 152.625 C 464.917969 152.949219 464.117188 153.191406 463.292969 153.355469 C 462.46875 153.519531 461.636719 153.601562 460.796875 153.601562 C 459.957031 153.601562 459.125 153.519531 458.300781 153.355469 C 457.476562 153.191406 456.675781 152.949219 455.898438 152.625 C 455.121094 152.304688 454.382812 151.910156 453.683594 151.441406 C 452.988281 150.976562 452.339844 150.445312 451.746094 149.851562 C 451.152344 149.257812 450.621094 148.609375 450.152344 147.910156 C 449.6875 147.210938 449.292969 146.476562 448.972656 145.699219 C 448.648438 144.921875 448.40625 144.121094 448.242188 143.296875 C 448.078125 142.472656 447.996094 141.640625 447.996094 140.800781 C 447.996094 139.960938 447.914062 139.128906 447.75 138.304688 C 447.585938 137.480469 447.34375 136.679688 447.023438 135.902344 C 446.699219 135.125 446.304688 134.386719 445.839844 133.6875 C 445.371094 132.988281 444.839844 132.34375 444.246094 131.75 C 443.652344 131.15625 443.007812 130.625 442.308594 130.15625 C 441.609375 129.691406 440.871094 129.296875 440.09375 128.972656 C 439.320312 128.652344 438.519531 128.410156 437.695312 128.246094 C 436.871094 128.082031 436.035156 128 435.195312 128 L 415.996094 128 C 415.367188 128 414.742188 128.03125 414.113281 128.09375 C 413.488281 128.152344 412.867188 128.246094 412.25 128.367188 C 411.632812 128.492188 411.023438 128.644531 410.421875 128.828125 C 409.820312 129.007812 409.230469 129.222656 408.648438 129.460938 C 408.066406 129.703125 407.5 129.96875 406.945312 130.265625 C 406.390625 130.5625 405.851562 130.886719 405.328125 131.234375 C 404.808594 131.585938 404.300781 131.960938 403.816406 132.359375 C 403.332031 132.757812 402.863281 133.179688 402.421875 133.625 C 401.976562 134.066406 401.554688 134.535156 401.15625 135.019531 C 400.753906 135.503906 400.382812 136.011719 400.03125 136.53125 C 399.683594 137.054688 399.359375 137.59375 399.0625 138.148438 C 398.765625 138.703125 398.5 139.273438 398.257812 139.851562 C 398.015625 140.433594 397.804688 141.023438 397.625 141.625 C 397.441406 142.226562 397.289062 142.835938 397.164062 143.453125 C 397.042969 144.070312 396.949219 144.691406 396.890625 145.316406 C 396.828125 145.945312 396.796875 146.570312 396.796875 147.199219 C 396.796875 147.828125 396.828125 148.457031 396.890625 149.082031 C 396.949219 149.707031 397.042969 150.328125 397.164062 150.945312 C 397.289062 151.5625 397.441406 152.171875 397.625 152.773438 C 397.804688 153.375 398.015625 153.964844 398.257812 154.546875 C 398.5 155.128906 398.765625 155.695312 399.0625 156.25 C 399.359375 156.804688 399.683594 157.34375 400.03125 157.867188 C 400.382812 158.390625 400.753906 158.894531 401.15625 159.378906 C 401.554688 159.867188 401.976562 160.332031 402.421875 160.777344 C 402.863281 161.222656 403.332031 161.644531 403.816406 162.042969 C 404.300781 162.441406 404.808594 162.816406 405.328125 163.164062 C 405.851562 163.511719 406.390625 163.835938 406.945312 164.132812 C 407.5 164.429688 408.066406 164.699219 408.648438 164.9375 C 409.230469 165.179688 409.820312 165.390625 410.421875 165.574219 C 411.023438 165.753906 411.632812 165.910156 412.25 166.03125 C 412.867188 166.152344 413.488281 166.246094 414.113281 166.308594 C 414.742188 166.371094 415.367188 166.398438 415.996094 166.398438 L 428.796875 166.398438 C 430.265625 166.398438 431.726562 166.472656 433.1875 166.617188 C 434.648438 166.757812 436.097656 166.972656 437.535156 167.261719 C 438.976562 167.546875 440.398438 167.902344 441.800781 168.328125 C 443.207031 168.753906 444.585938 169.25 445.941406 169.808594 C 447.296875 170.371094 448.621094 171 449.914062 171.691406 C 451.210938 172.382812 452.464844 173.136719 453.6875 173.949219 C 454.90625 174.765625 456.082031 175.636719 457.21875 176.570312 C 458.351562 177.5 459.4375 178.484375 460.476562 179.523438 C 461.511719 180.558594 462.496094 181.644531 463.425781 182.777344 C 464.359375 183.914062 465.230469 185.089844 466.046875 186.308594 C 466.863281 187.53125 467.613281 188.789062 468.308594 190.082031 C 469 191.375 469.625 192.699219 470.1875 194.054688 C 470.746094 195.410156 471.242188 196.792969 471.667969 198.195312 C 472.09375 199.597656 472.449219 201.019531 472.734375 202.460938 C 473.023438 203.898438 473.238281 205.347656 473.378906 206.808594 C 473.523438 208.269531 473.597656 209.734375 473.597656 211.199219 C 473.597656 212.667969 473.523438 214.132812 473.378906 215.589844 C 473.238281 217.050781 473.023438 218.5 472.734375 219.941406 C 472.449219 221.378906 472.09375 222.800781 471.667969 224.203125 C 471.242188 225.609375 470.746094 226.988281 470.1875 228.34375 C 469.625 229.699219 469 231.023438 468.304688 232.320312 C 467.613281 233.613281 466.863281 234.871094 466.046875 236.089844 C 465.230469 237.308594 464.359375 238.488281 463.425781 239.621094 C 462.496094 240.753906 461.511719 241.839844 460.476562 242.878906 C 459.4375 243.914062 458.351562 244.898438 457.21875 245.832031 C 456.082031 246.761719 454.90625 247.632812 453.6875 248.449219 C 452.464844 249.265625 451.210938 250.019531 449.914062 250.710938 C 448.621094 251.402344 447.296875 252.027344 445.941406 252.589844 C 444.585938 253.152344 443.207031 253.644531 441.800781 254.070312 C 440.398438 254.496094 438.976562 254.851562 437.535156 255.140625 C 436.097656 255.425781 434.648438 255.640625 433.1875 255.785156 C 431.726562 255.929688 430.265625 256 428.796875 256 L 409.597656 256 C 408.339844 255.996094 407.085938 255.929688 405.835938 255.804688 C 404.585938 255.679688 403.34375 255.492188 402.113281 255.242188 C 400.878906 254.996094 399.664062 254.6875 398.460938 254.320312 C 397.261719 253.953125 396.078125 253.53125 394.917969 253.046875 C 393.757812 252.566406 392.625 252.027344 391.515625 251.433594 C 390.410156 250.839844 389.332031 250.191406 388.289062 249.496094 C 387.246094 248.796875 386.238281 248.046875 385.265625 247.25 C 384.292969 246.453125 383.363281 245.609375 382.476562 244.71875 C 381.585938 243.832031 380.746094 242.902344 379.945312 241.929688 C 379.148438 240.960938 378.402344 239.953125 377.703125 238.90625 C 377.003906 237.863281 376.355469 236.789062 375.761719 235.679688 C 375.171875 234.570312 374.632812 233.4375 374.148438 232.277344 C 373.667969 231.117188 373.242188 229.9375 372.875 228.734375 C 372.507812 227.53125 372.199219 226.316406 371.953125 225.082031 C 371.703125 223.851562 371.519531 222.609375 371.390625 221.359375 C 371.265625 220.109375 371.199219 218.855469 371.195312 217.601562 C 371.195312 216.757812 371.277344 215.925781 371.441406 215.101562 C 371.605469 214.277344 371.847656 213.476562 372.171875 212.703125 C 372.492188 211.925781 372.886719 211.1875 373.355469 210.488281 C 373.820312 209.789062 374.351562 209.144531 374.945312 208.550781 C 375.539062 207.953125 376.1875 207.425781 376.886719 206.957031 C 377.585938 206.488281 378.320312 206.097656 379.097656 205.773438 C 379.875 205.453125 380.675781 205.210938 381.5 205.046875 C 382.324219 204.882812 383.15625 204.800781 383.996094 204.800781 C 384.835938 204.800781 385.667969 204.882812 386.492188 205.046875 C 387.316406 205.210938 388.117188 205.453125 388.894531 205.773438 C 389.671875 206.097656 390.410156 206.488281 391.109375 206.957031 C 391.808594 207.425781 392.453125 207.953125 393.046875 208.550781 C 393.640625 209.144531 394.171875 209.789062 394.640625 210.488281 C 395.105469 211.1875 395.5 211.925781 395.820312 212.703125 C 396.144531 213.476562 396.386719 214.277344 396.550781 215.101562 C 396.714844 215.925781 396.796875 216.757812 396.796875 217.601562 C 396.796875 218.441406 396.878906 219.273438 397.042969 220.097656 C 397.207031 220.921875 397.449219 221.722656 397.769531 222.5 C 398.09375 223.273438 398.488281 224.011719 398.953125 224.710938 C 399.421875 225.410156 399.953125 226.058594 400.546875 226.652344 C 401.140625 227.246094 401.785156 227.777344 402.484375 228.242188 C 403.183594 228.710938 403.921875 229.105469 404.699219 229.425781 C 405.476562 229.746094 406.273438 229.988281 407.097656 230.152344 C 407.921875 230.316406 408.757812 230.398438 409.597656 230.398438 L 428.796875 230.398438 C 429.425781 230.398438 430.050781 230.371094 430.679688 230.308594 C 431.304688 230.246094 431.925781 230.152344 432.542969 230.03125 C 433.160156 229.910156 433.769531 229.753906 434.371094 229.574219 C 434.972656 229.390625 435.5625 229.179688 436.144531 228.9375 C 436.726562 228.699219 437.292969 228.429688 437.847656 228.132812 C 438.402344 227.835938 438.941406 227.511719 439.464844 227.164062 C 439.984375 226.816406 440.492188 226.441406 440.976562 226.042969 C 441.464844 225.644531 441.929688 225.222656 442.371094 224.777344 C 442.816406 224.332031 443.238281 223.867188 443.636719 223.378906 C 444.039062 222.894531 444.410156 222.390625 444.761719 221.867188 C 445.109375 221.34375 445.433594 220.804688 445.730469 220.25 C 446.027344 219.695312 446.292969 219.128906 446.535156 218.546875 C 446.777344 217.964844 446.988281 217.375 447.167969 216.773438 C 447.351562 216.171875 447.503906 215.5625 447.628906 214.945312 C 447.75 214.328125 447.84375 213.707031 447.902344 213.082031 C 447.964844 212.457031 447.996094 211.828125 447.996094 211.199219 C 447.996094 210.570312 447.964844 209.945312 447.902344 209.316406 C 447.84375 208.691406 447.75 208.070312 447.628906 207.453125 C 447.503906 206.835938 447.351562 206.226562 447.167969 205.625 C 446.988281 205.023438 446.777344 204.433594 446.535156 203.851562 C 446.292969 203.273438 446.027344 202.703125 445.730469 202.148438 C 445.433594 201.59375 445.109375 201.054688 444.761719 200.53125 C 444.410156 200.011719 444.039062 199.503906 443.636719 199.019531 C 443.238281 198.535156 442.816406 198.066406 442.371094 197.625 C 441.929688 197.179688 441.464844 196.757812 440.976562 196.359375 C 440.492188 195.960938 439.984375 195.585938 439.464844 195.234375 C 438.941406 194.886719 438.402344 194.5625 437.847656 194.265625 C 437.292969 193.96875 436.726562 193.703125 436.144531 193.460938 C 435.5625 193.222656 434.972656 193.007812 434.371094 192.828125 C 433.769531 192.644531 433.160156 192.492188 432.542969 192.367188 C 431.925781 192.246094 431.304688 192.152344 430.679688 192.09375 C 430.050781 192.03125 429.425781 192 428.796875 192 Z M 537.597656 166.398438 L 537.597656 94.847656 L 621.949219 179.199219 L 550.398438 179.199219 C 549.554688 179.199219 548.722656 179.117188 547.898438 178.953125 C 547.074219 178.789062 546.273438 178.546875 545.5 178.226562 C 544.722656 177.902344 543.984375 177.507812 543.285156 177.042969 C 542.585938 176.574219 541.941406 176.046875 541.34375 175.449219 C 540.75 174.855469 540.21875 174.210938 539.753906 173.511719 C 539.285156 172.8125 538.890625 172.074219 538.570312 171.296875 C 538.25 170.523438 538.007812 169.722656 537.84375 168.898438 C 537.679688 168.074219 537.597656 167.242188 537.597656 166.398438 Z M 691.195312 691.199219 L 665.597656 691.199219 L 665.597656 192 C 665.585938 190.304688 665.257812 188.667969 664.617188 187.097656 C 663.972656 185.527344 663.0625 184.132812 661.882812 182.910156 L 533.882812 54.910156 C 532.664062 53.734375 531.269531 52.824219 529.699219 52.179688 C 528.128906 51.539062 526.492188 51.210938 524.796875 51.199219 L 127.996094 51.199219 L 127.996094 25.601562 L 691.195312 25.601562 Z M 691.195312 691.199219 " fill-opacity="1" fill-rule="nonzero"/></g></svg>