<svg xmlns="http://www.w3.org/2000/svg" xmlns:xlink="http://www.w3.org/1999/xlink" width="1024" zoomAndPan="magnify" viewBox="0 0 768 767.999994" height="1024" preserveAspectRatio="xMidYMid meet" version="1.0"><defs><clipPath id="53fa32305c"><path d="M 51 0 L 716.96875 0 L 716.96875 768 L 51 768 Z M 51 0 " clip-rule="nonzero"/></clipPath></defs><path fill="#ff8bec" d="M 264.925781 412.222656 C 264.257812 411.714844 263.542969 411.273438 262.789062 410.90625 C 262.035156 410.535156 261.25 410.246094 260.441406 410.03125 C 259.628906 409.816406 258.800781 409.679688 257.964844 409.628906 C 257.125 409.578125 256.289062 409.605469 255.457031 409.71875 C 254.625 409.832031 253.808594 410.023438 253.015625 410.296875 C 252.21875 410.566406 251.460938 410.914062 250.734375 411.335938 C 250.007812 411.757812 249.328125 412.25 248.699219 412.804688 C 248.066406 413.359375 247.5 413.972656 246.988281 414.640625 L 169.003906 517.039062 C 168.582031 517.59375 168.207031 518.179688 167.882812 518.792969 C 167.554688 519.40625 167.28125 520.046875 167.058594 520.703125 C 166.835938 521.363281 166.667969 522.039062 166.554688 522.726562 C 166.441406 523.410156 166.382812 524.105469 166.382812 524.800781 C 166.382812 525.496094 166.441406 526.1875 166.554688 526.875 C 166.667969 527.5625 166.835938 528.234375 167.058594 528.894531 C 167.28125 529.554688 167.554688 530.191406 167.882812 530.808594 C 168.207031 531.421875 168.582031 532.007812 169.003906 532.558594 L 246.988281 634.960938 C 247.5 635.628906 248.070312 636.238281 248.699219 636.796875 C 249.328125 637.351562 250.007812 637.839844 250.734375 638.261719 C 251.460938 638.683594 252.222656 639.03125 253.015625 639.304688 C 253.8125 639.574219 254.625 639.769531 255.457031 639.878906 C 256.289062 639.992188 257.125 640.023438 257.964844 639.96875 C 258.804688 639.917969 259.628906 639.785156 260.441406 639.570312 C 261.253906 639.355469 262.035156 639.0625 262.792969 638.691406 C 263.546875 638.324219 264.257812 637.882812 264.925781 637.375 C 265.59375 636.867188 266.207031 636.296875 266.761719 635.667969 C 267.320312 635.035156 267.808594 634.359375 268.230469 633.632812 C 268.652344 632.90625 269 632.144531 269.273438 631.351562 C 269.546875 630.558594 269.742188 629.742188 269.855469 628.910156 C 269.964844 628.078125 269.996094 627.242188 269.945312 626.402344 C 269.894531 625.566406 269.761719 624.738281 269.546875 623.925781 C 269.332031 623.113281 269.039062 622.332031 268.671875 621.574219 C 268.304688 620.820312 267.867188 620.109375 267.355469 619.441406 L 195.355469 524.800781 L 267.355469 430.160156 C 267.867188 429.492188 268.304688 428.78125 268.671875 428.023438 C 269.042969 427.269531 269.332031 426.484375 269.546875 425.671875 C 269.761719 424.859375 269.894531 424.035156 269.945312 423.195312 C 270 422.355469 269.96875 421.519531 269.855469 420.6875 C 269.742188 419.855469 269.546875 419.042969 269.277344 418.246094 C 269.003906 417.453125 268.65625 416.691406 268.230469 415.964844 C 267.808594 415.238281 267.320312 414.5625 266.761719 413.933594 C 266.207031 413.300781 265.59375 412.734375 264.925781 412.222656 Z M 264.925781 412.222656 " fill-opacity="1" fill-rule="nonzero"/><path fill="#ff8bec" d="M 469.566406 414.625 C 469.054688 413.957031 468.484375 413.34375 467.851562 412.789062 C 467.222656 412.234375 466.542969 411.746094 465.816406 411.324219 C 465.085938 410.902344 464.328125 410.558594 463.53125 410.285156 C 462.734375 410.015625 461.921875 409.824219 461.089844 409.710938 C 460.253906 409.601562 459.417969 409.570312 458.578125 409.625 C 457.742188 409.679688 456.914062 409.8125 456.105469 410.03125 C 455.292969 410.246094 454.507812 410.539062 453.753906 410.910156 C 453 411.28125 452.289062 411.722656 451.621094 412.230469 C 450.953125 412.742188 450.339844 413.3125 449.785156 413.945312 C 449.230469 414.574219 448.742188 415.253906 448.320312 415.980469 C 447.898438 416.710938 447.554688 417.46875 447.28125 418.265625 C 447.011719 419.0625 446.820312 419.875 446.707031 420.707031 C 446.597656 421.542969 446.570312 422.378906 446.621094 423.214844 C 446.675781 424.054688 446.808594 424.878906 447.027344 425.691406 C 447.242188 426.503906 447.535156 427.289062 447.90625 428.042969 C 448.277344 428.796875 448.71875 429.507812 449.230469 430.175781 L 521.5 524.800781 L 449.230469 619.425781 C 448.71875 620.089844 448.277344 620.800781 447.90625 621.558594 C 447.535156 622.3125 447.242188 623.09375 447.027344 623.90625 C 446.808594 624.71875 446.675781 625.542969 446.621094 626.382812 C 446.570312 627.222656 446.597656 628.058594 446.707031 628.890625 C 446.820312 629.722656 447.011719 630.539062 447.28125 631.335938 C 447.554688 632.128906 447.898438 632.890625 448.320312 633.617188 C 448.742188 634.34375 449.230469 635.023438 449.785156 635.65625 C 450.339844 636.285156 450.953125 636.855469 451.621094 637.367188 C 452.289062 637.878906 453 638.320312 453.753906 638.691406 C 454.507812 639.058594 455.292969 639.351562 456.105469 639.570312 C 456.914062 639.785156 457.742188 639.921875 458.578125 639.972656 C 459.417969 640.027344 460.253906 640 461.089844 639.886719 C 461.921875 639.777344 462.734375 639.585938 463.53125 639.316406 C 464.328125 639.042969 465.085938 638.695312 465.816406 638.273438 C 466.542969 637.855469 467.222656 637.367188 467.851562 636.808594 C 468.484375 636.253906 469.054688 635.644531 469.566406 634.976562 L 547.773438 532.574219 C 548.195312 532.023438 548.574219 531.4375 548.902344 530.820312 C 549.230469 530.203125 549.503906 529.566406 549.730469 528.90625 C 549.953125 528.242188 550.121094 527.570312 550.234375 526.878906 C 550.347656 526.191406 550.40625 525.5 550.40625 524.800781 C 550.40625 524.101562 550.347656 523.410156 550.234375 522.71875 C 550.121094 522.03125 549.953125 521.355469 549.730469 520.695312 C 549.503906 520.035156 549.230469 519.394531 548.902344 518.78125 C 548.574219 518.164062 548.195312 517.578125 547.773438 517.023438 Z M 469.566406 414.625 " fill-opacity="1" fill-rule="nonzero"/><path fill="#ff8bec" d="M 383.644531 409.886719 C 382.824219 409.710938 381.992188 409.613281 381.152344 409.597656 C 380.3125 409.582031 379.480469 409.648438 378.652344 409.796875 C 377.824219 409.945312 377.019531 410.171875 376.238281 410.480469 C 375.457031 410.789062 374.710938 411.167969 374.003906 411.621094 C 373.296875 412.074219 372.640625 412.59375 372.035156 413.175781 C 371.429688 413.761719 370.886719 414.398438 370.410156 415.085938 C 369.929688 415.777344 369.519531 416.507812 369.183594 417.277344 C 368.847656 418.046875 368.589844 418.84375 368.414062 419.664062 L 323.613281 624.464844 C 323.398438 625.296875 323.269531 626.140625 323.226562 627 C 323.183594 627.859375 323.226562 628.714844 323.355469 629.5625 C 323.484375 630.414062 323.699219 631.242188 323.992188 632.046875 C 324.289062 632.855469 324.664062 633.625 325.113281 634.355469 C 325.566406 635.085938 326.085938 635.765625 326.671875 636.394531 C 327.257812 637.019531 327.902344 637.582031 328.605469 638.082031 C 329.304688 638.578125 330.050781 639 330.835938 639.347656 C 331.621094 639.695312 332.433594 639.960938 333.273438 640.144531 C 334.113281 640.328125 334.964844 640.425781 335.824219 640.441406 C 336.683594 640.453125 337.535156 640.378906 338.378906 640.222656 C 339.222656 640.0625 340.042969 639.820312 340.839844 639.496094 C 341.636719 639.171875 342.390625 638.773438 343.105469 638.296875 C 343.820312 637.820312 344.484375 637.277344 345.089844 636.667969 C 345.695312 636.058594 346.234375 635.394531 346.707031 634.675781 C 347.179688 633.957031 347.574219 633.199219 347.894531 632.402344 C 348.214844 631.601562 348.449219 630.78125 348.605469 629.9375 L 393.40625 425.136719 C 393.585938 424.316406 393.683594 423.484375 393.699219 422.644531 C 393.714844 421.804688 393.652344 420.96875 393.503906 420.140625 C 393.355469 419.3125 393.128906 418.507812 392.820312 417.726562 C 392.515625 416.945312 392.136719 416.199219 391.683594 415.492188 C 391.230469 414.78125 390.710938 414.125 390.128906 413.519531 C 389.546875 412.914062 388.910156 412.371094 388.222656 411.890625 C 387.53125 411.410156 386.800781 411 386.03125 410.664062 C 385.261719 410.328125 384.464844 410.066406 383.644531 409.886719 Z M 383.644531 409.886719 " fill-opacity="1" fill-rule="nonzero"/><g clip-path="url(#53fa32305c)"><path fill="#ff8bec" d="M 703.996094 0 L 115.195312 0 C 114.355469 0 113.523438 0.0820312 112.699219 0.246094 C 111.875 0.410156 111.074219 0.652344 110.296875 0.972656 C 109.523438 1.296875 108.785156 1.691406 108.085938 2.15625 C 107.386719 2.625 106.738281 3.15625 106.144531 3.75 C 105.550781 4.34375 105.019531 4.988281 104.554688 5.6875 C 104.085938 6.386719 103.691406 7.125 103.371094 7.902344 C 103.050781 8.679688 102.804688 9.480469 102.640625 10.304688 C 102.480469 11.128906 102.398438 11.960938 102.398438 12.800781 L 102.398438 51.199219 L 63.996094 51.199219 C 63.15625 51.199219 62.324219 51.28125 61.5 51.445312 C 60.675781 51.609375 59.875 51.851562 59.097656 52.175781 C 58.320312 52.496094 57.585938 52.890625 56.886719 53.355469 C 56.1875 53.824219 55.539062 54.355469 54.945312 54.949219 C 54.351562 55.542969 53.820312 56.191406 53.355469 56.890625 C 52.886719 57.585938 52.492188 58.324219 52.171875 59.101562 C 51.847656 59.878906 51.605469 60.679688 51.441406 61.503906 C 51.277344 62.328125 51.195312 63.160156 51.195312 64 L 51.195312 755.199219 C 51.195312 756.039062 51.277344 756.871094 51.441406 757.695312 C 51.605469 758.519531 51.847656 759.320312 52.171875 760.097656 C 52.492188 760.875 52.886719 761.613281 53.355469 762.3125 C 53.820312 763.011719 54.351562 763.65625 54.945312 764.25 C 55.539062 764.84375 56.1875 765.375 56.886719 765.84375 C 57.585938 766.308594 58.320312 766.703125 59.097656 767.027344 C 59.875 767.347656 60.675781 767.589844 61.5 767.753906 C 62.324219 767.917969 63.15625 768 63.996094 768 L 652.796875 768 C 653.636719 768 654.46875 767.917969 655.292969 767.753906 C 656.117188 767.589844 656.917969 767.347656 657.695312 767.027344 C 658.472656 766.703125 659.207031 766.308594 659.90625 765.84375 C 660.605469 765.375 661.253906 764.84375 661.847656 764.25 C 662.441406 763.65625 662.972656 763.011719 663.4375 762.3125 C 663.90625 761.613281 664.300781 760.875 664.621094 760.097656 C 664.945312 759.320312 665.1875 758.519531 665.351562 757.695312 C 665.515625 756.871094 665.597656 756.039062 665.597656 755.199219 L 665.597656 716.800781 L 703.996094 716.800781 C 704.835938 716.800781 705.667969 716.71875 706.492188 716.554688 C 707.316406 716.390625 708.117188 716.148438 708.894531 715.824219 C 709.671875 715.503906 710.410156 715.109375 711.109375 714.644531 C 711.804688 714.175781 712.453125 713.644531 713.046875 713.050781 C 713.640625 712.457031 714.171875 711.808594 714.640625 711.109375 C 715.105469 710.414062 715.5 709.675781 715.820312 708.898438 C 716.144531 708.121094 716.386719 707.320312 716.550781 706.496094 C 716.714844 705.671875 716.796875 704.839844 716.796875 704 L 716.796875 12.800781 C 716.796875 11.960938 716.714844 11.128906 716.550781 10.304688 C 716.386719 9.480469 716.144531 8.679688 715.820312 7.902344 C 715.5 7.125 715.105469 6.386719 714.640625 5.6875 C 714.171875 4.988281 713.640625 4.34375 713.046875 3.75 C 712.453125 3.15625 711.804688 2.625 711.109375 2.15625 C 710.410156 1.691406 709.671875 1.296875 708.894531 0.972656 C 708.117188 0.652344 707.316406 0.410156 706.492188 0.246094 C 705.667969 0.0820312 704.835938 0 703.996094 0 Z M 115.195312 115.199219 C 115.195312 114.359375 115.277344 113.527344 115.441406 112.703125 C 115.605469 111.878906 115.847656 111.078125 116.171875 110.300781 C 116.492188 109.523438 116.886719 108.789062 117.355469 108.089844 C 117.820312 107.390625 118.351562 106.742188 118.945312 106.148438 C 119.539062 105.554688 120.1875 105.023438 120.886719 104.558594 C 121.585938 104.089844 122.320312 103.695312 123.097656 103.375 C 123.875 103.050781 124.675781 102.808594 125.5 102.644531 C 126.324219 102.480469 127.15625 102.398438 127.996094 102.398438 C 128.835938 102.398438 129.667969 102.480469 130.492188 102.644531 C 131.316406 102.808594 132.117188 103.050781 132.894531 103.375 C 133.671875 103.695312 134.410156 104.089844 135.109375 104.558594 C 135.808594 105.023438 136.453125 105.554688 137.046875 106.148438 C 137.640625 106.742188 138.171875 107.390625 138.640625 108.089844 C 139.105469 108.789062 139.5 109.523438 139.820312 110.300781 C 140.144531 111.078125 140.386719 111.878906 140.550781 112.703125 C 140.714844 113.527344 140.796875 114.359375 140.796875 115.199219 L 140.796875 166.398438 L 191.996094 166.398438 L 191.996094 115.199219 C 191.996094 114.359375 192.078125 113.527344 192.242188 112.703125 C 192.40625 111.878906 192.648438 111.078125 192.972656 110.300781 C 193.292969 109.523438 193.6875 108.789062 194.152344 108.089844 C 194.621094 107.390625 195.152344 106.742188 195.746094 106.148438 C 196.339844 105.554688 196.988281 105.023438 197.683594 104.558594 C 198.382812 104.089844 199.121094 103.695312 199.898438 103.375 C 200.675781 103.050781 201.476562 102.808594 202.300781 102.644531 C 203.125 102.480469 203.957031 102.398438 204.796875 102.398438 C 205.636719 102.398438 206.46875 102.480469 207.292969 102.644531 C 208.117188 102.808594 208.917969 103.050781 209.695312 103.375 C 210.472656 103.695312 211.210938 104.089844 211.90625 104.558594 C 212.605469 105.023438 213.253906 105.554688 213.847656 106.148438 C 214.441406 106.742188 214.972656 107.390625 215.4375 108.089844 C 215.90625 108.789062 216.300781 109.523438 216.621094 110.300781 C 216.945312 111.078125 217.1875 111.878906 217.351562 112.703125 C 217.515625 113.527344 217.597656 114.359375 217.597656 115.199219 L 217.597656 243.199219 C 217.597656 244.039062 217.515625 244.871094 217.351562 245.695312 C 217.1875 246.519531 216.945312 247.320312 216.621094 248.097656 C 216.300781 248.875 215.90625 249.613281 215.4375 250.3125 C 214.972656 251.011719 214.441406 251.65625 213.847656 252.25 C 213.253906 252.84375 212.605469 253.375 211.90625 253.84375 C 211.210938 254.308594 210.472656 254.703125 209.695312 255.027344 C 208.917969 255.347656 208.117188 255.589844 207.292969 255.753906 C 206.46875 255.917969 205.636719 256 204.796875 256 C 203.957031 256 203.125 255.917969 202.300781 255.753906 C 201.476562 255.589844 200.675781 255.347656 199.898438 255.027344 C 199.121094 254.703125 198.382812 254.308594 197.683594 253.84375 C 196.988281 253.375 196.339844 252.84375 195.746094 252.25 C 195.152344 251.65625 194.621094 251.011719 194.152344 250.3125 C 193.6875 249.613281 193.292969 248.875 192.972656 248.097656 C 192.648438 247.320312 192.40625 246.519531 192.242188 245.695312 C 192.078125 244.871094 191.996094 244.039062 191.996094 243.199219 L 191.996094 192 L 140.796875 192 L 140.796875 243.199219 C 140.796875 244.039062 140.714844 244.871094 140.550781 245.695312 C 140.386719 246.519531 140.144531 247.320312 139.820312 248.097656 C 139.5 248.875 139.105469 249.613281 138.640625 250.3125 C 138.171875 251.011719 137.640625 251.65625 137.046875 252.25 C 136.453125 252.84375 135.808594 253.375 135.109375 253.84375 C 134.410156 254.308594 133.671875 254.703125 132.894531 255.027344 C 132.117188 255.347656 131.316406 255.589844 130.492188 255.753906 C 129.667969 255.917969 128.835938 256 127.996094 256 C 127.15625 256 126.324219 255.917969 125.5 255.753906 C 124.675781 255.589844 123.875 255.347656 123.097656 255.027344 C 122.320312 254.703125 121.585938 254.308594 120.886719 253.84375 C 120.1875 253.375 119.539062 252.84375 118.945312 252.25 C 118.351562 251.65625 117.820312 251.011719 117.355469 250.3125 C 116.886719 249.613281 116.492188 248.875 116.171875 248.097656 C 115.847656 247.320312 115.605469 246.519531 115.441406 245.695312 C 115.277344 244.871094 115.195312 244.039062 115.195312 243.199219 Z M 639.996094 742.398438 L 76.796875 742.398438 L 76.796875 307.199219 L 639.996094 307.199219 Z M 255.996094 128 C 255.15625 128 254.324219 127.917969 253.5 127.753906 C 252.675781 127.589844 251.875 127.347656 251.097656 127.027344 C 250.320312 126.703125 249.585938 126.308594 248.886719 125.84375 C 248.1875 125.375 247.539062 124.84375 246.945312 124.25 C 246.351562 123.65625 245.820312 123.011719 245.355469 122.3125 C 244.886719 121.613281 244.492188 120.875 244.171875 120.097656 C 243.847656 119.320312 243.605469 118.519531 243.441406 117.695312 C 243.277344 116.871094 243.195312 116.039062 243.195312 115.199219 C 243.195312 114.359375 243.277344 113.527344 243.441406 112.703125 C 243.605469 111.878906 243.847656 111.078125 244.171875 110.300781 C 244.492188 109.523438 244.886719 108.789062 245.355469 108.089844 C 245.820312 107.390625 246.351562 106.742188 246.945312 106.148438 C 247.539062 105.554688 248.1875 105.023438 248.886719 104.558594 C 249.585938 104.089844 250.320312 103.695312 251.097656 103.375 C 251.875 103.050781 252.675781 102.808594 253.5 102.644531 C 254.324219 102.480469 255.15625 102.398438 255.996094 102.398438 L 332.796875 102.398438 C 333.636719 102.398438 334.46875 102.480469 335.292969 102.644531 C 336.117188 102.808594 336.917969 103.050781 337.695312 103.375 C 338.472656 103.695312 339.210938 104.089844 339.90625 104.558594 C 340.605469 105.023438 341.253906 105.554688 341.847656 106.148438 C 342.441406 106.742188 342.972656 107.390625 343.4375 108.089844 C 343.90625 108.789062 344.300781 109.523438 344.621094 110.300781 C 344.945312 111.078125 345.1875 111.878906 345.351562 112.703125 C 345.515625 113.527344 345.597656 114.359375 345.597656 115.199219 C 345.597656 116.039062 345.515625 116.871094 345.351562 117.695312 C 345.1875 118.519531 344.945312 119.320312 344.621094 120.097656 C 344.300781 120.875 343.90625 121.613281 343.4375 122.3125 C 342.972656 123.011719 342.441406 123.65625 341.847656 124.25 C 341.253906 124.84375 340.605469 125.375 339.90625 125.84375 C 339.210938 126.308594 338.472656 126.703125 337.695312 127.027344 C 336.917969 127.347656 336.117188 127.589844 335.292969 127.753906 C 334.46875 127.917969 333.636719 128 332.796875 128 L 307.195312 128 L 307.195312 243.199219 C 307.195312 244.039062 307.113281 244.871094 306.949219 245.695312 C 306.785156 246.519531 306.542969 247.320312 306.222656 248.097656 C 305.902344 248.875 305.507812 249.613281 305.039062 250.3125 C 304.574219 251.011719 304.042969 251.65625 303.449219 252.25 C 302.851562 252.84375 302.207031 253.375 301.507812 253.84375 C 300.808594 254.308594 300.070312 254.703125 299.292969 255.027344 C 298.519531 255.347656 297.71875 255.589844 296.894531 255.753906 C 296.070312 255.917969 295.238281 256 294.398438 256 C 293.554688 256 292.722656 255.917969 291.898438 255.753906 C 291.074219 255.589844 290.273438 255.347656 289.5 255.027344 C 288.722656 254.703125 287.984375 254.308594 287.285156 253.84375 C 286.585938 253.375 285.941406 252.84375 285.34375 252.25 C 284.75 251.65625 284.21875 251.011719 283.753906 250.3125 C 283.285156 249.613281 282.890625 248.875 282.570312 248.097656 C 282.25 247.320312 282.007812 246.519531 281.84375 245.695312 C 281.679688 244.871094 281.597656 244.039062 281.597656 243.199219 L 281.597656 128 Z M 433.40625 185.726562 C 428.796875 193.601562 415.996094 193.601562 411.386719 185.726562 L 396.796875 161.40625 L 396.796875 243.199219 C 396.796875 244.039062 396.714844 244.871094 396.550781 245.695312 C 396.386719 246.519531 396.144531 247.320312 395.820312 248.097656 C 395.5 248.875 395.105469 249.613281 394.640625 250.3125 C 394.171875 251.011719 393.640625 251.65625 393.046875 252.25 C 392.453125 252.84375 391.808594 253.375 391.109375 253.84375 C 390.410156 254.308594 389.671875 254.703125 388.894531 255.027344 C 388.117188 255.347656 387.316406 255.589844 386.492188 255.753906 C 385.667969 255.917969 384.835938 256 383.996094 256 C 383.15625 256 382.324219 255.917969 381.5 255.753906 C 380.675781 255.589844 379.875 255.347656 379.097656 255.027344 C 378.320312 254.703125 377.585938 254.308594 376.886719 253.84375 C 376.1875 253.375 375.539062 252.84375 374.945312 252.25 C 374.351562 251.65625 373.820312 251.011719 373.355469 250.3125 C 372.886719 249.613281 372.492188 248.875 372.171875 248.097656 C 371.847656 247.320312 371.605469 246.519531 371.441406 245.695312 C 371.277344 244.871094 371.195312 244.039062 371.195312 243.199219 L 371.195312 115.199219 C 371.195312 114.503906 371.253906 113.8125 371.367188 113.125 C 371.480469 112.4375 371.648438 111.765625 371.871094 111.105469 C 372.09375 110.445312 372.367188 109.808594 372.695312 109.191406 C 373.023438 108.578125 373.398438 107.992188 373.820312 107.441406 C 374.242188 106.886719 374.707031 106.371094 375.214844 105.890625 C 375.71875 105.414062 376.261719 104.980469 376.839844 104.589844 C 377.417969 104.203125 378.023438 103.863281 378.65625 103.570312 C 379.289062 103.28125 379.941406 103.042969 380.613281 102.859375 C 381.285156 102.675781 381.964844 102.546875 382.65625 102.472656 C 383.351562 102.402344 384.042969 102.386719 384.738281 102.425781 C 385.433594 102.464844 386.121094 102.5625 386.800781 102.714844 C 387.480469 102.867188 388.144531 103.074219 388.789062 103.335938 C 389.4375 103.597656 390.054688 103.90625 390.652344 104.269531 C 391.246094 104.632812 391.808594 105.039062 392.335938 105.492188 C 392.863281 105.945312 393.351562 106.441406 393.800781 106.972656 C 394.246094 107.507812 394.648438 108.074219 395.003906 108.671875 L 422.398438 154.367188 L 449.789062 108.671875 C 450.144531 108.074219 450.546875 107.507812 450.992188 106.972656 C 451.441406 106.441406 451.929688 105.945312 452.457031 105.492188 C 452.984375 105.039062 453.546875 104.632812 454.140625 104.269531 C 454.738281 103.90625 455.359375 103.597656 456.003906 103.335938 C 456.648438 103.074219 457.3125 102.867188 457.992188 102.714844 C 458.671875 102.5625 459.359375 102.464844 460.054688 102.425781 C 460.75 102.386719 461.441406 102.402344 462.136719 102.472656 C 462.828125 102.546875 463.507812 102.675781 464.179688 102.859375 C 464.851562 103.042969 465.503906 103.28125 466.136719 103.570312 C 466.769531 103.863281 467.375 104.203125 467.953125 104.589844 C 468.53125 104.980469 469.074219 105.414062 469.578125 105.890625 C 470.085938 106.371094 470.550781 106.886719 470.972656 107.441406 C 471.394531 107.992188 471.769531 108.578125 472.097656 109.191406 C 472.425781 109.808594 472.699219 110.445312 472.921875 111.105469 C 473.144531 111.765625 473.3125 112.4375 473.425781 113.125 C 473.539062 113.8125 473.597656 114.503906 473.597656 115.199219 L 473.597656 243.199219 C 473.597656 244.039062 473.515625 244.871094 473.351562 245.695312 C 473.1875 246.519531 472.945312 247.320312 472.621094 248.097656 C 472.300781 248.875 471.90625 249.613281 471.4375 250.3125 C 470.972656 251.011719 470.441406 251.65625 469.847656 252.25 C 469.253906 252.84375 468.605469 253.375 467.90625 253.84375 C 467.207031 254.308594 466.472656 254.703125 465.695312 255.027344 C 464.917969 255.347656 464.117188 255.589844 463.292969 255.753906 C 462.46875 255.917969 461.636719 256 460.796875 256 C 459.957031 256 459.125 255.917969 458.300781 255.753906 C 457.476562 255.589844 456.675781 255.347656 455.898438 255.027344 C 455.121094 254.703125 454.382812 254.308594 453.683594 253.84375 C 452.988281 253.375 452.339844 252.84375 451.746094 252.25 C 451.152344 251.65625 450.621094 251.011719 450.152344 250.3125 C 449.6875 249.613281 449.292969 248.875 448.972656 248.097656 C 448.648438 247.320312 448.40625 246.519531 448.242188 245.695312 C 448.078125 244.871094 447.996094 244.039062 447.996094 243.199219 L 447.996094 161.40625 Z M 537.597656 166.398438 L 537.597656 94.847656 L 621.949219 179.199219 L 550.398438 179.199219 C 549.554688 179.199219 548.722656 179.117188 547.898438 178.953125 C 547.074219 178.789062 546.273438 178.546875 545.5 178.226562 C 544.722656 177.902344 543.984375 177.507812 543.285156 177.042969 C 542.585938 176.574219 541.941406 176.046875 541.34375 175.449219 C 540.75 174.855469 540.21875 174.210938 539.753906 173.511719 C 539.285156 172.8125 538.890625 172.074219 538.570312 171.296875 C 538.25 170.523438 538.007812 169.722656 537.84375 168.898438 C 537.679688 168.074219 537.597656 167.242188 537.597656 166.398438 Z M 691.195312 691.199219 L 665.597656 691.199219 L 665.597656 192 C 665.585938 190.304688 665.257812 188.667969 664.617188 187.097656 C 663.972656 185.527344 663.0625 184.132812 661.882812 182.910156 L 533.882812 54.910156 C 532.664062 53.734375 531.269531 52.824219 529.699219 52.179688 C 528.128906 51.539062 526.492188 51.210938 524.796875 51.199219 L 127.996094 51.199219 L 127.996094 25.601562 L 691.195312 25.601562 Z M 691.195312 691.199219 " fill-opacity="1" fill-rule="nonzero"/></g></svg>