<svg xmlns="http://www.w3.org/2000/svg" xmlns:xlink="http://www.w3.org/1999/xlink" width="1024" zoomAndPan="magnify" viewBox="0 0 768 767.999994" height="1024" preserveAspectRatio="xMidYMid meet" version="1.0"><defs><clipPath id="8387146904"><path d="M 57 47 L 712.175781 47 L 712.175781 720.976562 L 57 720.976562 Z M 57 47 " clip-rule="nonzero"/></clipPath></defs><g clip-path="url(#8387146904)"><path fill="#ff91fd" d="M 384.90625 720.25 C 380.980469 720.269531 377.148438 719.664062 373.417969 718.433594 L 155.3125 645.730469 C 153.710938 645.195312 152.15625 644.554688 150.644531 643.804688 C 149.132812 643.054688 147.679688 642.203125 146.289062 641.253906 C 144.894531 640.300781 143.574219 639.257812 142.328125 638.121094 C 141.078125 636.984375 139.917969 635.769531 138.839844 634.46875 C 137.761719 633.171875 136.777344 631.804688 135.890625 630.371094 C 135.003906 628.9375 134.21875 627.449219 133.539062 625.902344 C 132.859375 624.359375 132.289062 622.777344 131.828125 621.152344 C 131.367188 619.53125 131.023438 617.882812 130.792969 616.210938 L 58.089844 89.117188 C 57.910156 87.832031 57.800781 86.542969 57.757812 85.246094 C 57.71875 83.953125 57.746094 82.660156 57.84375 81.367188 C 57.941406 80.074219 58.105469 78.792969 58.339844 77.519531 C 58.574219 76.242188 58.878906 74.984375 59.246094 73.742188 C 59.617188 72.5 60.050781 71.28125 60.550781 70.085938 C 61.050781 68.890625 61.609375 67.726562 62.234375 66.589844 C 62.859375 65.453125 63.542969 64.355469 64.285156 63.292969 C 65.027344 62.230469 65.820312 61.210938 66.671875 60.234375 C 67.523438 59.253906 68.421875 58.328125 69.375 57.445312 C 70.324219 56.5625 71.316406 55.738281 72.355469 54.960938 C 73.394531 54.1875 74.472656 53.46875 75.585938 52.808594 C 76.703125 52.152344 77.851562 51.550781 79.027344 51.015625 C 80.207031 50.476562 81.414062 50.007812 82.644531 49.597656 C 83.871094 49.191406 85.121094 48.847656 86.386719 48.574219 C 87.652344 48.300781 88.929688 48.09375 90.21875 47.953125 C 91.507812 47.816406 92.800781 47.746094 94.09375 47.746094 L 675.71875 47.746094 C 677.011719 47.746094 678.304688 47.816406 679.589844 47.953125 C 680.878906 48.09375 682.152344 48.300781 683.417969 48.574219 C 684.683594 48.847656 685.929688 49.1875 687.160156 49.597656 C 688.386719 50.003906 689.589844 50.476562 690.769531 51.011719 C 691.949219 51.546875 693.09375 52.144531 694.207031 52.804688 C 695.324219 53.460938 696.398438 54.179688 697.4375 54.953125 C 698.472656 55.726562 699.46875 56.550781 700.417969 57.433594 C 701.367188 58.3125 702.265625 59.238281 703.117188 60.214844 C 703.96875 61.191406 704.765625 62.210938 705.507812 63.269531 C 706.246094 64.332031 706.929688 65.429688 707.554688 66.5625 C 708.179688 67.695312 708.742188 68.859375 709.242188 70.054688 C 709.742188 71.246094 710.175781 72.464844 710.546875 73.707031 C 710.917969 74.945312 711.222656 76.203125 711.457031 77.476562 C 711.691406 78.746094 711.859375 80.03125 711.957031 81.320312 C 712.058594 82.609375 712.085938 83.902344 712.046875 85.195312 C 712.007812 86.492188 711.902344 87.777344 711.726562 89.0625 L 639.023438 616.15625 C 638.792969 617.832031 638.449219 619.480469 637.992188 621.105469 C 637.535156 622.734375 636.964844 624.320312 636.285156 625.863281 C 635.605469 627.410156 634.824219 628.902344 633.9375 630.339844 C 633.046875 631.777344 632.066406 633.148438 630.988281 634.445312 C 629.910156 635.746094 628.746094 636.964844 627.5 638.105469 C 626.25 639.242188 624.929688 640.289062 623.535156 641.242188 C 622.140625 642.195312 620.6875 643.050781 619.175781 643.800781 C 617.664062 644.550781 616.105469 645.195312 614.503906 645.730469 L 396.394531 718.433594 C 392.664062 719.664062 388.835938 720.269531 384.90625 720.25 Z M 199.730469 583.933594 L 384.90625 645.585938 L 570.082031 583.785156 L 634.003906 120.449219 L 135.898438 120.449219 Z M 199.730469 583.933594 " fill-opacity="1" fill-rule="nonzero"/></g><path fill="#ff91fd" d="M 330.378906 556.667969 C 324.65625 556.671875 319.234375 555.394531 314.113281 552.832031 L 241.410156 516.480469 C 240.34375 515.949219 239.304688 515.367188 238.296875 514.730469 C 237.289062 514.097656 236.3125 513.417969 235.371094 512.6875 C 234.429688 511.957031 233.527344 511.179688 232.664062 510.363281 C 231.796875 509.542969 230.972656 508.683594 230.191406 507.785156 C 229.410156 506.886719 228.675781 505.949219 227.988281 504.976562 C 227.300781 504.003906 226.660156 503 226.070312 501.96875 C 225.480469 500.933594 224.941406 499.871094 224.453125 498.78125 C 223.96875 497.695312 223.539062 496.585938 223.160156 495.457031 C 222.785156 494.324219 222.464844 493.179688 222.199219 492.019531 C 221.933594 490.855469 221.726562 489.683594 221.578125 488.503906 C 221.429688 487.320312 221.339844 486.132812 221.304688 484.945312 C 221.273438 483.753906 221.300781 482.5625 221.382812 481.375 C 221.46875 480.1875 221.613281 479.003906 221.8125 477.832031 C 222.011719 476.65625 222.269531 475.496094 222.585938 474.34375 C 222.898438 473.195312 223.269531 472.066406 223.695312 470.953125 C 224.121094 469.839844 224.601562 468.75 225.136719 467.6875 C 225.667969 466.621094 226.253906 465.582031 226.886719 464.574219 C 227.523438 463.566406 228.203125 462.59375 228.9375 461.652344 C 229.667969 460.710938 230.441406 459.808594 231.261719 458.941406 C 232.082031 458.078125 232.941406 457.257812 233.839844 456.476562 C 234.742188 455.695312 235.675781 454.960938 236.648438 454.273438 C 237.621094 453.585938 238.625 452.945312 239.660156 452.355469 C 240.695312 451.765625 241.757812 451.230469 242.847656 450.746094 C 243.933594 450.261719 245.042969 449.828125 246.175781 449.453125 C 247.304688 449.078125 248.453125 448.757812 249.613281 448.492188 C 250.773438 448.230469 251.949219 448.023438 253.128906 447.875 C 254.3125 447.730469 255.5 447.640625 256.6875 447.605469 C 257.878906 447.574219 259.070312 447.601562 260.257812 447.6875 C 261.445312 447.773438 262.628906 447.917969 263.800781 448.117188 C 264.976562 448.320312 266.136719 448.578125 267.285156 448.894531 C 268.433594 449.210938 269.566406 449.582031 270.679688 450.007812 C 271.789062 450.433594 272.878906 450.914062 273.945312 451.449219 L 294.027344 461.5 L 294.027344 265.855469 L 221.324219 265.855469 C 220.132812 265.855469 218.945312 265.796875 217.761719 265.679688 C 216.578125 265.566406 215.402344 265.390625 214.234375 265.15625 C 213.066406 264.925781 211.910156 264.636719 210.773438 264.292969 C 209.632812 263.945312 208.515625 263.546875 207.414062 263.089844 C 206.3125 262.632812 205.238281 262.125 204.1875 261.5625 C 203.140625 261.003906 202.117188 260.390625 201.128906 259.730469 C 200.140625 259.070312 199.183594 258.359375 198.265625 257.605469 C 197.34375 256.851562 196.460938 256.050781 195.621094 255.210938 C 194.777344 254.367188 193.980469 253.488281 193.226562 252.566406 C 192.46875 251.644531 191.761719 250.691406 191.101562 249.699219 C 190.4375 248.710938 189.828125 247.691406 189.265625 246.640625 C 188.703125 245.589844 188.195312 244.515625 187.742188 243.417969 C 187.285156 242.316406 186.882812 241.195312 186.539062 240.058594 C 186.191406 238.917969 185.902344 237.765625 185.671875 236.597656 C 185.441406 235.429688 185.265625 234.253906 185.148438 233.066406 C 185.03125 231.882812 184.972656 230.695312 184.972656 229.503906 C 184.972656 228.316406 185.03125 227.125 185.148438 225.941406 C 185.265625 224.757812 185.441406 223.582031 185.671875 222.414062 C 185.902344 221.246094 186.191406 220.09375 186.539062 218.953125 C 186.882812 217.8125 187.285156 216.695312 187.742188 215.59375 C 188.195312 214.492188 188.703125 213.417969 189.265625 212.367188 C 189.828125 211.320312 190.4375 210.300781 191.101562 209.308594 C 191.761719 208.320312 192.46875 207.363281 193.226562 206.445312 C 193.980469 205.523438 194.777344 204.640625 195.621094 203.800781 C 196.460938 202.957031 197.34375 202.160156 198.265625 201.40625 C 199.183594 200.648438 200.140625 199.941406 201.128906 199.28125 C 202.117188 198.617188 203.140625 198.007812 204.1875 197.445312 C 205.238281 196.882812 206.3125 196.375 207.414062 195.921875 C 208.515625 195.464844 209.632812 195.066406 210.773438 194.71875 C 211.910156 194.375 213.066406 194.085938 214.234375 193.851562 C 215.402344 193.621094 216.578125 193.445312 217.761719 193.328125 C 218.945312 193.210938 220.132812 193.152344 221.324219 193.152344 L 330.378906 193.152344 C 331.570312 193.152344 332.757812 193.210938 333.941406 193.328125 C 335.128906 193.445312 336.304688 193.621094 337.472656 193.851562 C 338.640625 194.085938 339.792969 194.375 340.933594 194.71875 C 342.070312 195.066406 343.191406 195.464844 344.289062 195.921875 C 345.390625 196.375 346.464844 196.882812 347.515625 197.445312 C 348.566406 198.007812 349.585938 198.617188 350.574219 199.28125 C 351.566406 199.941406 352.519531 200.648438 353.441406 201.40625 C 354.359375 202.160156 355.242188 202.957031 356.082031 203.800781 C 356.925781 204.640625 357.722656 205.523438 358.480469 206.445312 C 359.234375 207.363281 359.941406 208.320312 360.605469 209.308594 C 361.265625 210.300781 361.878906 211.320312 362.4375 212.367188 C 363 213.417969 363.507812 214.492188 363.964844 215.59375 C 364.417969 216.695312 364.820312 217.8125 365.164062 218.953125 C 365.511719 220.09375 365.800781 221.246094 366.03125 222.414062 C 366.265625 223.582031 366.4375 224.757812 366.554688 225.941406 C 366.671875 227.125 366.730469 228.316406 366.730469 229.503906 L 366.730469 520.316406 C 366.730469 521.507812 366.671875 522.695312 366.554688 523.878906 C 366.4375 525.066406 366.265625 526.242188 366.03125 527.410156 C 365.800781 528.578125 365.511719 529.730469 365.164062 530.871094 C 364.820312 532.007812 364.417969 533.128906 363.964844 534.226562 C 363.507812 535.328125 363 536.402344 362.4375 537.453125 C 361.878906 538.503906 361.265625 539.523438 360.605469 540.511719 C 359.941406 541.503906 359.234375 542.457031 358.480469 543.378906 C 357.722656 544.296875 356.925781 545.179688 356.082031 546.019531 C 355.242188 546.863281 354.359375 547.660156 353.441406 548.417969 C 352.519531 549.171875 351.566406 549.878906 350.574219 550.542969 C 349.585938 551.203125 348.566406 551.816406 347.515625 552.375 C 346.464844 552.9375 345.390625 553.445312 344.289062 553.902344 C 343.191406 554.355469 342.070312 554.757812 340.933594 555.101562 C 339.792969 555.449219 338.640625 555.738281 337.472656 555.96875 C 336.304688 556.203125 335.128906 556.375 333.941406 556.492188 C 332.757812 556.609375 331.570312 556.667969 330.378906 556.667969 Z M 330.378906 556.667969 " fill-opacity="1" fill-rule="nonzero"/><path fill="#ff91fd" d="M 439.433594 556.667969 C 438.335938 556.667969 437.242188 556.617188 436.148438 556.515625 C 435.058594 556.414062 433.972656 556.265625 432.894531 556.066406 C 431.816406 555.871094 430.746094 555.621094 429.691406 555.328125 C 428.632812 555.03125 427.59375 554.691406 426.566406 554.300781 C 425.542969 553.910156 424.535156 553.476562 423.550781 552.996094 C 422.5625 552.515625 421.601562 551.992188 420.664062 551.421875 C 419.722656 550.855469 418.8125 550.246094 417.929688 549.597656 C 417.046875 548.945312 416.195312 548.257812 415.371094 547.53125 C 414.550781 546.804688 413.765625 546.039062 413.011719 545.242188 C 412.261719 544.441406 411.546875 543.613281 410.867188 542.75 C 410.191406 541.886719 409.554688 540.992188 408.960938 540.074219 C 408.363281 539.152344 407.808594 538.207031 407.300781 537.234375 C 406.789062 536.265625 406.324219 535.273438 405.902344 534.257812 C 405.480469 533.246094 405.109375 532.214844 404.78125 531.167969 C 404.453125 530.121094 404.171875 529.0625 403.941406 527.992188 C 403.710938 526.917969 403.527344 525.839844 403.394531 524.75 C 403.261719 523.660156 403.175781 522.566406 403.140625 521.472656 C 403.105469 520.375 403.121094 519.28125 403.183594 518.183594 C 403.25 517.089844 403.363281 516 403.527344 514.914062 C 403.6875 513.828125 403.902344 512.753906 404.160156 511.6875 C 404.421875 510.625 404.730469 509.570312 405.085938 508.535156 C 405.441406 507.496094 405.84375 506.476562 406.289062 505.476562 C 406.738281 504.472656 407.230469 503.496094 407.765625 502.539062 C 408.304688 501.582031 408.882812 500.652344 409.503906 499.746094 C 410.125 498.84375 410.785156 497.96875 411.484375 497.121094 C 412.183594 496.277344 412.921875 495.46875 413.695312 494.6875 C 414.46875 493.910156 415.273438 493.167969 416.113281 492.464844 C 416.953125 491.761719 417.824219 491.09375 418.726562 490.46875 C 419.625 489.84375 420.554688 489.257812 421.507812 488.714844 C 422.460938 488.171875 423.4375 487.675781 424.4375 487.222656 C 425.433594 486.769531 426.453125 486.359375 427.488281 486 C 428.523438 485.636719 429.574219 485.324219 430.636719 485.054688 L 479.710938 472.804688 L 488.382812 411.261719 L 457.609375 411.261719 C 455.824219 411.261719 454.042969 411.175781 452.265625 411 C 450.488281 410.824219 448.722656 410.5625 446.972656 410.214844 C 445.21875 409.867188 443.492188 409.433594 441.78125 408.914062 C 440.074219 408.394531 438.394531 407.796875 436.742188 407.113281 C 435.09375 406.429688 433.480469 405.664062 431.90625 404.824219 C 430.332031 403.980469 428.800781 403.066406 427.316406 402.074219 C 425.832031 401.082031 424.398438 400.019531 423.019531 398.886719 C 421.636719 397.753906 420.316406 396.554688 419.054688 395.292969 C 417.789062 394.027344 416.59375 392.707031 415.460938 391.328125 C 414.328125 389.945312 413.265625 388.515625 412.273438 387.027344 C 411.28125 385.542969 410.363281 384.015625 409.519531 382.4375 C 408.679688 380.863281 407.917969 379.25 407.234375 377.601562 C 406.550781 375.953125 405.949219 374.273438 405.429688 372.5625 C 404.910156 370.855469 404.480469 369.125 404.128906 367.371094 C 403.78125 365.621094 403.519531 363.855469 403.34375 362.078125 C 403.171875 360.300781 403.082031 358.519531 403.082031 356.734375 L 403.082031 247.679688 C 403.082031 245.894531 403.171875 244.113281 403.34375 242.335938 C 403.519531 240.558594 403.78125 238.792969 404.128906 237.042969 C 404.480469 235.292969 404.910156 233.5625 405.429688 231.851562 C 405.949219 230.144531 406.550781 228.464844 407.234375 226.8125 C 407.917969 225.164062 408.679688 223.550781 409.519531 221.976562 C 410.363281 220.402344 411.28125 218.871094 412.273438 217.386719 C 413.265625 215.902344 414.328125 214.46875 415.460938 213.089844 C 416.59375 211.707031 417.789062 210.386719 419.054688 209.125 C 420.316406 207.863281 421.636719 206.664062 423.019531 205.53125 C 424.398438 204.398438 425.832031 203.335938 427.316406 202.34375 C 428.800781 201.351562 430.332031 200.433594 431.90625 199.59375 C 433.480469 198.75 435.09375 197.988281 436.742188 197.304688 C 438.394531 196.621094 440.074219 196.019531 441.78125 195.5 C 443.492188 194.984375 445.21875 194.550781 446.972656 194.203125 C 448.722656 193.851562 450.488281 193.589844 452.265625 193.417969 C 454.042969 193.242188 455.824219 193.152344 457.609375 193.152344 L 548.488281 193.152344 C 549.679688 193.152344 550.867188 193.210938 552.050781 193.328125 C 553.238281 193.445312 554.414062 193.621094 555.582031 193.851562 C 556.746094 194.085938 557.902344 194.375 559.039062 194.71875 C 560.179688 195.066406 561.300781 195.464844 562.398438 195.921875 C 563.5 196.375 564.574219 196.882812 565.625 197.445312 C 566.675781 198.007812 567.695312 198.617188 568.683594 199.28125 C 569.675781 199.941406 570.628906 200.648438 571.550781 201.40625 C 572.46875 202.160156 573.351562 202.957031 574.191406 203.800781 C 575.035156 204.640625 575.832031 205.523438 576.589844 206.445312 C 577.34375 207.363281 578.050781 208.320312 578.714844 209.308594 C 579.375 210.300781 579.988281 211.320312 580.546875 212.367188 C 581.109375 213.417969 581.617188 214.492188 582.074219 215.59375 C 582.527344 216.695312 582.929688 217.8125 583.273438 218.953125 C 583.621094 220.09375 583.910156 221.246094 584.140625 222.414062 C 584.375 223.582031 584.546875 224.757812 584.664062 225.941406 C 584.78125 227.125 584.839844 228.316406 584.839844 229.503906 C 584.839844 230.695312 584.78125 231.882812 584.664062 233.066406 C 584.546875 234.253906 584.375 235.429688 584.140625 236.597656 C 583.910156 237.765625 583.621094 238.917969 583.273438 240.058594 C 582.929688 241.195312 582.527344 242.316406 582.074219 243.417969 C 581.617188 244.515625 581.109375 245.589844 580.546875 246.640625 C 579.988281 247.691406 579.375 248.710938 578.714844 249.699219 C 578.050781 250.691406 577.34375 251.644531 576.589844 252.566406 C 575.832031 253.488281 575.035156 254.367188 574.191406 255.210938 C 573.351562 256.050781 572.46875 256.851562 571.550781 257.605469 C 570.628906 258.359375 569.675781 259.070312 568.683594 259.730469 C 567.695312 260.390625 566.675781 261.003906 565.625 261.5625 C 564.574219 262.125 563.5 262.632812 562.398438 263.089844 C 561.300781 263.546875 560.179688 263.945312 559.039062 264.292969 C 557.902344 264.636719 556.746094 264.925781 555.582031 265.15625 C 554.414062 265.390625 553.238281 265.566406 552.050781 265.679688 C 550.867188 265.796875 549.679688 265.855469 548.488281 265.855469 L 475.785156 265.855469 L 475.785156 338.558594 L 509.339844 338.558594 C 511.125 338.558594 512.90625 338.648438 514.683594 338.820312 C 516.460938 338.996094 518.222656 339.257812 519.976562 339.605469 C 521.726562 339.957031 523.457031 340.390625 525.167969 340.90625 C 526.875 341.425781 528.554688 342.027344 530.203125 342.710938 C 531.855469 343.394531 533.46875 344.15625 535.042969 344.996094 C 536.617188 345.839844 538.148438 346.757812 539.632812 347.75 C 541.117188 348.742188 542.550781 349.804688 543.929688 350.9375 C 545.308594 352.070312 546.632812 353.265625 547.894531 354.53125 C 549.15625 355.792969 550.355469 357.113281 551.488281 358.496094 C 552.621094 359.875 553.683594 361.308594 554.675781 362.792969 C 555.667969 364.277344 556.585938 365.808594 557.425781 367.382812 C 558.269531 368.957031 559.03125 370.570312 559.714844 372.21875 C 560.398438 373.871094 561 375.550781 561.515625 377.257812 C 562.035156 378.96875 562.46875 380.699219 562.816406 382.449219 C 563.164062 384.199219 563.425781 385.964844 563.601562 387.742188 C 563.777344 389.519531 563.867188 391.300781 563.867188 393.085938 C 563.863281 395.71875 563.667969 398.335938 563.285156 400.9375 L 548.125 507.265625 C 547.871094 509.046875 547.488281 510.796875 546.976562 512.519531 C 546.460938 514.242188 545.824219 515.914062 545.0625 517.542969 C 544.300781 519.171875 543.421875 520.734375 542.429688 522.230469 C 541.4375 523.726562 540.339844 525.144531 539.132812 526.480469 C 537.929688 527.8125 536.636719 529.050781 535.25 530.195312 C 533.863281 531.335938 532.398438 532.371094 530.859375 533.296875 C 529.316406 534.222656 527.71875 535.027344 526.058594 535.714844 C 524.398438 536.40625 522.695312 536.964844 520.953125 537.402344 L 448.25 555.578125 C 445.355469 556.304688 442.417969 556.667969 439.433594 556.667969 Z M 491.363281 390.507812 Z M 491.363281 390.507812 " fill-opacity="1" fill-rule="nonzero"/></svg>