<svg xmlns="http://www.w3.org/2000/svg" xmlns:xlink="http://www.w3.org/1999/xlink" width="1024" zoomAndPan="magnify" viewBox="0 0 768 767.999994" height="1024" preserveAspectRatio="xMidYMid meet" version="1.0"><path fill="#ff91fd" d="M 287.03125 588.246094 C 287.03125 588.246094 257.789062 606.03125 307.363281 611.117188 C 367.042969 618.726562 398.832031 617.46875 464.886719 604.769531 C 478.191406 612.917969 492.164062 619.695312 506.804688 625.101562 C 358.199219 688.632812 170.121094 621.296875 287.007812 588.246094 Z M 268.011719 505.667969 C 268.011719 505.667969 236.246094 529.800781 285.796875 534.914062 C 350.589844 541.261719 401.402344 542.523438 489.089844 524.761719 C 493.355469 529.085938 498.0625 532.855469 503.210938 536.074219 C 508.363281 539.292969 513.816406 541.871094 519.574219 543.804688 C 340.4375 597.160156 139.710938 548.894531 268.011719 505.691406 Z M 618.652344 650.46875 C 618.652344 650.46875 640.242188 668.253906 594.519531 682.234375 C 509.394531 707.675781 237.527344 715.285156 161.300781 682.234375 C 134.621094 670.824219 185.433594 654.296875 201.722656 651.753906 C 218.246094 647.949219 227.164062 647.949219 227.164062 647.949219 C 197.917969 627.621094 32.785156 689.867188 143.324219 707.628906 C 446.957031 757.179688 697.234375 686.039062 618.460938 650.46875 Z M 300.777344 419.261719 C 300.777344 419.261719 162.296875 452.3125 251.226562 463.722656 C 289.339844 468.8125 364.285156 467.527344 434.164062 462.464844 C 491.324219 457.375 548.535156 447.246094 548.535156 447.246094 C 548.535156 447.246094 528.203125 456.140625 514.222656 465.03125 C 373.226562 501.886719 102.59375 485.363281 180.105469 447.246094 C 246.160156 415.480469 300.800781 419.308594 300.800781 419.308594 Z M 548.535156 557.738281 C 690.816406 484.03125 624.761719 412.9375 579.015625 421.804688 C 567.601562 424.351562 562.492188 426.894531 562.492188 426.894531 C 562.492188 426.894531 566.292969 419.285156 575.1875 416.742188 C 665.398438 384.976562 736.539062 512.015625 545.941406 561.542969 C 545.941406 561.542969 547.203125 560.285156 548.484375 557.738281 Z M 314.804688 758.464844 C 452 767.359375 661.640625 753.378906 666.707031 688.5625 C 666.707031 688.5625 656.554688 714.003906 553.644531 733.023438 C 436.757812 754.613281 291.929688 752.046875 206.808594 738.113281 C 206.808594 738.113281 224.59375 753.328125 314.804688 758.441406 Z M 314.804688 758.464844 " fill-opacity="1" fill-rule="nonzero"/><path fill="#ff91fd" d="M 462.367188 0.0234375 C 462.367188 0.0234375 541.140625 80.058594 387.417969 200.75 C 264.183594 298.570312 359.480469 354.46875 387.417969 418 C 314.996094 353.207031 262.921875 296.023438 298.492188 242.691406 C 350.566406 163.894531 494.132812 126.019531 462.367188 0.0234375 Z M 421.945312 364.644531 C 458.796875 406.566406 411.792969 444.679688 411.792969 444.679688 C 411.792969 444.679688 505.804688 396.410156 462.601562 336.683594 C 423.226562 279.523438 392.699219 251.5625 557.878906 156.285156 C 557.878906 156.285156 297.449219 221.078125 421.945312 364.644531 Z M 421.945312 364.644531 " fill-opacity="1" fill-rule="nonzero"/></svg>