<svg xmlns="http://www.w3.org/2000/svg" xmlns:xlink="http://www.w3.org/1999/xlink" width="1024" zoomAndPan="magnify" viewBox="0 0 768 767.999994" height="1024" preserveAspectRatio="xMidYMid meet" version="1.0"><defs><clipPath id="e6f1f0f9b5"><path d="M 64.226562 64.226562 L 576 64.226562 L 576 675 L 64.226562 675 Z M 64.226562 64.226562 " clip-rule="nonzero"/></clipPath><clipPath id="9467cd56b5"><path d="M 501 500 L 703.976562 500 L 703.976562 703.976562 L 501 703.976562 Z M 501 500 " clip-rule="nonzero"/></clipPath></defs><g clip-path="url(#e6f1f0f9b5)"><path fill="#ffffff" d="M 575.042969 361.460938 L 575.042969 242.851562 C 575.042969 233.046875 567.140625 225.089844 557.28125 225.089844 L 466.191406 225.089844 L 466.191406 214.730469 C 466.191406 200.011719 454.261719 188.082031 439.542969 188.082031 L 291.457031 188.082031 C 291.753906 184.730469 291.96875 181.351562 291.96875 177.921875 C 291.96875 115.230469 241.152344 64.414062 178.460938 64.414062 C 115.765625 64.414062 64.949219 115.230469 64.949219 177.921875 C 64.949219 240.613281 115.777344 291.429688 178.460938 291.429688 C 182.105469 291.429688 185.703125 291.222656 189.261719 290.886719 L 189.261719 466.261719 C 178.195312 487.433594 164.734375 507.242188 146.734375 530 C 140.082031 528.738281 132.949219 529.988281 126.886719 534.074219 L 99.5625 552.496094 C 87.359375 560.730469 84.136719 577.289062 92.371094 589.492188 L 114.636719 622.527344 C 121.449219 632.621094 133.933594 636.449219 144.957031 632.855469 L 170.152344 670.226562 C 172.898438 674.292969 178.414062 675.367188 182.480469 672.625 L 215.046875 650.675781 C 217.355469 649.113281 218.800781 646.554688 218.945312 643.765625 C 219.097656 640.976562 217.914062 638.285156 215.773438 636.5 L 182.320312 608.503906 C 186.84375 604.222656 189.570312 598.640625 190.363281 592.730469 C 191.296875 592.347656 192.234375 591.964844 193.15625 591.59375 C 195.691406 594.234375 199.242188 595.898438 203.195312 595.898438 L 439.542969 595.898438 C 454.257812 595.898438 466.1875 583.96875 466.1875 569.25 L 466.1875 379.226562 L 557.277344 379.226562 C 567.136719 379.226562 575.042969 371.269531 575.042969 361.460938 Z M 178.460938 273.667969 C 125.582031 273.667969 82.714844 230.800781 82.714844 177.921875 C 82.714844 125.042969 125.582031 82.175781 178.460938 82.175781 C 231.335938 82.175781 274.203125 125.042969 274.203125 177.921875 C 274.203125 230.800781 231.335938 273.667969 178.460938 273.667969 Z M 141.703125 614.992188 C 137.636719 617.738281 132.109375 616.664062 129.375 612.59375 L 107.097656 579.5625 C 104.351562 575.492188 105.425781 569.96875 109.496094 567.234375 L 136.816406 548.808594 C 140.886719 546.066406 146.402344 547.140625 149.148438 551.207031 L 171.425781 584.242188 C 174.160156 588.3125 173.09375 593.828125 169.027344 596.570312 Z M 195.328125 642.546875 L 179.917969 652.929688 L 160.320312 623.863281 L 167.34375 619.128906 Z M 186.570312 575.09375 C 186.410156 574.839844 186.320312 574.5625 186.152344 574.3125 L 163.875 541.277344 C 163.351562 540.503906 162.707031 539.871094 162.121094 539.171875 C 180.105469 516.285156 193.796875 495.984375 205.144531 474.222656 L 207.023438 474.222656 L 207.023438 470.695312 C 211.558594 461.738281 215.714844 452.339844 219.6875 442.457031 C 226.789062 464.933594 235.257812 483.820312 246.695312 500.914062 C 258.660156 518.8125 273.734375 534.433594 293.226562 550.128906 C 254.996094 552.871094 223.585938 560.257812 186.570312 575.09375 Z M 234.207031 405.152344 C 237.742188 402.761719 242.324219 403.074219 245.371094 405.738281 C 270.0625 427.324219 287.3125 446.101562 300.851562 466.425781 C 314.386719 486.757812 324.441406 508.972656 334.382812 537.714844 C 335.722656 541.597656 334.277344 546.003906 330.695312 548.410156 C 327.410156 550.628906 323.191406 550.550781 320.160156 548.355469 C 293.328125 528.964844 275.066406 511.378906 261.457031 491.039062 C 247.839844 470.679688 238.53125 447.023438 230.351562 414.96875 C 229.425781 411.324219 230.917969 407.363281 234.207031 405.152344 Z M 448.425781 569.246094 C 448.425781 574.160156 444.453125 578.128906 439.542969 578.128906 L 232.277344 578.128906 C 258.953125 570.785156 285.039062 567.503906 317.480469 566.699219 L 317.476562 566.589844 C 325.210938 568.980469 333.757812 567.777344 340.625 563.148438 C 350.707031 556.351562 355.210938 543.597656 351.171875 531.914062 C 340.945312 502.335938 330.296875 478.59375 315.632812 456.582031 C 300.964844 434.5625 282.527344 414.621094 257.058594 392.363281 C 247.777344 384.253906 234.3125 383.65625 224.273438 390.417969 C 217.246094 395.15625 212.890625 402.855469 212.367188 411.109375 C 210.617188 416.324219 208.832031 421.261719 207.023438 426.109375 L 207.023438 287.664062 C 246.929688 277.296875 278.222656 245.84375 288.363281 205.847656 L 439.542969 205.847656 C 444.453125 205.847656 448.421875 209.820312 448.421875 214.730469 L 448.421875 225.089844 L 382.285156 225.089844 C 372.480469 225.089844 364.519531 233.046875 364.519531 242.855469 L 364.519531 361.460938 C 364.519531 371.265625 372.480469 379.226562 382.285156 379.226562 L 392.960938 379.226562 L 399.074219 393.429688 C 404.792969 406.746094 423.1875 407.96875 430.632812 395.535156 L 440.394531 379.226562 L 448.421875 379.226562 L 448.421875 569.25 Z M 440.394531 361.460938 C 434.152344 361.460938 428.359375 364.738281 425.152344 370.101562 L 415.390625 386.410156 L 409.28125 372.199219 C 406.472656 365.679688 400.058594 361.460938 392.960938 361.460938 L 382.285156 361.460938 L 382.285156 242.851562 L 557.28125 242.851562 L 557.28125 361.460938 Z M 440.394531 361.460938 " fill-opacity="1" fill-rule="nonzero"/></g><path fill="#ffffff" d="M 416.707031 281.03125 C 404.535156 281.03125 394.675781 290.890625 394.675781 303.058594 C 394.675781 315.226562 404.535156 325.085938 416.707031 325.085938 C 428.867188 325.085938 438.734375 315.226562 438.734375 303.058594 C 438.734375 290.890625 428.867188 281.03125 416.707031 281.03125 Z M 416.707031 307.320312 C 414.351562 307.320312 412.441406 305.414062 412.441406 303.058594 C 412.441406 300.703125 414.351562 298.792969 416.707031 298.792969 C 419.058594 298.792969 420.96875 300.703125 420.96875 303.058594 C 420.96875 305.414062 419.058594 307.320312 416.707031 307.320312 Z M 416.707031 307.320312 " fill-opacity="1" fill-rule="nonzero"/><path fill="#ffffff" d="M 470 281.03125 C 457.832031 281.03125 447.972656 290.890625 447.972656 303.058594 C 447.972656 315.226562 457.832031 325.085938 470 325.085938 C 482.160156 325.085938 492.027344 315.226562 492.027344 303.058594 C 492.027344 290.890625 482.160156 281.03125 470 281.03125 Z M 470 307.320312 C 467.644531 307.320312 465.738281 305.414062 465.738281 303.058594 C 465.738281 300.703125 467.644531 298.792969 470 298.792969 C 472.355469 298.792969 474.265625 300.703125 474.265625 303.058594 C 474.265625 305.414062 472.355469 307.320312 470 307.320312 Z M 470 307.320312 " fill-opacity="1" fill-rule="nonzero"/><path fill="#ffffff" d="M 523.296875 281.03125 C 511.125 281.03125 501.265625 290.890625 501.265625 303.058594 C 501.265625 315.226562 511.125 325.085938 523.296875 325.085938 C 535.457031 325.085938 545.289062 315.226562 545.289062 303.058594 C 545.289062 290.890625 535.457031 281.03125 523.296875 281.03125 Z M 523.296875 307.320312 C 520.941406 307.320312 519.03125 305.414062 519.03125 303.058594 C 519.03125 300.703125 520.941406 298.792969 523.296875 298.792969 C 525.648438 298.792969 527.558594 300.703125 527.558594 303.058594 C 527.558594 305.414062 525.648438 307.320312 523.296875 307.320312 Z M 523.296875 307.320312 " fill-opacity="1" fill-rule="nonzero"/><g clip-path="url(#9467cd56b5)"><path fill="#ffffff" d="M 602.582031 500.914062 C 546.621094 500.914062 501.265625 546.289062 501.265625 602.246094 C 501.265625 658.207031 546.621094 703.578125 602.582031 703.578125 C 658.539062 703.578125 703.929688 658.207031 703.929688 602.246094 C 703.929688 546.289062 658.539062 500.914062 602.582031 500.914062 Z M 602.582031 685.8125 C 556.480469 685.8125 519.03125 648.402344 519.03125 602.246094 C 519.03125 556.09375 556.480469 518.679688 602.582031 518.679688 C 648.769531 518.679688 686.164062 556.09375 686.164062 602.246094 C 686.164062 648.402344 648.769531 685.8125 602.582031 685.8125 Z M 602.582031 685.8125 " fill-opacity="1" fill-rule="nonzero"/></g><path fill="#ffffff" d="M 642.019531 587.664062 L 597.25 560.578125 C 585.527344 553.5 570.515625 561.742188 570.246094 575.421875 L 569.183594 627.75 C 568.914062 641.417969 583.570312 650.265625 595.5625 643.667969 L 641.398438 618.421875 C 653.386719 611.824219 653.742188 594.734375 642.019531 587.664062 Z M 586.945312 628.105469 L 588.011719 575.777344 L 632.78125 602.859375 Z M 586.945312 628.105469 " fill-opacity="1" fill-rule="nonzero"/><path fill="#ffffff" d="M 178.460938 177.941406 C 198.550781 177.941406 214.832031 161.648438 214.832031 141.566406 C 214.832031 121.484375 198.550781 105.191406 178.460938 105.191406 C 158.367188 105.191406 142.085938 121.472656 142.085938 141.566406 C 142.085938 161.65625 158.375 177.941406 178.460938 177.941406 Z M 178.460938 122.957031 C 188.734375 122.957031 197.066406 131.289062 197.066406 141.566406 C 197.066406 151.84375 188.734375 160.175781 178.460938 160.175781 C 168.183594 160.175781 159.851562 151.84375 159.851562 141.566406 C 159.851562 131.289062 168.183594 122.957031 178.460938 122.957031 Z M 178.460938 122.957031 " fill-opacity="1" fill-rule="nonzero"/><path fill="#ffffff" d="M 178.460938 184.113281 C 150.921875 184.113281 128.601562 206.433594 128.601562 233.96875 C 128.601562 238.875 132.582031 242.851562 137.484375 242.851562 L 219.433594 242.851562 C 224.347656 242.851562 228.316406 238.875 228.316406 233.96875 C 228.316406 206.433594 205.996094 184.113281 178.460938 184.113281 Z M 147.609375 225.089844 C 151.464844 211.683594 163.820312 201.878906 178.460938 201.878906 C 193.105469 201.878906 205.460938 211.683594 209.308594 225.089844 Z M 147.609375 225.089844 " fill-opacity="1" fill-rule="nonzero"/></svg>