<svg xmlns="http://www.w3.org/2000/svg" xmlns:xlink="http://www.w3.org/1999/xlink" width="1024" zoomAndPan="magnify" viewBox="0 0 768 767.999994" height="1024" preserveAspectRatio="xMidYMid meet" version="1.0"><defs><clipPath id="34bfa5c0f0"><path d="M 61.019531 108 L 700 108 L 700 588 L 61.019531 588 Z M 61.019531 108 " clip-rule="nonzero"/></clipPath><clipPath id="74db8ca94a"><path d="M 175 632 L 586 632 L 586 701.171875 L 175 701.171875 Z M 175 632 " clip-rule="nonzero"/></clipPath><clipPath id="ed98422e08"><path d="M 61.019531 496 L 700 496 L 700 588 L 61.019531 588 Z M 61.019531 496 " clip-rule="nonzero"/></clipPath></defs><g clip-path="url(#34bfa5c0f0)"><path fill="#ffffff" d="M 665.429688 587.382812 L 95.722656 587.382812 C 94.605469 587.382812 93.488281 587.328125 92.375 587.21875 C 91.257812 587.109375 90.152344 586.945312 89.054688 586.726562 C 87.957031 586.507812 86.871094 586.238281 85.800781 585.910156 C 84.730469 585.585938 83.675781 585.210938 82.644531 584.78125 C 81.609375 584.351562 80.597656 583.875 79.609375 583.347656 C 78.625 582.820312 77.664062 582.246094 76.734375 581.621094 C 75.800781 581 74.902344 580.335938 74.039062 579.625 C 73.171875 578.914062 72.34375 578.164062 71.554688 577.371094 C 70.761719 576.582031 70.011719 575.75 69.300781 574.886719 C 68.589844 574.019531 67.925781 573.121094 67.300781 572.191406 C 66.679688 571.261719 66.105469 570.300781 65.578125 569.316406 C 65.050781 568.328125 64.570312 567.316406 64.144531 566.28125 C 63.714844 565.25 63.339844 564.195312 63.011719 563.125 C 62.6875 562.050781 62.417969 560.96875 62.199219 559.871094 C 61.980469 558.773438 61.816406 557.664062 61.707031 556.550781 C 61.597656 555.4375 61.542969 554.320312 61.542969 553.203125 L 61.542969 143.011719 C 61.542969 141.894531 61.597656 140.777344 61.707031 139.664062 C 61.816406 138.546875 61.980469 137.441406 62.199219 136.34375 C 62.417969 135.246094 62.6875 134.160156 63.011719 133.089844 C 63.339844 132.019531 63.714844 130.964844 64.144531 129.933594 C 64.570312 128.898438 65.050781 127.886719 65.578125 126.898438 C 66.105469 125.914062 66.679688 124.953125 67.300781 124.023438 C 67.925781 123.089844 68.589844 122.195312 69.300781 121.328125 C 70.011719 120.460938 70.761719 119.632812 71.554688 118.84375 C 72.34375 118.050781 73.171875 117.300781 74.039062 116.589844 C 74.902344 115.878906 75.800781 115.214844 76.734375 114.589844 C 77.664062 113.96875 78.625 113.394531 79.609375 112.867188 C 80.597656 112.339844 81.609375 111.859375 82.644531 111.433594 C 83.675781 111.003906 84.730469 110.628906 85.800781 110.300781 C 86.871094 109.976562 87.957031 109.707031 89.054688 109.488281 C 90.152344 109.269531 91.257812 109.105469 92.375 108.996094 C 93.488281 108.886719 94.605469 108.832031 95.722656 108.832031 L 471.730469 108.832031 C 472.476562 108.832031 473.21875 108.902344 473.953125 109.050781 C 474.6875 109.195312 475.398438 109.410156 476.089844 109.699219 C 476.78125 109.984375 477.4375 110.335938 478.058594 110.75 C 478.683594 111.167969 479.257812 111.640625 479.785156 112.167969 C 480.316406 112.695312 480.789062 113.273438 481.203125 113.894531 C 481.621094 114.515625 481.96875 115.171875 482.257812 115.863281 C 482.542969 116.554688 482.757812 117.269531 482.90625 118.003906 C 483.050781 118.734375 483.125 119.476562 483.125 120.226562 C 483.125 120.972656 483.050781 121.714844 482.90625 122.449219 C 482.757812 123.179688 482.542969 123.894531 482.257812 124.585938 C 481.96875 125.277344 481.621094 125.933594 481.203125 126.554688 C 480.789062 127.175781 480.316406 127.753906 479.785156 128.28125 C 479.257812 128.8125 478.683594 129.28125 478.058594 129.699219 C 477.4375 130.113281 476.78125 130.464844 476.089844 130.75 C 475.398438 131.039062 474.6875 131.253906 473.953125 131.398438 C 473.21875 131.546875 472.476562 131.617188 471.730469 131.617188 L 95.722656 131.617188 C 94.976562 131.617188 94.234375 131.691406 93.5 131.839844 C 92.765625 131.984375 92.054688 132.199219 91.363281 132.488281 C 90.671875 132.773438 90.015625 133.125 89.394531 133.539062 C 88.773438 133.953125 88.195312 134.425781 87.667969 134.957031 C 87.136719 135.484375 86.664062 136.0625 86.25 136.683594 C 85.835938 137.304688 85.484375 137.960938 85.195312 138.652344 C 84.910156 139.34375 84.695312 140.054688 84.546875 140.789062 C 84.402344 141.523438 84.328125 142.265625 84.328125 143.011719 L 84.328125 553.203125 C 84.328125 553.949219 84.402344 554.691406 84.546875 555.425781 C 84.695312 556.15625 84.910156 556.871094 85.195312 557.5625 C 85.484375 558.253906 85.835938 558.910156 86.25 559.53125 C 86.664062 560.152344 87.136719 560.730469 87.667969 561.257812 C 88.195312 561.789062 88.773438 562.257812 89.394531 562.675781 C 90.015625 563.089844 90.671875 563.441406 91.363281 563.726562 C 92.054688 564.015625 92.765625 564.230469 93.5 564.375 C 94.234375 564.523438 94.976562 564.59375 95.722656 564.59375 L 665.429688 564.59375 C 666.179688 564.59375 666.917969 564.523438 667.652344 564.375 C 668.386719 564.230469 669.097656 564.015625 669.789062 563.726562 C 670.480469 563.441406 671.136719 563.089844 671.761719 562.675781 C 672.382812 562.257812 672.957031 561.789062 673.488281 561.257812 C 674.015625 560.730469 674.488281 560.152344 674.902344 559.53125 C 675.320312 558.910156 675.671875 558.253906 675.957031 557.5625 C 676.242188 556.871094 676.457031 556.15625 676.605469 555.425781 C 676.75 554.691406 676.824219 553.949219 676.824219 553.203125 L 676.824219 268.347656 C 676.824219 267.601562 676.898438 266.859375 677.042969 266.125 C 677.1875 265.390625 677.40625 264.679688 677.691406 263.988281 C 677.976562 263.296875 678.328125 262.640625 678.742188 262.019531 C 679.160156 261.394531 679.632812 260.820312 680.160156 260.292969 C 680.691406 259.761719 681.265625 259.289062 681.886719 258.875 C 682.507812 258.457031 683.167969 258.109375 683.859375 257.820312 C 684.546875 257.535156 685.261719 257.320312 685.996094 257.171875 C 686.730469 257.027344 687.46875 256.953125 688.21875 256.953125 C 688.964844 256.953125 689.707031 257.027344 690.441406 257.171875 C 691.175781 257.320312 691.886719 257.535156 692.578125 257.820312 C 693.269531 258.109375 693.925781 258.457031 694.546875 258.875 C 695.171875 259.289062 695.746094 259.761719 696.273438 260.292969 C 696.804688 260.820312 697.277344 261.394531 697.691406 262.019531 C 698.105469 262.640625 698.457031 263.296875 698.746094 263.988281 C 699.03125 264.679688 699.246094 265.390625 699.394531 266.125 C 699.539062 266.859375 699.613281 267.601562 699.613281 268.347656 L 699.613281 553.203125 C 699.613281 554.320312 699.558594 555.4375 699.449219 556.550781 C 699.335938 557.664062 699.171875 558.773438 698.957031 559.871094 C 698.738281 560.96875 698.464844 562.050781 698.140625 563.125 C 697.816406 564.195312 697.4375 565.25 697.011719 566.28125 C 696.582031 567.316406 696.105469 568.328125 695.574219 569.316406 C 695.046875 570.300781 694.472656 571.261719 693.851562 572.191406 C 693.230469 573.121094 692.5625 574.019531 691.851562 574.886719 C 691.144531 575.75 690.390625 576.582031 689.601562 577.371094 C 688.808594 578.164062 687.980469 578.914062 687.113281 579.625 C 686.25 580.335938 685.351562 581 684.421875 581.621094 C 683.488281 582.246094 682.53125 582.820312 681.542969 583.347656 C 680.554688 583.875 679.546875 584.351562 678.511719 584.78125 C 677.476562 585.210938 676.421875 585.585938 675.351562 585.910156 C 674.28125 586.238281 673.195312 586.507812 672.097656 586.726562 C 671 586.945312 669.894531 587.109375 668.78125 587.21875 C 667.667969 587.328125 666.550781 587.382812 665.429688 587.382812 Z M 665.429688 587.382812 " fill-opacity="1" fill-rule="nonzero"/></g><g clip-path="url(#74db8ca94a)"><path fill="#ffffff" d="M 551.488281 701.324219 L 209.664062 701.324219 C 208.546875 701.324219 207.429688 701.269531 206.316406 701.160156 C 205.199219 701.050781 204.09375 700.886719 202.996094 700.667969 C 201.898438 700.449219 200.8125 700.179688 199.742188 699.851562 C 198.671875 699.527344 197.617188 699.152344 196.585938 698.722656 C 195.550781 698.292969 194.539062 697.816406 193.550781 697.289062 C 192.5625 696.761719 191.605469 696.1875 190.675781 695.5625 C 189.742188 694.941406 188.84375 694.277344 187.980469 693.566406 C 187.113281 692.855469 186.285156 692.105469 185.496094 691.3125 C 184.703125 690.519531 183.953125 689.691406 183.242188 688.828125 C 182.53125 687.960938 181.867188 687.0625 181.242188 686.132812 C 180.621094 685.203125 180.046875 684.242188 179.519531 683.257812 C 178.992188 682.269531 178.511719 681.257812 178.085938 680.222656 C 177.65625 679.1875 177.28125 678.136719 176.953125 677.066406 C 176.628906 675.992188 176.359375 674.910156 176.140625 673.8125 C 175.921875 672.714844 175.757812 671.605469 175.648438 670.492188 C 175.539062 669.378906 175.484375 668.261719 175.484375 667.140625 C 175.484375 666.023438 175.539062 664.90625 175.648438 663.792969 C 175.757812 662.679688 175.921875 661.570312 176.140625 660.472656 C 176.359375 659.375 176.628906 658.292969 176.953125 657.21875 C 177.28125 656.148438 177.65625 655.097656 178.085938 654.0625 C 178.511719 653.027344 178.992188 652.015625 179.519531 651.027344 C 180.046875 650.042969 180.621094 649.082031 181.242188 648.152344 C 181.867188 647.222656 182.53125 646.324219 183.242188 645.457031 C 183.953125 644.59375 184.703125 643.761719 185.496094 642.972656 C 186.285156 642.179688 187.113281 641.429688 187.980469 640.71875 C 188.84375 640.007812 189.742188 639.34375 190.675781 638.722656 C 191.605469 638.097656 192.5625 637.523438 193.550781 636.996094 C 194.539062 636.46875 195.550781 635.992188 196.585938 635.5625 C 197.617188 635.132812 198.671875 634.757812 199.742188 634.433594 C 200.8125 634.105469 201.898438 633.835938 202.996094 633.617188 C 204.09375 633.398438 205.199219 633.234375 206.316406 633.125 C 207.429688 633.015625 208.546875 632.960938 209.664062 632.960938 L 551.488281 632.960938 C 552.609375 632.960938 553.726562 633.015625 554.839844 633.125 C 555.953125 633.234375 557.058594 633.398438 558.15625 633.617188 C 559.253906 633.835938 560.339844 634.105469 561.410156 634.433594 C 562.484375 634.757812 563.535156 635.132812 564.570312 635.5625 C 565.605469 635.992188 566.613281 636.46875 567.601562 636.996094 C 568.589844 637.523438 569.546875 638.097656 570.480469 638.722656 C 571.410156 639.34375 572.308594 640.007812 573.171875 640.71875 C 574.039062 641.429688 574.867188 642.179688 575.660156 642.972656 C 576.449219 643.761719 577.203125 644.59375 577.910156 645.457031 C 578.621094 646.324219 579.289062 647.222656 579.910156 648.152344 C 580.53125 649.082031 581.105469 650.042969 581.632812 651.027344 C 582.164062 652.015625 582.640625 653.027344 583.070312 654.0625 C 583.496094 655.097656 583.875 656.148438 584.199219 657.21875 C 584.523438 658.292969 584.796875 659.375 585.015625 660.472656 C 585.234375 661.570312 585.398438 662.679688 585.507812 663.792969 C 585.617188 664.90625 585.671875 666.023438 585.671875 667.140625 C 585.671875 668.261719 585.617188 669.378906 585.507812 670.492188 C 585.398438 671.605469 585.234375 672.714844 585.015625 673.8125 C 584.796875 674.910156 584.523438 675.992188 584.199219 677.066406 C 583.875 678.136719 583.496094 679.1875 583.070312 680.222656 C 582.640625 681.257812 582.164062 682.269531 581.632812 683.257812 C 581.105469 684.242188 580.53125 685.203125 579.910156 686.132812 C 579.289062 687.0625 578.621094 687.960938 577.910156 688.828125 C 577.203125 689.691406 576.449219 690.519531 575.660156 691.3125 C 574.867188 692.105469 574.039062 692.855469 573.171875 693.566406 C 572.308594 694.277344 571.410156 694.941406 570.480469 695.5625 C 569.546875 696.1875 568.589844 696.761719 567.601562 697.289062 C 566.613281 697.816406 565.605469 698.292969 564.570312 698.722656 C 563.535156 699.152344 562.484375 699.527344 561.410156 699.851562 C 560.339844 700.179688 559.253906 700.449219 558.15625 700.667969 C 557.058594 700.886719 555.953125 701.050781 554.839844 701.160156 C 553.726562 701.269531 552.609375 701.324219 551.488281 701.324219 Z M 209.664062 655.75 C 208.917969 655.75 208.175781 655.820312 207.441406 655.96875 C 206.707031 656.113281 205.996094 656.328125 205.304688 656.617188 C 204.613281 656.902344 203.957031 657.253906 203.335938 657.667969 C 202.710938 658.085938 202.136719 658.558594 201.609375 659.085938 C 201.078125 659.613281 200.605469 660.191406 200.191406 660.8125 C 199.777344 661.433594 199.425781 662.089844 199.136719 662.78125 C 198.851562 663.472656 198.636719 664.1875 198.488281 664.917969 C 198.34375 665.652344 198.269531 666.394531 198.269531 667.140625 C 198.269531 667.890625 198.34375 668.632812 198.488281 669.367188 C 198.636719 670.097656 198.851562 670.8125 199.136719 671.503906 C 199.425781 672.195312 199.777344 672.851562 200.191406 673.472656 C 200.605469 674.09375 201.078125 674.671875 201.609375 675.199219 C 202.136719 675.726562 202.710938 676.199219 203.335938 676.617188 C 203.957031 677.03125 204.613281 677.382812 205.304688 677.667969 C 205.996094 677.957031 206.707031 678.171875 207.441406 678.316406 C 208.175781 678.464844 208.917969 678.535156 209.664062 678.535156 L 551.488281 678.535156 C 552.238281 678.535156 552.976562 678.464844 553.710938 678.316406 C 554.445312 678.171875 555.15625 677.957031 555.847656 677.667969 C 556.539062 677.382812 557.195312 677.03125 557.820312 676.617188 C 558.441406 676.199219 559.015625 675.726562 559.546875 675.199219 C 560.074219 674.671875 560.546875 674.09375 560.960938 673.472656 C 561.378906 672.851562 561.730469 672.195312 562.015625 671.503906 C 562.300781 670.8125 562.519531 670.097656 562.664062 669.367188 C 562.808594 668.632812 562.882812 667.890625 562.882812 667.140625 C 562.882812 666.394531 562.808594 665.652344 562.664062 664.917969 C 562.519531 664.1875 562.300781 663.472656 562.015625 662.78125 C 561.730469 662.089844 561.378906 661.433594 560.960938 660.8125 C 560.546875 660.191406 560.074219 659.613281 559.546875 659.085938 C 559.015625 658.554688 558.441406 658.085938 557.820312 657.667969 C 557.195312 657.253906 556.539062 656.902344 555.847656 656.617188 C 555.15625 656.328125 554.445312 656.113281 553.710938 655.96875 C 552.976562 655.820312 552.238281 655.75 551.488281 655.75 Z M 209.664062 655.75 " fill-opacity="1" fill-rule="nonzero"/></g><g clip-path="url(#ed98422e08)"><path fill="#ffffff" d="M 665.429688 587.382812 L 95.722656 587.382812 C 94.605469 587.382812 93.488281 587.328125 92.375 587.21875 C 91.257812 587.109375 90.152344 586.945312 89.054688 586.726562 C 87.957031 586.507812 86.871094 586.238281 85.800781 585.910156 C 84.730469 585.585938 83.675781 585.210938 82.644531 584.78125 C 81.609375 584.351562 80.597656 583.875 79.609375 583.347656 C 78.625 582.820312 77.664062 582.246094 76.734375 581.621094 C 75.800781 581 74.902344 580.335938 74.039062 579.625 C 73.171875 578.914062 72.34375 578.164062 71.554688 577.371094 C 70.761719 576.582031 70.011719 575.75 69.300781 574.886719 C 68.589844 574.019531 67.925781 573.121094 67.300781 572.191406 C 66.679688 571.261719 66.105469 570.300781 65.578125 569.316406 C 65.050781 568.328125 64.570312 567.316406 64.144531 566.28125 C 63.714844 565.25 63.339844 564.195312 63.011719 563.125 C 62.6875 562.050781 62.417969 560.96875 62.199219 559.871094 C 61.980469 558.773438 61.816406 557.664062 61.707031 556.550781 C 61.597656 555.4375 61.542969 554.320312 61.542969 553.203125 L 61.542969 496.230469 L 699.613281 496.230469 L 699.613281 553.203125 C 699.613281 554.320312 699.558594 555.4375 699.449219 556.550781 C 699.335938 557.664062 699.171875 558.773438 698.957031 559.871094 C 698.738281 560.96875 698.464844 562.050781 698.140625 563.125 C 697.816406 564.195312 697.4375 565.25 697.011719 566.28125 C 696.582031 567.316406 696.105469 568.328125 695.574219 569.316406 C 695.046875 570.300781 694.472656 571.261719 693.851562 572.191406 C 693.230469 573.121094 692.5625 574.019531 691.851562 574.886719 C 691.144531 575.75 690.390625 576.582031 689.601562 577.371094 C 688.808594 578.164062 687.980469 578.914062 687.113281 579.625 C 686.25 580.335938 685.351562 581 684.421875 581.621094 C 683.488281 582.246094 682.53125 582.820312 681.542969 583.347656 C 680.554688 583.875 679.546875 584.351562 678.511719 584.78125 C 677.476562 585.210938 676.421875 585.585938 675.351562 585.910156 C 674.28125 586.238281 673.195312 586.507812 672.097656 586.726562 C 671 586.945312 669.894531 587.109375 668.78125 587.21875 C 667.667969 587.328125 666.550781 587.382812 665.429688 587.382812 Z M 84.328125 519.019531 L 84.328125 553.203125 C 84.328125 553.949219 84.402344 554.691406 84.546875 555.425781 C 84.695312 556.15625 84.910156 556.871094 85.195312 557.5625 C 85.484375 558.253906 85.835938 558.910156 86.25 559.53125 C 86.664062 560.152344 87.136719 560.730469 87.667969 561.257812 C 88.195312 561.789062 88.773438 562.257812 89.394531 562.675781 C 90.015625 563.089844 90.671875 563.441406 91.363281 563.726562 C 92.054688 564.015625 92.765625 564.230469 93.5 564.375 C 94.234375 564.523438 94.976562 564.59375 95.722656 564.59375 L 665.429688 564.59375 C 666.179688 564.59375 666.917969 564.523438 667.652344 564.375 C 668.386719 564.230469 669.097656 564.015625 669.789062 563.726562 C 670.480469 563.441406 671.136719 563.089844 671.761719 562.675781 C 672.382812 562.257812 672.957031 561.789062 673.488281 561.257812 C 674.015625 560.730469 674.488281 560.152344 674.902344 559.53125 C 675.320312 558.910156 675.671875 558.253906 675.957031 557.5625 C 676.242188 556.871094 676.457031 556.15625 676.605469 555.425781 C 676.75 554.691406 676.824219 553.949219 676.824219 553.203125 L 676.824219 519.019531 Z M 84.328125 519.019531 " fill-opacity="1" fill-rule="nonzero"/></g><path fill="#ffffff" d="M 488.933594 655.75 L 274.953125 655.75 L 305.375 564.59375 L 458.511719 564.59375 Z M 306.628906 632.960938 L 457.257812 632.960938 L 442.105469 587.382812 L 321.78125 587.382812 Z M 306.628906 632.960938 " fill-opacity="1" fill-rule="nonzero"/><path fill="#ffffff" d="M 300.816406 302.53125 L 141.300781 302.53125 C 140.550781 302.53125 139.8125 302.457031 139.078125 302.3125 C 138.34375 302.164062 137.632812 301.949219 136.941406 301.664062 C 136.25 301.378906 135.59375 301.027344 134.96875 300.609375 C 134.347656 300.195312 133.773438 299.722656 133.242188 299.195312 C 132.714844 298.664062 132.242188 298.089844 131.828125 297.46875 C 131.410156 296.84375 131.058594 296.1875 130.773438 295.496094 C 130.488281 294.804688 130.269531 294.09375 130.125 293.359375 C 129.980469 292.625 129.90625 291.886719 129.90625 291.136719 C 129.90625 290.386719 129.980469 289.648438 130.125 288.914062 C 130.269531 288.179688 130.488281 287.46875 130.773438 286.777344 C 131.058594 286.085938 131.410156 285.429688 131.828125 284.804688 C 132.242188 284.183594 132.714844 283.609375 133.242188 283.078125 C 133.773438 282.550781 134.347656 282.078125 134.96875 281.664062 C 135.59375 281.246094 136.25 280.894531 136.941406 280.609375 C 137.632812 280.324219 138.34375 280.109375 139.078125 279.960938 C 139.8125 279.816406 140.550781 279.742188 141.300781 279.742188 L 300.816406 279.742188 C 301.566406 279.742188 302.308594 279.816406 303.039062 279.960938 C 303.773438 280.109375 304.488281 280.324219 305.179688 280.609375 C 305.871094 280.894531 306.527344 281.246094 307.148438 281.664062 C 307.769531 282.078125 308.347656 282.550781 308.875 283.078125 C 309.402344 283.609375 309.875 284.183594 310.292969 284.804688 C 310.707031 285.429688 311.058594 286.085938 311.34375 286.777344 C 311.632812 287.46875 311.847656 288.179688 311.992188 288.914062 C 312.140625 289.648438 312.210938 290.386719 312.210938 291.136719 C 312.210938 291.886719 312.140625 292.625 311.992188 293.359375 C 311.847656 294.09375 311.632812 294.804688 311.34375 295.496094 C 311.058594 296.1875 310.707031 296.84375 310.292969 297.46875 C 309.875 298.089844 309.402344 298.664062 308.875 299.195312 C 308.347656 299.722656 307.769531 300.195312 307.148438 300.609375 C 306.527344 301.027344 305.871094 301.378906 305.179688 301.664062 C 304.488281 301.949219 303.773438 302.164062 303.039062 302.3125 C 302.308594 302.457031 301.566406 302.53125 300.816406 302.53125 Z M 300.816406 302.53125 " fill-opacity="1" fill-rule="nonzero"/><path fill="#ffffff" d="M 255.242188 382.289062 L 141.300781 382.289062 C 140.550781 382.289062 139.8125 382.214844 139.078125 382.070312 C 138.34375 381.925781 137.632812 381.707031 136.941406 381.421875 C 136.25 381.136719 135.59375 380.785156 134.96875 380.371094 C 134.347656 379.953125 133.773438 379.480469 133.242188 378.953125 C 132.714844 378.421875 132.242188 377.847656 131.828125 377.226562 C 131.410156 376.605469 131.058594 375.945312 130.773438 375.253906 C 130.488281 374.566406 130.269531 373.851562 130.125 373.117188 C 129.980469 372.382812 129.90625 371.644531 129.90625 370.894531 C 129.90625 370.148438 129.980469 369.40625 130.125 368.671875 C 130.269531 367.9375 130.488281 367.226562 130.773438 366.535156 C 131.058594 365.84375 131.410156 365.1875 131.828125 364.566406 C 132.242188 363.941406 132.714844 363.367188 133.242188 362.839844 C 133.773438 362.308594 134.347656 361.835938 134.96875 361.421875 C 135.59375 361.007812 136.25 360.65625 136.941406 360.367188 C 137.632812 360.082031 138.34375 359.867188 139.078125 359.71875 C 139.8125 359.574219 140.550781 359.5 141.300781 359.5 L 255.242188 359.5 C 255.988281 359.5 256.730469 359.574219 257.464844 359.71875 C 258.199219 359.867188 258.910156 360.082031 259.601562 360.367188 C 260.292969 360.65625 260.949219 361.007812 261.570312 361.421875 C 262.195312 361.835938 262.769531 362.308594 263.296875 362.839844 C 263.828125 363.367188 264.300781 363.941406 264.714844 364.566406 C 265.132812 365.1875 265.480469 365.84375 265.769531 366.535156 C 266.054688 367.226562 266.269531 367.9375 266.417969 368.671875 C 266.5625 369.40625 266.636719 370.148438 266.636719 370.894531 C 266.636719 371.644531 266.5625 372.382812 266.417969 373.117188 C 266.269531 373.851562 266.054688 374.566406 265.769531 375.253906 C 265.480469 375.945312 265.132812 376.605469 264.714844 377.226562 C 264.300781 377.847656 263.828125 378.421875 263.296875 378.953125 C 262.769531 379.480469 262.195312 379.953125 261.570312 380.371094 C 260.949219 380.785156 260.292969 381.136719 259.601562 381.421875 C 258.910156 381.707031 258.199219 381.925781 257.464844 382.070312 C 256.730469 382.214844 255.988281 382.289062 255.242188 382.289062 Z M 255.242188 382.289062 " fill-opacity="1" fill-rule="nonzero"/><path fill="#ffffff" d="M 209.664062 462.046875 L 141.300781 462.046875 C 140.550781 462.046875 139.8125 461.976562 139.078125 461.828125 C 138.34375 461.683594 137.632812 461.46875 136.941406 461.179688 C 136.25 460.894531 135.59375 460.542969 134.96875 460.128906 C 134.347656 459.710938 133.773438 459.238281 133.242188 458.710938 C 132.714844 458.183594 132.242188 457.605469 131.828125 456.984375 C 131.410156 456.363281 131.058594 455.707031 130.773438 455.015625 C 130.488281 454.324219 130.269531 453.609375 130.125 452.878906 C 129.980469 452.144531 129.90625 451.402344 129.90625 450.65625 C 129.90625 449.90625 129.980469 449.164062 130.125 448.429688 C 130.269531 447.699219 130.488281 446.984375 130.773438 446.292969 C 131.058594 445.601562 131.410156 444.945312 131.828125 444.324219 C 132.242188 443.703125 132.714844 443.125 133.242188 442.597656 C 133.773438 442.070312 134.347656 441.597656 134.96875 441.179688 C 135.59375 440.765625 136.25 440.414062 136.941406 440.128906 C 137.632812 439.839844 138.34375 439.625 139.078125 439.480469 C 139.8125 439.332031 140.550781 439.261719 141.300781 439.261719 L 209.664062 439.261719 C 210.414062 439.261719 211.152344 439.332031 211.886719 439.480469 C 212.621094 439.625 213.335938 439.839844 214.023438 440.128906 C 214.714844 440.414062 215.375 440.765625 215.996094 441.179688 C 216.617188 441.597656 217.191406 442.070312 217.722656 442.597656 C 218.25 443.125 218.722656 443.703125 219.140625 444.324219 C 219.554688 444.945312 219.90625 445.601562 220.191406 446.292969 C 220.476562 446.984375 220.695312 447.699219 220.839844 448.429688 C 220.984375 449.164062 221.058594 449.90625 221.058594 450.65625 C 221.058594 451.402344 220.984375 452.144531 220.839844 452.878906 C 220.695312 453.609375 220.476562 454.324219 220.191406 455.015625 C 219.90625 455.707031 219.554688 456.363281 219.140625 456.984375 C 218.722656 457.605469 218.25 458.183594 217.722656 458.710938 C 217.191406 459.238281 216.617188 459.710938 215.996094 460.128906 C 215.375 460.542969 214.714844 460.894531 214.023438 461.179688 C 213.335938 461.46875 212.621094 461.683594 211.886719 461.828125 C 211.152344 461.976562 210.414062 462.046875 209.664062 462.046875 Z M 209.664062 462.046875 " fill-opacity="1" fill-rule="nonzero"/><path fill="#ffffff" d="M 492.125 405.078125 C 490.601562 405.070312 489.140625 404.773438 487.738281 404.179688 C 486.335938 403.585938 485.101562 402.746094 484.035156 401.660156 L 371.347656 288.859375 C 370.820312 288.328125 370.351562 287.753906 369.941406 287.132812 C 369.527344 286.511719 369.179688 285.859375 368.894531 285.167969 C 368.609375 284.480469 368.394531 283.769531 368.25 283.039062 C 368.105469 282.308594 368.035156 281.570312 368.035156 280.824219 C 368.035156 280.078125 368.105469 279.339844 368.25 278.609375 C 368.394531 277.878906 368.609375 277.167969 368.894531 276.480469 C 369.179688 275.792969 369.527344 275.136719 369.941406 274.515625 C 370.351562 273.894531 370.820312 273.320312 371.347656 272.792969 L 532.460938 111.566406 C 532.988281 111.039062 533.5625 110.570312 534.183594 110.160156 C 534.804688 109.746094 535.460938 109.398438 536.148438 109.113281 C 536.835938 108.828125 537.546875 108.613281 538.277344 108.46875 C 539.011719 108.324219 539.746094 108.253906 540.492188 108.253906 C 541.238281 108.253906 541.976562 108.324219 542.707031 108.46875 C 543.4375 108.613281 544.148438 108.828125 544.839844 109.113281 C 545.527344 109.398438 546.183594 109.746094 546.800781 110.160156 C 547.421875 110.570312 547.996094 111.039062 548.527344 111.566406 L 661.328125 224.367188 C 661.851562 224.894531 662.324219 225.46875 662.734375 226.089844 C 663.148438 226.710938 663.496094 227.367188 663.78125 228.054688 C 664.066406 228.746094 664.277344 229.453125 664.425781 230.183594 C 664.570312 230.917969 664.640625 231.65625 664.640625 232.398438 C 664.640625 233.144531 664.570312 233.882812 664.425781 234.613281 C 664.277344 235.34375 664.066406 236.054688 663.78125 236.746094 C 663.496094 237.433594 663.148438 238.089844 662.734375 238.710938 C 662.324219 239.328125 661.851562 239.90625 661.328125 240.433594 L 500.214844 401.546875 C 499.160156 402.652344 497.929688 403.515625 496.527344 404.128906 C 495.125 404.738281 493.65625 405.054688 492.125 405.078125 Z M 395.503906 280.882812 L 492.125 377.503906 L 637.171875 232.457031 L 540.09375 135.722656 Z M 395.503906 280.882812 " fill-opacity="1" fill-rule="nonzero"/><path fill="#ffffff" d="M 320.984375 463.300781 C 319.484375 463.28125 318.039062 462.972656 316.660156 462.382812 C 315.277344 461.789062 314.0625 460.957031 313.007812 459.882812 C 312.289062 459.148438 311.675781 458.328125 311.175781 457.425781 C 310.675781 456.519531 310.304688 455.566406 310.066406 454.566406 C 309.824219 453.5625 309.722656 452.542969 309.757812 451.511719 C 309.792969 450.480469 309.964844 449.472656 310.273438 448.488281 L 368.613281 277.578125 C 368.765625 277.121094 368.949219 276.679688 369.160156 276.246094 C 369.371094 275.8125 369.609375 275.394531 369.871094 274.992188 C 370.136719 274.589844 370.421875 274.207031 370.734375 273.839844 C 371.046875 273.476562 371.382812 273.132812 371.738281 272.808594 C 372.09375 272.484375 372.46875 272.183594 372.863281 271.90625 C 373.257812 271.632812 373.664062 271.382812 374.089844 271.15625 C 374.515625 270.933594 374.953125 270.738281 375.40625 270.566406 C 375.855469 270.398438 376.3125 270.257812 376.78125 270.148438 C 377.25 270.039062 377.722656 269.957031 378.203125 269.90625 C 378.679688 269.855469 379.160156 269.835938 379.640625 269.847656 C 380.121094 269.855469 380.601562 269.894531 381.074219 269.964844 C 381.550781 270.039062 382.019531 270.136719 382.484375 270.269531 C 382.945312 270.398438 383.398438 270.554688 383.84375 270.742188 C 384.285156 270.929688 384.714844 271.144531 385.128906 271.386719 C 385.546875 271.628906 385.945312 271.894531 386.328125 272.1875 C 386.710938 272.480469 387.070312 272.796875 387.414062 273.132812 L 500.214844 385.9375 C 500.898438 386.617188 501.488281 387.371094 501.980469 388.203125 C 502.472656 389.03125 502.851562 389.910156 503.121094 390.835938 C 503.390625 391.761719 503.539062 392.710938 503.566406 393.671875 C 503.597656 394.636719 503.503906 395.589844 503.292969 396.53125 C 503.074219 397.472656 502.738281 398.375 502.292969 399.230469 C 501.84375 400.085938 501.296875 400.875 500.648438 401.59375 C 500 402.308594 499.273438 402.933594 498.46875 403.46875 C 497.660156 404 496.800781 404.421875 495.886719 404.734375 L 324.972656 463.074219 C 323.65625 463.386719 322.328125 463.460938 320.984375 463.300781 Z M 384.222656 301.734375 L 339.332031 433.5625 L 471.730469 388.671875 Z M 384.222656 301.734375 " fill-opacity="1" fill-rule="nonzero"/><path fill="#ffffff" d="M 320.984375 463.300781 C 319.484375 463.28125 318.039062 462.972656 316.660156 462.382812 C 315.277344 461.789062 314.0625 460.957031 313.007812 459.882812 C 312.289062 459.148438 311.675781 458.328125 311.175781 457.425781 C 310.675781 456.519531 310.304688 455.566406 310.066406 454.566406 C 309.824219 453.5625 309.722656 452.542969 309.757812 451.511719 C 309.792969 450.480469 309.964844 449.472656 310.273438 448.488281 L 335.570312 373.972656 C 335.78125 373.351562 336.042969 372.753906 336.355469 372.175781 C 336.671875 371.601562 337.03125 371.058594 337.4375 370.542969 C 337.847656 370.03125 338.292969 369.554688 338.785156 369.121094 C 339.273438 368.683594 339.796875 368.292969 340.355469 367.949219 C 340.910156 367.601562 341.492188 367.308594 342.101562 367.0625 C 342.710938 366.816406 343.332031 366.625 343.976562 366.488281 C 344.617188 366.351562 345.265625 366.269531 345.917969 366.246094 C 346.574219 366.21875 347.226562 366.25 347.875 366.335938 C 351.597656 366.808594 355.25 367.585938 358.84375 368.664062 C 362.433594 369.746094 365.910156 371.113281 369.273438 372.769531 C 372.640625 374.429688 375.84375 376.351562 378.886719 378.542969 C 381.929688 380.734375 384.773438 383.160156 387.414062 385.820312 C 390.054688 388.476562 392.464844 391.332031 394.644531 394.378906 C 396.820312 397.429688 398.738281 400.632812 400.394531 403.996094 C 402.050781 407.355469 403.425781 410.828125 404.515625 414.414062 C 405.605469 417.996094 406.398438 421.644531 406.898438 425.359375 C 406.984375 426.007812 407.015625 426.660156 406.988281 427.316406 C 406.964844 427.972656 406.882812 428.621094 406.746094 429.261719 C 406.609375 429.902344 406.417969 430.527344 406.171875 431.132812 C 405.925781 431.742188 405.632812 432.324219 405.285156 432.882812 C 404.941406 433.4375 404.550781 433.960938 404.113281 434.449219 C 403.679688 434.941406 403.203125 435.390625 402.691406 435.796875 C 402.175781 436.203125 401.632812 436.566406 401.058594 436.878906 C 400.480469 437.191406 399.882812 437.453125 399.261719 437.664062 L 324.746094 462.617188 C 323.53125 463.058594 322.277344 463.289062 320.984375 463.300781 Z M 353.914062 390.722656 L 339.332031 433.5625 L 382.171875 418.980469 C 381.609375 417.347656 380.957031 415.753906 380.214844 414.195312 C 379.472656 412.636719 378.644531 411.128906 377.730469 409.664062 C 376.816406 408.199219 375.820312 406.792969 374.746094 405.445312 C 373.671875 404.09375 372.527344 402.808594 371.304688 401.585938 C 370.085938 400.367188 368.800781 399.21875 367.449219 398.148438 C 366.097656 397.074219 364.691406 396.078125 363.230469 395.164062 C 361.765625 394.25 360.253906 393.421875 358.699219 392.679688 C 357.140625 391.933594 355.546875 391.28125 353.914062 390.722656 Z M 353.914062 390.722656 " fill-opacity="1" fill-rule="nonzero"/><path fill="#ffffff" d="M 653.238281 248.523438 L 524.371094 120.226562 L 564.707031 79.890625 C 565.511719 79.125 566.351562 78.398438 567.226562 77.714844 C 568.101562 77.03125 569.007812 76.390625 569.941406 75.789062 C 570.878906 75.191406 571.839844 74.636719 572.828125 74.128906 C 573.816406 73.621094 574.824219 73.164062 575.859375 72.75 C 576.890625 72.339844 577.9375 71.976562 579.003906 71.664062 C 580.070312 71.355469 581.148438 71.09375 582.242188 70.882812 C 583.332031 70.675781 584.429688 70.515625 585.535156 70.410156 C 586.640625 70.304688 587.75 70.253906 588.859375 70.253906 C 589.972656 70.253906 591.082031 70.304688 592.1875 70.410156 C 593.292969 70.515625 594.390625 70.675781 595.480469 70.882812 C 596.574219 71.09375 597.652344 71.355469 598.71875 71.664062 C 599.785156 71.976562 600.832031 72.339844 601.863281 72.75 C 602.894531 73.164062 603.90625 73.621094 604.894531 74.128906 C 605.882812 74.636719 606.84375 75.191406 607.78125 75.789062 C 608.714844 76.390625 609.621094 77.03125 610.496094 77.714844 C 611.371094 78.398438 612.210938 79.125 613.015625 79.890625 L 693.574219 160.445312 C 694.363281 161.238281 695.113281 162.066406 695.824219 162.929688 C 696.53125 163.796875 697.195312 164.695312 697.816406 165.625 C 698.4375 166.554688 699.011719 167.511719 699.539062 168.5 C 700.066406 169.488281 700.542969 170.496094 700.972656 171.53125 C 701.398438 172.5625 701.777344 173.617188 702.101562 174.6875 C 702.425781 175.757812 702.695312 176.839844 702.914062 177.9375 C 703.132812 179.035156 703.296875 180.140625 703.40625 181.253906 C 703.515625 182.367188 703.570312 183.484375 703.570312 184.601562 C 703.570312 185.71875 703.515625 186.835938 703.40625 187.949219 C 703.296875 189.0625 703.132812 190.167969 702.914062 191.265625 C 702.695312 192.363281 702.425781 193.445312 702.101562 194.515625 C 701.777344 195.585938 701.398438 196.640625 700.972656 197.671875 C 700.542969 198.707031 700.066406 199.714844 699.539062 200.703125 C 699.011719 201.691406 698.4375 202.648438 697.816406 203.578125 C 697.195312 204.507812 696.53125 205.40625 695.824219 206.273438 C 695.113281 207.136719 694.363281 207.964844 693.574219 208.757812 Z M 556.617188 120.226562 L 653.238281 216.847656 L 677.507812 192.691406 C 678.03125 192.164062 678.503906 191.589844 678.914062 190.96875 C 679.328125 190.347656 679.675781 189.691406 679.960938 189.003906 C 680.246094 188.3125 680.457031 187.605469 680.601562 186.875 C 680.75 186.140625 680.820312 185.402344 680.820312 184.660156 C 680.820312 183.914062 680.75 183.175781 680.601562 182.445312 C 680.457031 181.714844 680.246094 181.003906 679.960938 180.3125 C 679.675781 179.625 679.328125 178.96875 678.914062 178.347656 C 678.503906 177.730469 678.03125 177.15625 677.507812 176.625 L 597.066406 95.386719 C 596.535156 94.859375 595.960938 94.390625 595.339844 93.980469 C 594.722656 93.566406 594.066406 93.21875 593.375 92.933594 C 592.6875 92.648438 591.976562 92.433594 591.246094 92.289062 C 590.515625 92.144531 589.777344 92.074219 589.03125 92.074219 C 588.285156 92.074219 587.546875 92.144531 586.816406 92.289062 C 586.085938 92.433594 585.375 92.648438 584.6875 92.933594 C 584 93.21875 583.34375 93.566406 582.722656 93.980469 C 582.101562 94.390625 581.527344 94.859375 581 95.386719 Z M 556.617188 120.226562 " fill-opacity="1" fill-rule="nonzero"/><path fill="#ffffff" d="M 492.125 405.078125 C 490.601562 405.070312 489.140625 404.773438 487.738281 404.179688 C 486.335938 403.585938 485.101562 402.746094 484.035156 401.660156 L 451.902344 369.527344 C 451.371094 369 450.894531 368.421875 450.472656 367.796875 C 450.054688 367.171875 449.699219 366.515625 449.410156 365.820312 C 449.121094 365.125 448.902344 364.410156 448.753906 363.671875 C 448.605469 362.933594 448.535156 362.191406 448.535156 361.4375 C 448.535156 360.6875 448.605469 359.941406 448.753906 359.203125 C 448.902344 358.464844 449.121094 357.75 449.410156 357.054688 C 449.699219 356.363281 450.054688 355.703125 450.472656 355.078125 C 450.894531 354.453125 451.371094 353.878906 451.902344 353.347656 L 613.015625 192.121094 C 613.546875 191.597656 614.121094 191.128906 614.742188 190.714844 C 615.359375 190.300781 616.015625 189.953125 616.703125 189.667969 C 617.394531 189.386719 618.105469 189.171875 618.835938 189.027344 C 619.566406 188.882812 620.304688 188.808594 621.050781 188.808594 C 621.796875 188.808594 622.53125 188.882812 623.265625 189.027344 C 623.996094 189.171875 624.707031 189.386719 625.394531 189.667969 C 626.082031 189.953125 626.738281 190.300781 627.359375 190.714844 C 627.980469 191.128906 628.554688 191.597656 629.082031 192.121094 L 661.328125 224.367188 C 661.851562 224.894531 662.324219 225.46875 662.734375 226.089844 C 663.148438 226.710938 663.496094 227.367188 663.78125 228.054688 C 664.066406 228.746094 664.277344 229.453125 664.425781 230.183594 C 664.570312 230.917969 664.640625 231.65625 664.640625 232.398438 C 664.640625 233.144531 664.570312 233.882812 664.425781 234.613281 C 664.277344 235.34375 664.066406 236.054688 663.78125 236.746094 C 663.496094 237.433594 663.148438 238.089844 662.734375 238.710938 C 662.324219 239.328125 661.851562 239.90625 661.328125 240.433594 L 500.214844 401.546875 C 499.160156 402.652344 497.929688 403.515625 496.527344 404.128906 C 495.125 404.738281 493.65625 405.054688 492.125 405.078125 Z M 476.058594 361.4375 L 492.125 377.503906 L 637.171875 232.457031 L 621.105469 216.277344 Z M 476.058594 361.4375 " fill-opacity="1" fill-rule="nonzero"/><path fill="#ffffff" d="M 411.570312 324.40625 C 410.046875 324.402344 408.582031 324.101562 407.179688 323.507812 C 405.777344 322.917969 404.542969 322.078125 403.480469 320.988281 L 371.347656 288.742188 C 370.820312 288.214844 370.351562 287.640625 369.941406 287.019531 C 369.527344 286.398438 369.179688 285.746094 368.894531 285.054688 C 368.609375 284.367188 368.394531 283.65625 368.25 282.925781 C 368.105469 282.195312 368.035156 281.457031 368.035156 280.710938 C 368.035156 279.964844 368.105469 279.226562 368.25 278.496094 C 368.394531 277.765625 368.609375 277.054688 368.894531 276.367188 C 369.179688 275.675781 369.527344 275.023438 369.941406 274.402344 C 370.351562 273.78125 370.820312 273.207031 371.347656 272.679688 L 532.460938 111.566406 C 532.988281 111.039062 533.5625 110.570312 534.183594 110.160156 C 534.804688 109.746094 535.460938 109.398438 536.148438 109.113281 C 536.835938 108.828125 537.546875 108.613281 538.277344 108.46875 C 539.011719 108.324219 539.746094 108.253906 540.492188 108.253906 C 541.238281 108.253906 541.976562 108.324219 542.707031 108.46875 C 543.4375 108.613281 544.148438 108.828125 544.839844 109.113281 C 545.527344 109.398438 546.183594 109.746094 546.800781 110.160156 C 547.421875 110.570312 547.996094 111.039062 548.527344 111.566406 L 580.769531 143.8125 C 581.824219 144.871094 582.636719 146.09375 583.207031 147.472656 C 583.78125 148.855469 584.070312 150.292969 584.074219 151.785156 C 584.085938 153.300781 583.800781 154.757812 583.230469 156.160156 C 582.65625 157.5625 581.835938 158.800781 580.769531 159.875 L 419.660156 320.988281 C 418.59375 322.078125 417.359375 322.917969 415.957031 323.507812 C 414.554688 324.101562 413.089844 324.402344 411.570312 324.40625 Z M 395.503906 280.769531 L 411.570312 296.832031 L 556.617188 151.785156 L 540.09375 135.722656 Z M 395.503906 280.769531 " fill-opacity="1" fill-rule="nonzero"/></svg>