<svg xmlns="http://www.w3.org/2000/svg" xmlns:xlink="http://www.w3.org/1999/xlink" width="1024" zoomAndPan="magnify" viewBox="0 0 768 767.999994" height="1024" preserveAspectRatio="xMidYMid meet" version="1.0"><defs><clipPath id="a8a64c1c9a"><path d="M 0 184 L 768 184 L 768 583.957031 L 0 583.957031 Z M 0 184 " clip-rule="nonzero"/></clipPath><clipPath id="58d66a1fed"><path d="M 0 383.953125 C 0 493.988281 171.929688 583.191406 383.996094 583.191406 C 596.066406 583.191406 767.996094 493.988281 767.996094 383.953125 C 767.996094 273.917969 596.066406 184.714844 383.996094 184.714844 C 171.929688 184.714844 0 273.921875 0 383.953125 " clip-rule="nonzero"/></clipPath><clipPath id="ad8f59024d"><path d="M 0 383.953125 C 0 493.988281 171.929688 583.191406 383.996094 583.191406 C 596.066406 583.191406 767.996094 493.988281 767.996094 383.953125 C 767.996094 273.917969 596.066406 184.714844 383.996094 184.714844 C 171.929688 184.714844 0 273.921875 0 383.953125 " clip-rule="nonzero"/></clipPath><radialGradient gradientTransform="matrix(1.006881, 0, 0, 0.993119, 230.554141, 254.758128)" gradientUnits="userSpaceOnUse" r="500.800581" cx="0" id="5f5747fcc0" cy="0" fx="0" fy="0"><stop stop-opacity="1" stop-color="rgb(100%, 54.499817%, 92.498779%)" offset="0"/><stop stop-opacity="1" stop-color="rgb(100%, 54.499817%, 92.498779%)" offset="0.25"/><stop stop-opacity="1" stop-color="rgb(100%, 54.542542%, 92.62085%)" offset="0.296875"/><stop stop-opacity="1" stop-color="rgb(100%, 54.638672%, 92.887878%)" offset="0.316406"/><stop stop-opacity="1" stop-color="rgb(100%, 54.742432%, 93.179321%)" offset="0.335938"/><stop stop-opacity="1" stop-color="rgb(100%, 54.846191%, 93.470764%)" offset="0.355469"/><stop stop-opacity="1" stop-color="rgb(100%, 54.951477%, 93.760681%)" offset="0.375"/><stop stop-opacity="1" stop-color="rgb(100%, 55.044556%, 94.023132%)" offset="0.394531"/><stop stop-opacity="1" stop-color="rgb(100%, 55.128479%, 94.255066%)" offset="0.410156"/><stop stop-opacity="1" stop-color="rgb(100%, 55.210876%, 94.488525%)" offset="0.425781"/><stop stop-opacity="1" stop-color="rgb(100%, 55.2948%, 94.720459%)" offset="0.441406"/><stop stop-opacity="1" stop-color="rgb(100%, 55.377197%, 94.953918%)" offset="0.457031"/><stop stop-opacity="1" stop-color="rgb(100%, 55.461121%, 95.185852%)" offset="0.472656"/><stop stop-opacity="1" stop-color="rgb(100%, 55.545044%, 95.417786%)" offset="0.488281"/><stop stop-opacity="1" stop-color="rgb(100%, 55.61676%, 95.622253%)" offset="0.503906"/><stop stop-opacity="1" stop-color="rgb(100%, 55.679321%, 95.796204%)" offset="0.515625"/><stop stop-opacity="1" stop-color="rgb(100%, 55.741882%, 95.97168%)" offset="0.527344"/><stop stop-opacity="1" stop-color="rgb(100%, 55.804443%, 96.14563%)" offset="0.539062"/><stop stop-opacity="1" stop-color="rgb(100%, 55.867004%, 96.31958%)" offset="0.550781"/><stop stop-opacity="1" stop-color="rgb(100%, 55.929565%, 96.495056%)" offset="0.5625"/><stop stop-opacity="1" stop-color="rgb(100%, 56.02417%, 96.755981%)" offset="0.574219"/><stop stop-opacity="1" stop-color="rgb(100%, 56.149292%, 97.105408%)" offset="0.597656"/><stop stop-opacity="1" stop-color="rgb(100%, 56.274414%, 97.453308%)" offset="0.621094"/><stop stop-opacity="1" stop-color="rgb(100%, 56.388855%, 97.773743%)" offset="0.644531"/><stop stop-opacity="1" stop-color="rgb(100%, 56.492615%, 98.065186%)" offset="0.664062"/><stop stop-opacity="1" stop-color="rgb(100%, 56.596375%, 98.355103%)" offset="0.683594"/><stop stop-opacity="1" stop-color="rgb(100%, 56.690979%, 98.617554%)" offset="0.703125"/><stop stop-opacity="1" stop-color="rgb(100%, 56.773376%, 98.849487%)" offset="0.71875"/><stop stop-opacity="1" stop-color="rgb(100%, 56.8573%, 99.082947%)" offset="0.734375"/><stop stop-opacity="1" stop-color="rgb(100%, 56.898499%, 99.198914%)" offset="1"/></radialGradient></defs><g clip-path="url(#a8a64c1c9a)"><g clip-path="url(#58d66a1fed)"><g clip-path="url(#ad8f59024d)"><path fill="url(#5f5747fcc0)" d="M 0 184.714844 L 0 583.191406 L 767.996094 583.191406 L 767.996094 184.714844 Z M 0 184.714844 " fill-rule="nonzero"/></g></g></g><path fill="#ffffff" d="M 383.996094 568.394531 C 587.789062 568.394531 752.996094 485.820312 752.996094 383.953125 C 752.996094 282.085938 587.789062 199.511719 383.996094 199.511719 C 180.207031 199.511719 15 282.085938 15 383.953125 C 15 485.820312 180.207031 568.394531 383.996094 568.394531 " fill-opacity="1" fill-rule="nonzero"/><path fill="#ffffff" d="M 208.625 406.816406 C 225.378906 406.816406 237.890625 403.769531 245.804688 397.761719 C 253.632812 391.816406 259.042969 381.511719 261.878906 367.140625 C 264.519531 353.707031 263.511719 344.328125 258.886719 339.265625 C 254.152344 334.09375 243.921875 331.472656 228.480469 331.472656 L 201.703125 331.472656 L 186.855469 406.816406 Z M 121.039062 499.632812 C 119.796875 499.632812 118.617188 499.082031 117.828125 498.136719 C 117.429688 497.660156 117.15625 497.128906 117.003906 496.53125 C 116.851562 495.9375 116.832031 495.339844 116.953125 494.738281 L 156.296875 295.074219 C 156.386719 294.605469 156.558594 294.167969 156.804688 293.757812 C 157.054688 293.347656 157.363281 292.992188 157.738281 292.6875 C 158.109375 292.386719 158.523438 292.152344 158.980469 291.992188 C 159.433594 291.832031 159.902344 291.75 160.386719 291.75 L 245.183594 291.75 C 271.832031 291.75 291.667969 298.875 304.136719 312.964844 C 316.671875 327.117188 320.542969 346.902344 315.640625 371.761719 C 313.648438 381.890625 310.214844 391.296875 305.445312 399.722656 C 300.667969 408.152344 294.359375 415.957031 286.683594 422.914062 C 277.496094 431.398438 267.09375 437.546875 255.800781 441.167969 C 244.683594 444.738281 230.410156 446.550781 213.371094 446.550781 L 179.035156 446.550781 L 169.230469 496.308594 C 169.140625 496.777344 168.96875 497.214844 168.722656 497.625 C 168.476562 498.035156 168.164062 498.390625 167.792969 498.695312 C 167.417969 499 167.003906 499.230469 166.550781 499.390625 C 166.09375 499.554688 165.625 499.632812 165.140625 499.632812 L 121.03125 499.632812 Z M 121.039062 499.632812 " fill-opacity="1" fill-rule="nonzero"/><path fill="#ff8bec" d="M 205.136719 335.582031 L 228.480469 335.582031 C 247.121094 335.582031 253.597656 339.617188 255.796875 342.019531 C 259.445312 346.011719 260.136719 354.429688 257.789062 366.359375 C 255.152344 379.714844 250.269531 389.1875 243.265625 394.503906 C 236.097656 399.949219 224.441406 402.707031 208.625 402.707031 L 191.917969 402.707031 L 205.144531 335.582031 Z M 245.179688 287.636719 L 160.386719 287.636719 C 159.90625 287.636719 159.433594 287.675781 158.957031 287.757812 C 158.484375 287.839844 158.023438 287.960938 157.574219 288.121094 C 157.121094 288.28125 156.6875 288.476562 156.269531 288.710938 C 155.851562 288.945312 155.457031 289.210938 155.089844 289.511719 C 154.71875 289.8125 154.375 290.144531 154.0625 290.503906 C 153.75 290.863281 153.472656 291.246094 153.226562 291.652344 C 152.980469 292.058594 152.773438 292.484375 152.601562 292.925781 C 152.433594 293.367188 152.300781 293.820312 152.207031 294.285156 L 112.867188 493.960938 C 112.75 494.558594 112.699219 495.15625 112.714844 495.761719 C 112.734375 496.371094 112.820312 496.964844 112.96875 497.554688 C 113.121094 498.140625 113.335938 498.703125 113.613281 499.246094 C 113.890625 499.785156 114.226562 500.289062 114.617188 500.757812 C 115.007812 501.226562 115.445312 501.644531 115.929688 502.015625 C 116.414062 502.390625 116.933594 502.703125 117.492188 502.964844 C 118.046875 503.222656 118.625 503.417969 119.222656 503.550781 C 119.824219 503.683594 120.429688 503.75 121.046875 503.75 L 165.140625 503.75 C 165.621094 503.75 166.097656 503.707031 166.570312 503.628906 C 167.042969 503.546875 167.507812 503.425781 167.957031 503.265625 C 168.410156 503.105469 168.84375 502.910156 169.261719 502.675781 C 169.679688 502.441406 170.074219 502.171875 170.441406 501.871094 C 170.8125 501.570312 171.15625 501.242188 171.46875 500.882812 C 171.78125 500.523438 172.058594 500.140625 172.304688 499.730469 C 172.550781 499.324219 172.757812 498.902344 172.929688 498.457031 C 173.101562 498.015625 173.230469 497.5625 173.324219 497.097656 L 182.472656 450.664062 L 213.375 450.664062 C 230.851562 450.664062 245.5625 448.785156 257.097656 445.082031 C 268.957031 441.277344 279.875 434.832031 289.53125 425.925781 C 297.523438 418.675781 304.117188 410.539062 309.089844 401.734375 C 314.058594 392.933594 317.65625 383.113281 319.738281 372.554688 C 324.898438 346.382812 320.707031 325.425781 307.28125 310.269531 C 293.984375 295.257812 273.09375 287.648438 245.1875 287.648438 M 181.808594 410.9375 L 208.632812 410.9375 C 226.410156 410.9375 239.65625 407.636719 248.355469 401.027344 C 257.054688 394.421875 262.925781 383.390625 265.976562 367.9375 C 268.894531 353.097656 267.566406 342.625 261.992188 336.523438 C 256.417969 330.421875 245.242188 327.375 228.492188 327.375 L 198.277344 327.375 L 181.8125 410.9375 M 245.191406 295.867188 C 270.699219 295.867188 289.308594 302.46875 301.007812 315.675781 C 312.703125 328.878906 316.222656 347.316406 311.558594 370.984375 C 309.636719 380.734375 306.386719 389.648438 301.816406 397.722656 C 297.242188 405.800781 291.257812 413.195312 283.867188 419.894531 C 275.0625 428.023438 265.28125 433.8125 254.515625 437.265625 C 243.753906 440.722656 230.042969 442.445312 213.378906 442.445312 L 175.605469 442.445312 L 165.148438 495.53125 L 121.050781 495.53125 L 160.398438 295.882812 L 245.195312 295.882812 " fill-opacity="1" fill-rule="nonzero"/><path fill="#ffffff" d="M 416.746094 446.542969 C 415.503906 446.542969 414.324219 445.996094 413.535156 445.046875 C 412.742188 444.101562 412.417969 442.855469 412.660156 441.648438 L 430.0625 353.304688 C 431.714844 344.902344 431.308594 338.875 428.914062 336.324219 C 427.445312 334.769531 423.039062 332.15625 410.015625 332.15625 L 378.484375 332.15625 L 356.601562 443.214844 C 356.507812 443.683594 356.339844 444.125 356.09375 444.535156 C 355.84375 444.941406 355.535156 445.300781 355.164062 445.601562 C 354.789062 445.90625 354.375 446.140625 353.917969 446.300781 C 353.464844 446.460938 352.996094 446.542969 352.511719 446.542969 L 308.761719 446.542969 C 308.453125 446.542969 308.152344 446.507812 307.851562 446.441406 C 307.550781 446.375 307.261719 446.277344 306.984375 446.148438 C 306.707031 446.019531 306.445312 445.863281 306.203125 445.675781 C 305.960938 445.492188 305.742188 445.28125 305.546875 445.046875 C 305.351562 444.8125 305.183594 444.5625 305.046875 444.289062 C 304.90625 444.019531 304.800781 443.738281 304.722656 443.445312 C 304.648438 443.152344 304.605469 442.851562 304.597656 442.550781 C 304.589844 442.246094 304.613281 441.945312 304.671875 441.648438 L 344.015625 241.988281 C 344.109375 241.519531 344.277344 241.078125 344.523438 240.667969 C 344.773438 240.261719 345.082031 239.902344 345.457031 239.601562 C 345.828125 239.296875 346.242188 239.066406 346.699219 238.902344 C 347.152344 238.742188 347.621094 238.660156 348.105469 238.660156 L 391.855469 238.660156 C 392.164062 238.660156 392.464844 238.695312 392.765625 238.761719 C 393.066406 238.828125 393.355469 238.925781 393.632812 239.054688 C 393.910156 239.183594 394.171875 239.339844 394.414062 239.527344 C 394.65625 239.714844 394.875 239.921875 395.070312 240.15625 C 395.265625 240.390625 395.433594 240.644531 395.574219 240.914062 C 395.710938 241.183594 395.820312 241.464844 395.894531 241.757812 C 395.96875 242.054688 396.011719 242.351562 396.019531 242.65625 C 396.03125 242.957031 396.003906 243.257812 395.945312 243.554688 L 386.453125 291.746094 L 420.371094 291.746094 C 446.210938 291.746094 463.730469 296.238281 473.941406 305.484375 C 484.355469 314.914062 487.589844 329.988281 483.589844 350.304688 L 465.28125 443.21875 C 465.191406 443.6875 465.019531 444.125 464.773438 444.535156 C 464.527344 444.945312 464.214844 445.300781 463.84375 445.605469 C 463.46875 445.910156 463.054688 446.140625 462.601562 446.304688 C 462.144531 446.464844 461.675781 446.542969 461.191406 446.542969 Z M 416.746094 446.542969 " fill-opacity="1" fill-rule="nonzero"/><path fill="#ff8bec" d="M 391.859375 234.550781 L 348.109375 234.550781 C 347.628906 234.550781 347.152344 234.59375 346.679688 234.675781 C 346.207031 234.753906 345.746094 234.875 345.292969 235.035156 C 344.839844 235.195312 344.40625 235.390625 343.988281 235.625 C 343.574219 235.859375 343.179688 236.128906 342.808594 236.429688 C 342.4375 236.730469 342.097656 237.058594 341.785156 237.417969 C 341.472656 237.777344 341.191406 238.160156 340.945312 238.570312 C 340.703125 238.976562 340.492188 239.398438 340.324219 239.84375 C 340.152344 240.285156 340.019531 240.738281 339.929688 241.203125 L 300.585938 440.867188 C 300.46875 441.460938 300.417969 442.0625 300.433594 442.667969 C 300.453125 443.273438 300.535156 443.867188 300.6875 444.457031 C 300.839844 445.042969 301.054688 445.609375 301.332031 446.148438 C 301.609375 446.6875 301.945312 447.195312 302.335938 447.660156 C 302.726562 448.128906 303.164062 448.546875 303.648438 448.921875 C 304.132812 449.292969 304.65625 449.609375 305.210938 449.867188 C 305.765625 450.125 306.34375 450.320312 306.945312 450.453125 C 307.542969 450.585938 308.148438 450.652344 308.765625 450.652344 L 352.515625 450.652344 C 352.996094 450.652344 353.472656 450.609375 353.945312 450.53125 C 354.417969 450.449219 354.878906 450.328125 355.332031 450.167969 C 355.78125 450.007812 356.214844 449.8125 356.632812 449.578125 C 357.050781 449.34375 357.445312 449.074219 357.816406 448.773438 C 358.183594 448.472656 358.527344 448.144531 358.839844 447.785156 C 359.152344 447.425781 359.429688 447.042969 359.675781 446.636719 C 359.921875 446.226562 360.128906 445.804688 360.300781 445.363281 C 360.472656 444.917969 360.601562 444.464844 360.695312 444 L 381.921875 336.265625 L 410.019531 336.265625 C 423.023438 336.265625 425.75 339.003906 425.859375 339.125 C 426.648438 339.957031 427.6875 343.835938 425.976562 352.519531 L 408.574219 440.867188 C 408.457031 441.460938 408.40625 442.0625 408.421875 442.667969 C 408.441406 443.273438 408.523438 443.871094 408.675781 444.457031 C 408.828125 445.042969 409.042969 445.609375 409.320312 446.148438 C 409.597656 446.6875 409.933594 447.195312 410.324219 447.660156 C 410.714844 448.128906 411.152344 448.546875 411.636719 448.921875 C 412.121094 449.292969 412.644531 449.609375 413.199219 449.867188 C 413.753906 450.125 414.332031 450.320312 414.933594 450.453125 C 415.53125 450.585938 416.136719 450.652344 416.753906 450.652344 L 461.195312 450.652344 C 461.675781 450.652344 462.152344 450.609375 462.625 450.53125 C 463.097656 450.449219 463.5625 450.328125 464.011719 450.167969 C 464.464844 450.007812 464.898438 449.8125 465.316406 449.578125 C 465.734375 449.34375 466.128906 449.074219 466.496094 448.773438 C 466.867188 448.472656 467.210938 448.144531 467.523438 447.785156 C 467.835938 447.425781 468.113281 447.042969 468.359375 446.636719 C 468.605469 446.226562 468.8125 445.804688 468.984375 445.363281 C 469.15625 444.917969 469.285156 444.464844 469.378906 444 L 487.683594 351.085938 C 491.980469 329.277344 488.304688 312.917969 476.765625 302.457031 C 465.753906 292.484375 447.3125 287.632812 420.378906 287.632812 L 391.511719 287.632812 L 400.042969 244.339844 C 400.160156 243.742188 400.210938 243.144531 400.191406 242.539062 C 400.175781 241.929688 400.089844 241.335938 399.941406 240.746094 C 399.789062 240.160156 399.574219 239.59375 399.296875 239.054688 C 399.019531 238.515625 398.683594 238.007812 398.292969 237.542969 C 397.902344 237.074219 397.464844 236.652344 396.980469 236.28125 C 396.492188 235.910156 395.972656 235.59375 395.417969 235.335938 C 394.863281 235.078125 394.285156 234.882812 393.683594 234.75 C 393.085938 234.617188 392.476562 234.550781 391.863281 234.550781 M 391.863281 242.769531 L 381.40625 295.855469 L 420.378906 295.855469 C 444.902344 295.855469 461.816406 300.074219 471.128906 308.507812 C 480.441406 316.941406 483.226562 330.617188 479.507812 349.519531 L 461.203125 442.433594 L 416.757812 442.433594 L 434.160156 354.089844 C 436.140625 344.042969 435.414062 337.1875 431.972656 333.53125 C 428.535156 329.875 421.214844 328.046875 410.023438 328.046875 L 375.050781 328.046875 L 352.515625 442.433594 L 308.765625 442.433594 L 348.109375 242.769531 L 391.859375 242.769531 " fill-opacity="1" fill-rule="nonzero"/><path fill="#ffffff" d="M 552.816406 406.816406 C 569.574219 406.816406 582.082031 403.769531 589.996094 397.761719 C 597.828125 391.816406 603.234375 381.515625 606.070312 367.140625 C 608.714844 353.707031 607.707031 344.328125 603.078125 339.265625 C 598.347656 334.09375 588.117188 331.472656 572.671875 331.472656 L 545.894531 331.472656 L 531.046875 406.816406 Z M 465.230469 499.628906 C 463.988281 499.628906 462.808594 499.078125 462.015625 498.132812 C 461.621094 497.65625 461.347656 497.125 461.191406 496.527344 C 461.039062 495.933594 461.023438 495.335938 461.140625 494.734375 L 500.484375 295.070312 C 500.578125 294.601562 500.746094 294.164062 500.992188 293.753906 C 501.242188 293.34375 501.550781 292.988281 501.925781 292.683594 C 502.296875 292.382812 502.710938 292.148438 503.167969 291.988281 C 503.621094 291.828125 504.09375 291.746094 504.574219 291.746094 L 589.371094 291.746094 C 616.023438 291.746094 635.855469 298.871094 648.328125 312.960938 C 660.859375 327.113281 664.730469 346.894531 659.832031 371.757812 C 657.832031 381.886719 654.402344 391.292969 649.632812 399.71875 C 644.855469 408.148438 638.542969 415.949219 630.871094 422.910156 C 621.679688 431.390625 611.28125 437.542969 599.988281 441.164062 C 588.871094 444.734375 574.597656 446.546875 557.558594 446.546875 L 523.199219 446.546875 L 513.398438 496.304688 C 513.304688 496.773438 513.132812 497.210938 512.886719 497.621094 C 512.640625 498.03125 512.328125 498.386719 511.957031 498.691406 C 511.582031 498.996094 511.167969 499.226562 510.714844 499.386719 C 510.257812 499.550781 509.789062 499.628906 509.304688 499.628906 L 465.207031 499.628906 Z M 465.230469 499.628906 " fill-opacity="1" fill-rule="nonzero"/><path fill="#ff8bec" d="M 549.328125 335.582031 L 572.675781 335.582031 C 591.3125 335.582031 597.789062 339.617188 599.988281 342.019531 C 603.640625 346.011719 604.328125 354.429688 601.980469 366.359375 C 599.347656 379.714844 594.457031 389.1875 587.457031 394.503906 C 580.289062 399.949219 568.632812 402.707031 552.820312 402.707031 L 536.105469 402.707031 L 549.332031 335.582031 Z M 589.371094 287.636719 L 504.574219 287.636719 C 504.09375 287.636719 503.617188 287.675781 503.144531 287.757812 C 502.671875 287.839844 502.210938 287.960938 501.757812 288.121094 C 501.308594 288.28125 500.871094 288.476562 500.457031 288.710938 C 500.039062 288.945312 499.644531 289.210938 499.273438 289.511719 C 498.90625 289.8125 498.5625 290.144531 498.25 290.503906 C 497.9375 290.863281 497.660156 291.246094 497.414062 291.652344 C 497.167969 292.058594 496.960938 292.484375 496.789062 292.925781 C 496.617188 293.367188 496.488281 293.820312 496.394531 294.285156 L 457.046875 493.960938 C 456.929688 494.558594 456.882812 495.15625 456.898438 495.761719 C 456.917969 496.371094 457 496.964844 457.152344 497.554688 C 457.304688 498.140625 457.519531 498.703125 457.796875 499.246094 C 458.074219 499.785156 458.40625 500.289062 458.796875 500.757812 C 459.191406 501.226562 459.628906 501.644531 460.113281 502.015625 C 460.597656 502.390625 461.117188 502.703125 461.671875 502.964844 C 462.230469 503.222656 462.808594 503.417969 463.40625 503.550781 C 464.007812 503.683594 464.613281 503.75 465.226562 503.75 L 509.324219 503.75 C 509.804688 503.75 510.28125 503.707031 510.753906 503.628906 C 511.226562 503.546875 511.6875 503.425781 512.140625 503.265625 C 512.59375 503.105469 513.027344 502.910156 513.445312 502.675781 C 513.859375 502.441406 514.253906 502.171875 514.625 501.871094 C 514.996094 501.570312 515.335938 501.242188 515.648438 500.882812 C 515.960938 500.523438 516.242188 500.140625 516.488281 499.730469 C 516.730469 499.324219 516.941406 498.902344 517.109375 498.457031 C 517.28125 498.015625 517.414062 497.5625 517.503906 497.097656 L 526.652344 450.664062 L 557.554688 450.664062 C 575.03125 450.664062 589.742188 448.785156 601.277344 445.082031 C 613.140625 441.277344 624.054688 434.832031 633.71875 425.921875 C 641.707031 418.675781 648.285156 410.539062 653.269531 401.734375 C 658.253906 392.933594 661.839844 383.113281 663.917969 372.554688 C 669.078125 346.382812 664.886719 325.425781 651.460938 310.269531 C 638.167969 295.257812 617.277344 287.648438 589.371094 287.648438 M 525.992188 410.9375 L 552.816406 410.9375 C 570.59375 410.9375 583.835938 407.636719 592.535156 401.027344 C 601.238281 394.421875 607.109375 383.390625 610.160156 367.9375 C 613.078125 353.097656 611.75 342.625 606.171875 336.523438 C 600.597656 330.421875 589.421875 327.375 572.671875 327.375 L 542.460938 327.375 L 525.992188 410.9375 M 589.371094 295.867188 C 614.882812 295.867188 633.492188 302.46875 645.1875 315.675781 C 656.882812 328.878906 660.40625 347.316406 655.738281 370.984375 C 653.816406 380.734375 650.570312 389.648438 645.996094 397.722656 C 641.421875 405.800781 635.4375 413.195312 628.050781 419.894531 C 619.242188 428.023438 609.460938 433.8125 598.699219 437.265625 C 587.933594 440.722656 574.226562 442.445312 557.558594 442.445312 L 519.785156 442.445312 L 509.328125 495.53125 L 465.230469 495.53125 L 504.574219 295.867188 L 589.371094 295.867188 " fill-opacity="1" fill-rule="nonzero"/></svg>