<svg xmlns="http://www.w3.org/2000/svg" xmlns:xlink="http://www.w3.org/1999/xlink" width="1024" zoomAndPan="magnify" viewBox="0 0 768 767.999994" height="1024" preserveAspectRatio="xMidYMid meet" version="1.0"><path fill="#ff91fd" d="M 230.398438 614.398438 L 115.199219 614.398438 C 113.316406 614.398438 111.429688 614.351562 109.550781 614.253906 C 107.667969 614.160156 105.789062 614.019531 103.910156 613.835938 C 102.035156 613.648438 100.167969 613.417969 98.300781 613.136719 C 96.4375 612.859375 94.582031 612.535156 92.734375 612.167969 C 90.886719 611.796875 89.046875 611.382812 87.21875 610.925781 C 85.390625 610.464844 83.574219 609.960938 81.773438 609.414062 C 79.96875 608.867188 78.179688 608.273438 76.40625 607.636719 C 74.632812 607 72.875 606.324219 71.132812 605.601562 C 69.390625 604.878906 67.667969 604.113281 65.964844 603.308594 C 64.261719 602.5 62.578125 601.652344 60.917969 600.761719 C 59.257812 599.875 57.617188 598.945312 56 597.976562 C 54.382812 597.007812 52.792969 595.996094 51.226562 594.949219 C 49.660156 593.902344 48.117188 592.816406 46.605469 591.695312 C 45.089844 590.570312 43.605469 589.410156 42.148438 588.214844 C 40.691406 587.019531 39.265625 585.789062 37.867188 584.523438 C 36.472656 583.257812 35.109375 581.957031 33.773438 580.625 C 32.441406 579.292969 31.144531 577.925781 29.878906 576.53125 C 28.609375 575.136719 27.378906 573.707031 26.183594 572.25 C 24.988281 570.792969 23.828125 569.308594 22.707031 567.796875 C 21.582031 566.28125 20.496094 564.742188 19.449219 563.175781 C 18.402344 561.609375 17.394531 560.015625 16.425781 558.398438 C 15.453125 556.785156 14.527344 555.144531 13.636719 553.480469 C 12.746094 551.820312 11.898438 550.136719 11.09375 548.433594 C 10.285156 546.730469 9.523438 545.007812 8.800781 543.265625 C 8.078125 541.527344 7.398438 539.769531 6.761719 537.996094 C 6.125 536.21875 5.535156 534.429688 4.984375 532.628906 C 4.4375 530.824219 3.933594 529.007812 3.476562 527.179688 C 3.015625 525.351562 2.601562 523.515625 2.234375 521.667969 C 1.863281 519.816406 1.539062 517.960938 1.261719 516.097656 C 0.984375 514.234375 0.75 512.363281 0.566406 510.488281 C 0.378906 508.613281 0.238281 506.734375 0.144531 504.851562 C 0.0507812 502.96875 0 501.085938 0 499.199219 L 0 345.601562 C 0 343.714844 0.0507812 341.832031 0.144531 339.949219 C 0.238281 338.066406 0.378906 336.1875 0.566406 334.3125 C 0.75 332.4375 0.984375 330.566406 1.261719 328.703125 C 1.539062 326.839844 1.863281 324.980469 2.234375 323.132812 C 2.601562 321.285156 3.015625 319.445312 3.476562 317.617188 C 3.933594 315.792969 4.4375 313.976562 4.984375 312.171875 C 5.535156 310.367188 6.125 308.578125 6.761719 306.804688 C 7.398438 305.03125 8.078125 303.273438 8.800781 301.53125 C 9.523438 299.792969 10.285156 298.070312 11.09375 296.367188 C 11.898438 294.664062 12.746094 292.980469 13.636719 291.316406 C 14.527344 289.65625 15.453125 288.015625 16.425781 286.402344 C 17.394531 284.785156 18.402344 283.191406 19.449219 281.625 C 20.496094 280.058594 21.582031 278.519531 22.707031 277.003906 C 23.828125 275.492188 24.988281 274.003906 26.183594 272.546875 C 27.378906 271.09375 28.609375 269.664062 29.878906 268.269531 C 31.144531 266.871094 32.441406 265.507812 33.773438 264.175781 C 35.109375 262.84375 36.472656 261.542969 37.867188 260.277344 C 39.265625 259.011719 40.691406 257.78125 42.148438 256.585938 C 43.605469 255.386719 45.089844 254.230469 46.605469 253.105469 C 48.117188 251.984375 49.660156 250.898438 51.226562 249.851562 C 52.792969 248.800781 54.382812 247.792969 56 246.824219 C 57.617188 245.855469 59.257812 244.925781 60.917969 244.035156 C 62.578125 243.148438 64.261719 242.300781 65.964844 241.492188 C 67.667969 240.6875 69.390625 239.921875 71.132812 239.199219 C 72.875 238.476562 74.632812 237.796875 76.40625 237.164062 C 78.179688 236.527344 79.96875 235.933594 81.773438 235.386719 C 83.574219 234.839844 85.390625 234.335938 87.21875 233.875 C 89.046875 233.414062 90.886719 233 92.734375 232.632812 C 94.582031 232.261719 96.4375 231.941406 98.300781 231.660156 C 100.167969 231.382812 102.035156 231.152344 103.910156 230.964844 C 105.789062 230.777344 107.667969 230.636719 109.550781 230.542969 C 111.429688 230.449219 113.316406 230.402344 115.199219 230.398438 L 384 230.398438 C 385.257812 230.398438 386.511719 230.460938 387.765625 230.585938 C 389.015625 230.707031 390.257812 230.890625 391.492188 231.136719 C 392.726562 231.382812 393.945312 231.6875 395.148438 232.054688 C 396.351562 232.417969 397.53125 232.839844 398.695312 233.324219 C 399.855469 233.804688 400.992188 234.339844 402.101562 234.933594 C 403.210938 235.527344 404.289062 236.171875 405.332031 236.871094 C 406.378906 237.570312 407.386719 238.320312 408.359375 239.117188 C 409.332031 239.914062 410.261719 240.757812 411.152344 241.648438 C 412.042969 242.535156 412.886719 243.46875 413.683594 244.4375 C 414.480469 245.410156 415.230469 246.421875 415.929688 247.464844 C 416.628906 248.511719 417.273438 249.589844 417.867188 250.699219 C 418.457031 251.808594 418.996094 252.941406 419.476562 254.105469 C 419.957031 255.265625 420.382812 256.449219 420.746094 257.652344 C 421.113281 258.855469 421.417969 260.074219 421.660156 261.308594 C 421.90625 262.542969 422.089844 263.785156 422.214844 265.035156 C 422.339844 266.289062 422.398438 267.542969 422.398438 268.800781 C 422.398438 270.058594 422.339844 271.3125 422.214844 272.5625 C 422.089844 273.816406 421.90625 275.058594 421.660156 276.292969 C 421.417969 277.523438 421.113281 278.742188 420.746094 279.945312 C 420.382812 281.152344 419.957031 282.332031 419.476562 283.496094 C 418.996094 284.65625 418.457031 285.792969 417.867188 286.902344 C 417.273438 288.011719 416.628906 289.089844 415.929688 290.132812 C 415.230469 291.179688 414.480469 292.1875 413.683594 293.160156 C 412.886719 294.132812 412.042969 295.0625 411.152344 295.953125 C 410.261719 296.84375 409.332031 297.6875 408.359375 298.484375 C 407.386719 299.28125 406.378906 300.03125 405.332031 300.726562 C 404.289062 301.425781 403.210938 302.074219 402.101562 302.664062 C 400.992188 303.257812 399.855469 303.796875 398.695312 304.277344 C 397.53125 304.757812 396.351562 305.179688 395.148438 305.546875 C 393.945312 305.910156 392.726562 306.21875 391.492188 306.460938 C 390.257812 306.707031 389.015625 306.890625 387.765625 307.015625 C 386.511719 307.136719 385.257812 307.199219 384 307.199219 L 115.199219 307.199219 C 113.941406 307.199219 112.6875 307.261719 111.4375 307.386719 C 110.183594 307.507812 108.941406 307.691406 107.707031 307.9375 C 106.476562 308.183594 105.257812 308.488281 104.054688 308.855469 C 102.847656 309.21875 101.667969 309.640625 100.503906 310.125 C 99.34375 310.605469 98.207031 311.140625 97.097656 311.734375 C 95.988281 312.328125 94.910156 312.972656 93.867188 313.671875 C 92.820312 314.371094 91.8125 315.117188 90.839844 315.917969 C 89.867188 316.714844 88.9375 317.558594 88.046875 318.445312 C 87.15625 319.335938 86.3125 320.265625 85.515625 321.238281 C 84.71875 322.210938 83.96875 323.21875 83.273438 324.265625 C 82.574219 325.3125 81.925781 326.390625 81.335938 327.5 C 80.742188 328.609375 80.203125 329.742188 79.722656 330.90625 C 79.242188 332.066406 78.820312 333.25 78.453125 334.453125 C 78.089844 335.65625 77.78125 336.875 77.539062 338.109375 C 77.292969 339.34375 77.109375 340.585938 76.984375 341.835938 C 76.863281 343.085938 76.800781 344.34375 76.800781 345.601562 L 76.800781 499.199219 C 76.800781 500.457031 76.863281 501.710938 76.984375 502.964844 C 77.109375 504.214844 77.292969 505.457031 77.539062 506.691406 C 77.78125 507.925781 78.089844 509.144531 78.453125 510.347656 C 78.820312 511.550781 79.242188 512.734375 79.722656 513.894531 C 80.203125 515.058594 80.742188 516.191406 81.335938 517.300781 C 81.925781 518.410156 82.574219 519.488281 83.273438 520.535156 C 83.96875 521.578125 84.71875 522.589844 85.515625 523.5625 C 86.3125 524.53125 87.15625 525.464844 88.046875 526.351562 C 88.9375 527.242188 89.867188 528.085938 90.839844 528.882812 C 91.8125 529.679688 92.820312 530.429688 93.867188 531.128906 C 94.910156 531.828125 95.988281 532.472656 97.097656 533.066406 C 98.207031 533.660156 99.34375 534.195312 100.503906 534.675781 C 101.667969 535.160156 102.847656 535.582031 104.054688 535.945312 C 105.257812 536.3125 106.476562 536.617188 107.707031 536.863281 C 108.941406 537.109375 110.183594 537.292969 111.4375 537.414062 C 112.6875 537.539062 113.941406 537.601562 115.199219 537.601562 L 230.398438 537.601562 C 231.65625 537.601562 232.914062 537.660156 234.164062 537.785156 C 235.414062 537.90625 236.65625 538.09375 237.890625 538.335938 C 239.125 538.582031 240.34375 538.886719 241.546875 539.253906 C 242.75 539.617188 243.933594 540.042969 245.09375 540.523438 C 246.257812 541.003906 247.390625 541.542969 248.5 542.132812 C 249.609375 542.726562 250.6875 543.371094 251.734375 544.070312 C 252.78125 544.769531 253.789062 545.519531 254.761719 546.316406 C 255.734375 547.113281 256.664062 547.957031 257.554688 548.847656 C 258.441406 549.738281 259.285156 550.667969 260.082031 551.640625 C 260.882812 552.613281 261.628906 553.621094 262.328125 554.667969 C 263.027344 555.710938 263.671875 556.789062 264.265625 557.898438 C 264.859375 559.007812 265.394531 560.144531 265.875 561.304688 C 266.359375 562.46875 266.78125 563.648438 267.144531 564.851562 C 267.511719 566.054688 267.816406 567.273438 268.0625 568.507812 C 268.308594 569.742188 268.492188 570.984375 268.613281 572.234375 C 268.738281 573.488281 268.800781 574.742188 268.800781 576 C 268.800781 577.257812 268.738281 578.511719 268.613281 579.765625 C 268.492188 581.015625 268.308594 582.257812 268.0625 583.492188 C 267.816406 584.726562 267.511719 585.945312 267.144531 587.148438 C 266.78125 588.351562 266.359375 589.53125 265.875 590.695312 C 265.394531 591.855469 264.859375 592.992188 264.265625 594.101562 C 263.671875 595.210938 263.027344 596.289062 262.328125 597.332031 C 261.628906 598.378906 260.882812 599.386719 260.082031 600.359375 C 259.285156 601.332031 258.441406 602.261719 257.554688 603.152344 C 256.664062 604.042969 255.734375 604.886719 254.761719 605.683594 C 253.789062 606.480469 252.78125 607.230469 251.734375 607.929688 C 250.6875 608.628906 249.609375 609.273438 248.5 609.867188 C 247.390625 610.457031 246.257812 610.996094 245.09375 611.476562 C 243.933594 611.957031 242.75 612.382812 241.546875 612.746094 C 240.34375 613.113281 239.125 613.417969 237.890625 613.660156 C 236.65625 613.90625 235.414062 614.089844 234.164062 614.214844 C 232.914062 614.339844 231.65625 614.398438 230.398438 614.398438 Z M 230.398438 614.398438 " fill-opacity="1" fill-rule="nonzero"/><path fill="#ff91fd" d="M 652.800781 537.601562 L 384 537.601562 C 382.742188 537.601562 381.488281 537.539062 380.234375 537.414062 C 378.984375 537.292969 377.742188 537.109375 376.507812 536.863281 C 375.273438 536.617188 374.054688 536.3125 372.851562 535.945312 C 371.648438 535.582031 370.46875 535.160156 369.304688 534.675781 C 368.144531 534.195312 367.007812 533.660156 365.898438 533.066406 C 364.789062 532.472656 363.710938 531.828125 362.667969 531.128906 C 361.621094 530.429688 360.613281 529.679688 359.640625 528.882812 C 358.667969 528.085938 357.738281 527.242188 356.847656 526.351562 C 355.957031 525.464844 355.113281 524.53125 354.316406 523.5625 C 353.519531 522.589844 352.769531 521.578125 352.070312 520.535156 C 351.371094 519.488281 350.726562 518.410156 350.132812 517.300781 C 349.542969 516.191406 349.003906 515.058594 348.523438 513.894531 C 348.042969 512.734375 347.617188 511.550781 347.253906 510.347656 C 346.886719 509.144531 346.582031 507.925781 346.335938 506.691406 C 346.09375 505.457031 345.90625 504.214844 345.785156 502.964844 C 345.660156 501.710938 345.601562 500.457031 345.601562 499.199219 C 345.601562 497.941406 345.660156 496.6875 345.785156 495.4375 C 345.90625 494.183594 346.09375 492.941406 346.335938 491.707031 C 346.582031 490.476562 346.886719 489.257812 347.253906 488.054688 C 347.617188 486.847656 348.042969 485.667969 348.523438 484.503906 C 349.003906 483.34375 349.542969 482.207031 350.132812 481.097656 C 350.726562 479.988281 351.371094 478.910156 352.070312 477.867188 C 352.769531 476.820312 353.519531 475.8125 354.316406 474.839844 C 355.113281 473.867188 355.957031 472.9375 356.847656 472.046875 C 357.738281 471.15625 358.667969 470.3125 359.640625 469.515625 C 360.613281 468.71875 361.621094 467.96875 362.667969 467.273438 C 363.710938 466.574219 364.789062 465.925781 365.898438 465.335938 C 367.007812 464.742188 368.144531 464.203125 369.304688 463.722656 C 370.46875 463.242188 371.648438 462.820312 372.851562 462.453125 C 374.054688 462.089844 375.273438 461.78125 376.507812 461.539062 C 377.742188 461.292969 378.984375 461.109375 380.234375 460.984375 C 381.488281 460.863281 382.742188 460.800781 384 460.800781 L 652.800781 460.800781 C 654.058594 460.800781 655.3125 460.738281 656.5625 460.613281 C 657.816406 460.492188 659.058594 460.308594 660.292969 460.0625 C 661.523438 459.816406 662.742188 459.511719 663.945312 459.144531 C 665.148438 458.78125 666.332031 458.359375 667.496094 457.875 C 668.65625 457.394531 669.792969 456.859375 670.902344 456.265625 C 672.011719 455.671875 673.089844 455.027344 674.132812 454.328125 C 675.179688 453.628906 676.1875 452.882812 677.160156 452.082031 C 678.132812 451.285156 679.0625 450.441406 679.953125 449.554688 C 680.84375 448.664062 681.6875 447.734375 682.484375 446.761719 C 683.28125 445.789062 684.03125 444.78125 684.726562 443.734375 C 685.425781 442.6875 686.074219 441.609375 686.664062 440.5 C 687.257812 439.390625 687.796875 438.257812 688.277344 437.09375 C 688.757812 435.933594 689.179688 434.75 689.546875 433.546875 C 689.910156 432.34375 690.214844 431.125 690.460938 429.890625 C 690.707031 428.65625 690.890625 427.414062 691.015625 426.164062 C 691.136719 424.914062 691.199219 423.65625 691.199219 422.398438 L 691.199219 268.800781 C 691.199219 267.542969 691.136719 266.289062 691.015625 265.035156 C 690.890625 263.785156 690.707031 262.542969 690.460938 261.308594 C 690.214844 260.074219 689.910156 258.855469 689.546875 257.652344 C 689.179688 256.449219 688.757812 255.265625 688.277344 254.105469 C 687.796875 252.941406 687.257812 251.808594 686.664062 250.699219 C 686.074219 249.589844 685.425781 248.511719 684.726562 247.464844 C 684.03125 246.421875 683.28125 245.410156 682.484375 244.4375 C 681.6875 243.46875 680.84375 242.535156 679.953125 241.648438 C 679.0625 240.757812 678.132812 239.914062 677.160156 239.117188 C 676.1875 238.320312 675.179688 237.570312 674.132812 236.871094 C 673.089844 236.171875 672.011719 235.527344 670.902344 234.933594 C 669.792969 234.339844 668.65625 233.804688 667.496094 233.324219 C 666.332031 232.839844 665.148438 232.417969 663.945312 232.054688 C 662.742188 231.6875 661.523438 231.382812 660.292969 231.136719 C 659.058594 230.890625 657.816406 230.707031 656.5625 230.585938 C 655.3125 230.460938 654.058594 230.398438 652.800781 230.398438 L 537.601562 230.398438 C 536.34375 230.398438 535.085938 230.339844 533.835938 230.214844 C 532.585938 230.09375 531.34375 229.90625 530.109375 229.664062 C 528.875 229.417969 527.65625 229.113281 526.453125 228.746094 C 525.25 228.382812 524.066406 227.957031 522.90625 227.476562 C 521.742188 226.996094 520.609375 226.457031 519.5 225.867188 C 518.390625 225.273438 517.3125 224.628906 516.265625 223.929688 C 515.21875 223.230469 514.210938 222.480469 513.238281 221.683594 C 512.265625 220.886719 511.335938 220.042969 510.445312 219.152344 C 509.558594 218.261719 508.714844 217.332031 507.917969 216.359375 C 507.117188 215.386719 506.371094 214.378906 505.671875 213.332031 C 504.972656 212.289062 504.328125 211.210938 503.734375 210.101562 C 503.140625 208.992188 502.605469 207.855469 502.121094 206.695312 C 501.640625 205.53125 501.21875 204.351562 500.851562 203.148438 C 500.488281 201.945312 500.183594 200.726562 499.9375 199.492188 C 499.691406 198.257812 499.507812 197.015625 499.386719 195.765625 C 499.261719 194.511719 499.199219 193.257812 499.199219 192 C 499.199219 190.742188 499.261719 189.488281 499.386719 188.234375 C 499.507812 186.984375 499.691406 185.742188 499.9375 184.507812 C 500.183594 183.273438 500.488281 182.054688 500.851562 180.851562 C 501.21875 179.648438 501.640625 178.46875 502.121094 177.304688 C 502.605469 176.144531 503.140625 175.007812 503.734375 173.898438 C 504.328125 172.789062 504.972656 171.710938 505.671875 170.667969 C 506.371094 169.621094 507.117188 168.613281 507.917969 167.640625 C 508.714844 166.667969 509.558594 165.738281 510.445312 164.847656 C 511.335938 163.957031 512.265625 163.113281 513.238281 162.316406 C 514.210938 161.519531 515.21875 160.769531 516.265625 160.070312 C 517.3125 159.371094 518.390625 158.726562 519.5 158.132812 C 520.609375 157.542969 521.742188 157.003906 522.90625 156.523438 C 524.066406 156.042969 525.25 155.617188 526.453125 155.253906 C 527.65625 154.886719 528.875 154.582031 530.109375 154.335938 C 531.34375 154.09375 532.585938 153.90625 533.835938 153.785156 C 535.085938 153.660156 536.34375 153.601562 537.601562 153.601562 L 652.800781 153.601562 C 654.683594 153.601562 656.570312 153.648438 658.449219 153.746094 C 660.332031 153.839844 662.210938 153.980469 664.089844 154.164062 C 665.964844 154.351562 667.832031 154.582031 669.699219 154.863281 C 671.5625 155.140625 673.417969 155.464844 675.265625 155.832031 C 677.113281 156.203125 678.953125 156.617188 680.78125 157.074219 C 682.609375 157.535156 684.425781 158.039062 686.226562 158.585938 C 688.03125 159.132812 689.820312 159.726562 691.59375 160.363281 C 693.367188 161 695.125 161.675781 696.867188 162.398438 C 698.609375 163.121094 700.332031 163.886719 702.035156 164.691406 C 703.738281 165.5 705.421875 166.347656 707.082031 167.238281 C 708.742188 168.125 710.382812 169.054688 712 170.023438 C 713.617188 170.992188 715.207031 172.003906 716.773438 173.050781 C 718.339844 174.097656 719.882812 175.183594 721.394531 176.304688 C 722.910156 177.429688 724.394531 178.589844 725.851562 179.785156 C 727.308594 180.980469 728.734375 182.210938 730.132812 183.476562 C 731.527344 184.742188 732.890625 186.042969 734.226562 187.375 C 735.558594 188.707031 736.855469 190.074219 738.121094 191.46875 C 739.390625 192.867188 740.621094 194.292969 741.816406 195.75 C 743.011719 197.207031 744.171875 198.691406 745.292969 200.203125 C 746.417969 201.71875 747.503906 203.257812 748.550781 204.824219 C 749.597656 206.390625 750.605469 207.984375 751.574219 209.601562 C 752.546875 211.214844 753.472656 212.855469 754.363281 214.519531 C 755.253906 216.179688 756.101562 217.863281 756.90625 219.566406 C 757.714844 221.269531 758.476562 222.992188 759.199219 224.734375 C 759.921875 226.472656 760.601562 228.230469 761.238281 230.003906 C 761.875 231.78125 762.464844 233.570312 763.015625 235.371094 C 763.5625 237.175781 764.066406 238.992188 764.523438 240.820312 C 764.984375 242.648438 765.398438 244.484375 765.765625 246.332031 C 766.136719 248.183594 766.460938 250.039062 766.738281 251.902344 C 767.015625 253.765625 767.25 255.636719 767.433594 257.511719 C 767.621094 259.386719 767.761719 261.265625 767.855469 263.148438 C 767.949219 265.03125 768 266.914062 768 268.800781 L 768 422.398438 C 768 424.285156 767.949219 426.167969 767.855469 428.050781 C 767.761719 429.933594 767.621094 431.8125 767.433594 433.6875 C 767.25 435.5625 767.015625 437.433594 766.738281 439.296875 C 766.460938 441.160156 766.136719 443.019531 765.765625 444.867188 C 765.398438 446.714844 764.984375 448.554688 764.523438 450.382812 C 764.066406 452.207031 763.5625 454.023438 763.011719 455.828125 C 762.464844 457.632812 761.875 459.421875 761.238281 461.195312 C 760.601562 462.96875 759.921875 464.726562 759.199219 466.46875 C 758.476562 468.207031 757.714844 469.929688 756.90625 471.632812 C 756.101562 473.335938 755.253906 475.019531 754.363281 476.683594 C 753.472656 478.34375 752.542969 479.984375 751.574219 481.597656 C 750.605469 483.214844 749.597656 484.808594 748.550781 486.375 C 747.503906 487.941406 746.417969 489.480469 745.292969 490.996094 C 744.171875 492.507812 743.011719 493.996094 741.816406 495.449219 C 740.621094 496.90625 739.390625 498.335938 738.121094 499.730469 C 736.855469 501.128906 735.558594 502.492188 734.226562 503.824219 C 732.890625 505.15625 731.527344 506.457031 730.132812 507.722656 C 728.734375 508.988281 727.308594 510.21875 725.851562 511.414062 C 724.394531 512.613281 722.910156 513.769531 721.394531 514.894531 C 719.882812 516.015625 718.339844 517.101562 716.773438 518.148438 C 715.207031 519.199219 713.617188 520.207031 712 521.175781 C 710.382812 522.144531 708.742188 523.074219 707.082031 523.964844 C 705.421875 524.851562 703.738281 525.699219 702.035156 526.507812 C 700.332031 527.3125 698.609375 528.078125 696.867188 528.800781 C 695.125 529.523438 693.367188 530.203125 691.59375 530.835938 C 689.820312 531.472656 688.03125 532.066406 686.226562 532.613281 C 684.425781 533.160156 682.609375 533.664062 680.78125 534.125 C 678.953125 534.585938 677.113281 535 675.265625 535.367188 C 673.417969 535.738281 671.5625 536.058594 669.699219 536.339844 C 667.832031 536.617188 665.964844 536.847656 664.089844 537.035156 C 662.210938 537.222656 660.332031 537.363281 658.449219 537.457031 C 656.570312 537.550781 654.683594 537.597656 652.800781 537.601562 Z M 652.800781 537.601562 " fill-opacity="1" fill-rule="nonzero"/><path fill="#ff91fd" d="M 460.800781 768 L 307.199219 768 C 305.316406 768 303.429688 767.949219 301.550781 767.855469 C 299.667969 767.761719 297.789062 767.621094 295.910156 767.433594 C 294.035156 767.25 292.167969 767.015625 290.300781 766.738281 C 288.4375 766.460938 286.582031 766.136719 284.734375 765.765625 C 282.886719 765.398438 281.046875 764.984375 279.21875 764.523438 C 277.390625 764.066406 275.574219 763.5625 273.773438 763.015625 C 271.96875 762.464844 270.179688 761.875 268.40625 761.238281 C 266.632812 760.601562 264.875 759.921875 263.132812 759.199219 C 261.390625 758.476562 259.667969 757.714844 257.964844 756.90625 C 256.261719 756.101562 254.578125 755.253906 252.917969 754.363281 C 251.257812 753.472656 249.617188 752.546875 248 751.574219 C 246.382812 750.605469 244.792969 749.597656 243.226562 748.550781 C 241.660156 747.503906 240.117188 746.417969 238.605469 745.292969 C 237.089844 744.171875 235.605469 743.011719 234.148438 741.816406 C 232.691406 740.621094 231.265625 739.390625 229.867188 738.121094 C 228.472656 736.855469 227.109375 735.558594 225.773438 734.226562 C 224.441406 732.890625 223.144531 731.527344 221.878906 730.132812 C 220.609375 728.734375 219.378906 727.308594 218.183594 725.851562 C 216.988281 724.394531 215.828125 722.910156 214.707031 721.394531 C 213.582031 719.882812 212.496094 718.339844 211.449219 716.773438 C 210.402344 715.207031 209.394531 713.617188 208.425781 712 C 207.453125 710.382812 206.527344 708.742188 205.636719 707.082031 C 204.746094 705.421875 203.898438 703.738281 203.09375 702.035156 C 202.285156 700.332031 201.523438 698.609375 200.800781 696.867188 C 200.078125 695.125 199.398438 693.367188 198.761719 691.59375 C 198.125 689.820312 197.535156 688.03125 196.984375 686.226562 C 196.4375 684.425781 195.933594 682.609375 195.476562 680.78125 C 195.015625 678.953125 194.601562 677.113281 194.234375 675.265625 C 193.863281 673.417969 193.539062 671.5625 193.261719 669.699219 C 192.984375 667.832031 192.75 665.964844 192.566406 664.089844 C 192.378906 662.210938 192.238281 660.332031 192.144531 658.449219 C 192.050781 656.570312 192 654.683594 192 652.800781 L 192 460.800781 C 192 458.914062 192.050781 457.03125 192.144531 455.148438 C 192.238281 453.265625 192.378906 451.386719 192.566406 449.511719 C 192.75 447.636719 192.984375 445.765625 193.261719 443.902344 C 193.539062 442.039062 193.863281 440.183594 194.234375 438.332031 C 194.601562 436.484375 195.015625 434.648438 195.476562 432.820312 C 195.933594 430.992188 196.4375 429.175781 196.984375 427.371094 C 197.535156 425.570312 198.125 423.78125 198.761719 422.003906 C 199.398438 420.230469 200.078125 418.472656 200.800781 416.734375 C 201.523438 414.992188 202.285156 413.269531 203.09375 411.566406 C 203.898438 409.863281 204.746094 408.179688 205.636719 406.519531 C 206.527344 404.855469 207.453125 403.214844 208.425781 401.601562 C 209.394531 399.984375 210.402344 398.390625 211.449219 396.824219 C 212.496094 395.257812 213.582031 393.71875 214.707031 392.203125 C 215.828125 390.691406 216.988281 389.207031 218.183594 387.75 C 219.378906 386.292969 220.609375 384.867188 221.878906 383.46875 C 223.144531 382.074219 224.441406 380.707031 225.773438 379.375 C 227.109375 378.042969 228.472656 376.742188 229.867188 375.476562 C 231.265625 374.210938 232.691406 372.980469 234.148438 371.785156 C 235.605469 370.589844 237.089844 369.429688 238.605469 368.304688 C 240.117188 367.183594 241.660156 366.097656 243.226562 365.050781 C 244.792969 364.003906 246.382812 362.992188 248 362.023438 C 249.617188 361.054688 251.257812 360.125 252.917969 359.238281 C 254.578125 358.347656 256.261719 357.5 257.964844 356.691406 C 259.667969 355.886719 261.390625 355.121094 263.132812 354.398438 C 264.875 353.675781 266.632812 353 268.40625 352.363281 C 270.179688 351.726562 271.96875 351.132812 273.773438 350.585938 C 275.574219 350.039062 277.390625 349.535156 279.21875 349.074219 C 281.046875 348.617188 282.886719 348.203125 284.734375 347.832031 C 286.582031 347.464844 288.4375 347.140625 290.300781 346.863281 C 292.167969 346.582031 294.035156 346.351562 295.910156 346.164062 C 297.789062 345.980469 299.667969 345.839844 301.550781 345.746094 C 303.429688 345.648438 305.316406 345.601562 307.199219 345.601562 L 460.800781 345.601562 C 462.058594 345.601562 463.3125 345.539062 464.5625 345.414062 C 465.816406 345.292969 467.058594 345.109375 468.292969 344.863281 C 469.523438 344.617188 470.742188 344.3125 471.945312 343.945312 C 473.152344 343.582031 474.332031 343.160156 475.496094 342.675781 C 476.65625 342.195312 477.792969 341.660156 478.902344 341.066406 C 480.011719 340.472656 481.089844 339.828125 482.132812 339.128906 C 483.179688 338.429688 484.1875 337.679688 485.160156 336.882812 C 486.132812 336.085938 487.0625 335.242188 487.953125 334.351562 C 488.84375 333.464844 489.6875 332.53125 490.484375 331.5625 C 491.28125 330.589844 492.03125 329.578125 492.726562 328.535156 C 493.425781 327.488281 494.074219 326.410156 494.664062 325.300781 C 495.257812 324.191406 495.796875 323.058594 496.277344 321.894531 C 496.757812 320.734375 497.179688 319.550781 497.546875 318.347656 C 497.910156 317.144531 498.214844 315.925781 498.460938 314.691406 C 498.707031 313.457031 498.890625 312.214844 499.015625 310.964844 C 499.136719 309.710938 499.199219 308.457031 499.199219 307.199219 L 499.199219 115.199219 C 499.199219 113.941406 499.136719 112.6875 499.015625 111.4375 C 498.890625 110.183594 498.707031 108.941406 498.460938 107.707031 C 498.214844 106.476562 497.910156 105.257812 497.546875 104.054688 C 497.179688 102.847656 496.757812 101.667969 496.277344 100.503906 C 495.796875 99.34375 495.257812 98.207031 494.664062 97.097656 C 494.074219 95.988281 493.425781 94.910156 492.726562 93.867188 C 492.03125 92.820312 491.28125 91.8125 490.484375 90.839844 C 489.6875 89.867188 488.84375 88.9375 487.953125 88.046875 C 487.0625 87.15625 486.132812 86.3125 485.160156 85.515625 C 484.1875 84.71875 483.179688 83.96875 482.132812 83.273438 C 481.089844 82.574219 480.011719 81.925781 478.902344 81.335938 C 477.792969 80.742188 476.65625 80.203125 475.496094 79.722656 C 474.332031 79.242188 473.152344 78.820312 471.945312 78.453125 C 470.742188 78.089844 469.523438 77.78125 468.292969 77.539062 C 467.058594 77.292969 465.816406 77.109375 464.5625 76.984375 C 463.3125 76.863281 462.058594 76.800781 460.800781 76.800781 L 307.199219 76.800781 C 305.941406 76.800781 304.6875 76.863281 303.4375 76.984375 C 302.183594 77.109375 300.941406 77.292969 299.707031 77.539062 C 298.476562 77.785156 297.257812 78.089844 296.054688 78.453125 C 294.847656 78.820312 293.667969 79.242188 292.503906 79.722656 C 291.34375 80.203125 290.207031 80.742188 289.097656 81.335938 C 287.988281 81.925781 286.910156 82.574219 285.867188 83.273438 C 284.820312 83.96875 283.8125 84.71875 282.839844 85.515625 C 281.867188 86.3125 280.9375 87.15625 280.046875 88.046875 C 279.15625 88.9375 278.3125 89.867188 277.515625 90.839844 C 276.71875 91.8125 275.96875 92.820312 275.273438 93.867188 C 274.574219 94.910156 273.925781 95.988281 273.335938 97.097656 C 272.742188 98.207031 272.203125 99.34375 271.722656 100.503906 C 271.242188 101.667969 270.820312 102.847656 270.453125 104.054688 C 270.089844 105.257812 269.785156 106.476562 269.539062 107.707031 C 269.292969 108.941406 269.109375 110.183594 268.984375 111.4375 C 268.863281 112.6875 268.800781 113.941406 268.800781 115.199219 L 268.800781 268.800781 C 268.800781 270.058594 268.738281 271.3125 268.613281 272.5625 C 268.492188 273.816406 268.308594 275.058594 268.0625 276.292969 C 267.816406 277.523438 267.511719 278.742188 267.144531 279.945312 C 266.78125 281.152344 266.359375 282.332031 265.875 283.496094 C 265.394531 284.65625 264.859375 285.792969 264.265625 286.902344 C 263.671875 288.011719 263.027344 289.089844 262.328125 290.132812 C 261.628906 291.179688 260.882812 292.1875 260.082031 293.160156 C 259.285156 294.132812 258.441406 295.0625 257.554688 295.953125 C 256.664062 296.84375 255.734375 297.6875 254.761719 298.484375 C 253.789062 299.28125 252.78125 300.03125 251.734375 300.726562 C 250.6875 301.425781 249.609375 302.074219 248.5 302.664062 C 247.390625 303.257812 246.257812 303.796875 245.09375 304.277344 C 243.933594 304.757812 242.75 305.179688 241.546875 305.546875 C 240.34375 305.910156 239.125 306.21875 237.890625 306.460938 C 236.65625 306.707031 235.414062 306.890625 234.164062 307.015625 C 232.914062 307.136719 231.65625 307.199219 230.398438 307.199219 C 229.140625 307.199219 227.886719 307.136719 226.636719 307.015625 C 225.382812 306.890625 224.140625 306.707031 222.910156 306.460938 C 221.675781 306.21875 220.457031 305.910156 219.253906 305.546875 C 218.050781 305.179688 216.867188 304.757812 215.703125 304.277344 C 214.542969 303.796875 213.40625 303.257812 212.296875 302.664062 C 211.1875 302.074219 210.113281 301.425781 209.066406 300.726562 C 208.019531 300.03125 207.011719 299.28125 206.039062 298.484375 C 205.066406 297.6875 204.136719 296.84375 203.246094 295.953125 C 202.359375 295.0625 201.515625 294.132812 200.714844 293.160156 C 199.917969 292.1875 199.171875 291.179688 198.472656 290.132812 C 197.773438 289.089844 197.128906 288.011719 196.535156 286.902344 C 195.941406 285.792969 195.402344 284.65625 194.921875 283.496094 C 194.441406 282.332031 194.019531 281.152344 193.652344 279.945312 C 193.289062 278.742188 192.984375 277.523438 192.738281 276.292969 C 192.492188 275.058594 192.308594 273.816406 192.183594 272.5625 C 192.0625 271.3125 192 270.058594 192 268.800781 L 192 115.199219 C 192 113.316406 192.050781 111.429688 192.144531 109.550781 C 192.238281 107.667969 192.378906 105.789062 192.566406 103.910156 C 192.75 102.035156 192.984375 100.167969 193.261719 98.300781 C 193.539062 96.4375 193.863281 94.582031 194.234375 92.734375 C 194.601562 90.886719 195.015625 89.046875 195.476562 87.21875 C 195.933594 85.390625 196.4375 83.574219 196.984375 81.773438 C 197.535156 79.96875 198.125 78.179688 198.761719 76.40625 C 199.398438 74.632812 200.078125 72.875 200.800781 71.132812 C 201.523438 69.390625 202.285156 67.667969 203.09375 65.964844 C 203.898438 64.261719 204.746094 62.578125 205.636719 60.917969 C 206.527344 59.257812 207.453125 57.617188 208.425781 56 C 209.394531 54.382812 210.402344 52.792969 211.449219 51.226562 C 212.496094 49.660156 213.582031 48.117188 214.707031 46.605469 C 215.828125 45.089844 216.988281 43.605469 218.183594 42.148438 C 219.378906 40.691406 220.609375 39.265625 221.878906 37.867188 C 223.144531 36.472656 224.441406 35.109375 225.773438 33.773438 C 227.109375 32.441406 228.472656 31.144531 229.867188 29.878906 C 231.265625 28.609375 232.691406 27.378906 234.148438 26.183594 C 235.605469 24.988281 237.089844 23.828125 238.605469 22.707031 C 240.117188 21.582031 241.660156 20.496094 243.226562 19.449219 C 244.792969 18.402344 246.382812 17.394531 248 16.425781 C 249.617188 15.453125 251.257812 14.527344 252.917969 13.636719 C 254.578125 12.746094 256.261719 11.898438 257.964844 11.09375 C 259.667969 10.285156 261.390625 9.523438 263.132812 8.800781 C 264.875 8.078125 266.632812 7.398438 268.40625 6.761719 C 270.179688 6.125 271.96875 5.535156 273.773438 4.984375 C 275.574219 4.4375 277.390625 3.933594 279.21875 3.476562 C 281.046875 3.015625 282.886719 2.601562 284.734375 2.234375 C 286.582031 1.863281 288.4375 1.539062 290.300781 1.261719 C 292.167969 0.984375 294.035156 0.75 295.910156 0.566406 C 297.789062 0.378906 299.667969 0.238281 301.550781 0.144531 C 303.429688 0.0507812 305.316406 0 307.199219 0 L 460.800781 0 C 462.683594 0 464.570312 0.0507812 466.449219 0.144531 C 468.332031 0.238281 470.210938 0.378906 472.089844 0.566406 C 473.964844 0.75 475.832031 0.984375 477.699219 1.261719 C 479.5625 1.539062 481.417969 1.863281 483.265625 2.234375 C 485.113281 2.601562 486.953125 3.015625 488.78125 3.476562 C 490.609375 3.933594 492.425781 4.4375 494.226562 4.984375 C 496.03125 5.535156 497.820312 6.125 499.59375 6.761719 C 501.367188 7.398438 503.125 8.078125 504.867188 8.800781 C 506.609375 9.523438 508.332031 10.285156 510.035156 11.09375 C 511.738281 11.898438 513.421875 12.746094 515.082031 13.636719 C 516.742188 14.527344 518.382812 15.453125 520 16.425781 C 521.617188 17.394531 523.207031 18.402344 524.773438 19.449219 C 526.339844 20.496094 527.882812 21.582031 529.394531 22.707031 C 530.910156 23.828125 532.394531 24.988281 533.851562 26.183594 C 535.308594 27.378906 536.734375 28.609375 538.132812 29.878906 C 539.527344 31.144531 540.890625 32.441406 542.226562 33.773438 C 543.558594 35.109375 544.855469 36.472656 546.121094 37.867188 C 547.390625 39.265625 548.621094 40.691406 549.816406 42.148438 C 551.011719 43.605469 552.171875 45.089844 553.292969 46.605469 C 554.417969 48.117188 555.503906 49.660156 556.550781 51.226562 C 557.597656 52.792969 558.605469 54.382812 559.574219 56 C 560.542969 57.617188 561.472656 59.257812 562.363281 60.917969 C 563.253906 62.578125 564.101562 64.261719 564.90625 65.964844 C 565.714844 67.667969 566.476562 69.390625 567.199219 71.132812 C 567.921875 72.875 568.601562 74.632812 569.238281 76.40625 C 569.875 78.179688 570.464844 79.96875 571.011719 81.773438 C 571.5625 83.574219 572.066406 85.390625 572.523438 87.21875 C 572.984375 89.046875 573.398438 90.886719 573.765625 92.734375 C 574.136719 94.582031 574.460938 96.4375 574.738281 98.300781 C 575.015625 100.167969 575.25 102.035156 575.433594 103.910156 C 575.621094 105.789062 575.761719 107.667969 575.855469 109.550781 C 575.949219 111.429688 576 113.316406 576 115.199219 L 576 307.199219 C 576 309.085938 575.949219 310.96875 575.855469 312.851562 C 575.761719 314.734375 575.621094 316.613281 575.433594 318.488281 C 575.25 320.363281 575.015625 322.234375 574.738281 324.097656 C 574.460938 325.960938 574.136719 327.816406 573.765625 329.667969 C 573.398438 331.515625 572.984375 333.351562 572.523438 335.179688 C 572.066406 337.007812 571.5625 338.824219 571.011719 340.628906 C 570.464844 342.429688 569.875 344.21875 569.238281 345.996094 C 568.601562 347.769531 567.921875 349.527344 567.199219 351.265625 C 566.476562 353.007812 565.714844 354.730469 564.90625 356.433594 C 564.101562 358.136719 563.253906 359.820312 562.363281 361.480469 C 561.472656 363.144531 560.542969 364.78125 559.574219 366.398438 C 558.605469 368.015625 557.597656 369.609375 556.550781 371.175781 C 555.503906 372.742188 554.417969 374.28125 553.292969 375.796875 C 552.171875 377.308594 551.011719 378.792969 549.816406 380.25 C 548.621094 381.707031 547.390625 383.132812 546.121094 384.53125 C 544.855469 385.925781 543.558594 387.292969 542.226562 388.625 C 540.890625 389.957031 539.527344 391.257812 538.132812 392.523438 C 536.734375 393.789062 535.308594 395.019531 533.851562 396.214844 C 532.394531 397.410156 530.910156 398.570312 529.394531 399.695312 C 527.882812 400.816406 526.339844 401.902344 524.773438 402.949219 C 523.207031 403.996094 521.617188 405.007812 520 405.976562 C 518.382812 406.945312 516.742188 407.875 515.082031 408.761719 C 513.421875 409.652344 511.738281 410.5 510.035156 411.308594 C 508.332031 412.113281 506.609375 412.878906 504.867188 413.601562 C 503.125 414.324219 501.367188 415 499.59375 415.636719 C 497.820312 416.273438 496.03125 416.867188 494.226562 417.414062 C 492.425781 417.960938 490.609375 418.464844 488.78125 418.925781 C 486.953125 419.382812 485.113281 419.796875 483.265625 420.167969 C 481.417969 420.535156 479.5625 420.859375 477.699219 421.136719 C 475.832031 421.417969 473.964844 421.648438 472.089844 421.835938 C 470.210938 422.019531 468.332031 422.160156 466.449219 422.257812 C 464.570312 422.351562 462.683594 422.398438 460.800781 422.398438 L 307.199219 422.398438 C 305.941406 422.398438 304.6875 422.460938 303.4375 422.585938 C 302.183594 422.707031 300.941406 422.890625 299.707031 423.136719 C 298.476562 423.382812 297.257812 423.6875 296.054688 424.054688 C 294.847656 424.417969 293.667969 424.839844 292.503906 425.324219 C 291.34375 425.804688 290.207031 426.339844 289.097656 426.933594 C 287.988281 427.527344 286.910156 428.171875 285.867188 428.871094 C 284.820312 429.570312 283.8125 430.320312 282.839844 431.117188 C 281.867188 431.914062 280.9375 432.757812 280.046875 433.648438 C 279.15625 434.535156 278.3125 435.46875 277.515625 436.4375 C 276.71875 437.410156 275.96875 438.421875 275.273438 439.464844 C 274.574219 440.511719 273.925781 441.589844 273.335938 442.699219 C 272.742188 443.808594 272.203125 444.941406 271.722656 446.105469 C 271.242188 447.265625 270.820312 448.449219 270.453125 449.652344 C 270.089844 450.855469 269.785156 452.074219 269.539062 453.308594 C 269.292969 454.542969 269.109375 455.785156 268.984375 457.035156 C 268.863281 458.289062 268.800781 459.542969 268.800781 460.800781 L 268.800781 652.800781 C 268.800781 654.058594 268.863281 655.3125 268.984375 656.5625 C 269.109375 657.816406 269.292969 659.058594 269.539062 660.292969 C 269.78125 661.523438 270.089844 662.742188 270.453125 663.945312 C 270.820312 665.148438 271.242188 666.332031 271.722656 667.496094 C 272.203125 668.65625 272.742188 669.792969 273.335938 670.902344 C 273.925781 672.011719 274.574219 673.089844 275.269531 674.132812 C 275.96875 675.179688 276.71875 676.1875 277.515625 677.160156 C 278.3125 678.132812 279.15625 679.0625 280.046875 679.953125 C 280.9375 680.84375 281.867188 681.6875 282.839844 682.484375 C 283.8125 683.28125 284.820312 684.03125 285.867188 684.726562 C 286.910156 685.425781 287.988281 686.074219 289.097656 686.664062 C 290.207031 687.257812 291.34375 687.796875 292.503906 688.277344 C 293.667969 688.757812 294.847656 689.179688 296.054688 689.546875 C 297.257812 689.910156 298.476562 690.214844 299.707031 690.460938 C 300.941406 690.707031 302.183594 690.890625 303.4375 691.015625 C 304.6875 691.136719 305.941406 691.199219 307.199219 691.199219 L 460.800781 691.199219 C 462.058594 691.199219 463.3125 691.136719 464.5625 691.015625 C 465.816406 690.890625 467.058594 690.707031 468.292969 690.460938 C 469.523438 690.214844 470.742188 689.910156 471.945312 689.546875 C 473.152344 689.179688 474.332031 688.757812 475.496094 688.277344 C 476.65625 687.796875 477.792969 687.257812 478.902344 686.664062 C 480.011719 686.074219 481.089844 685.425781 482.132812 684.726562 C 483.179688 684.03125 484.1875 683.28125 485.160156 682.484375 C 486.132812 681.6875 487.0625 680.84375 487.953125 679.953125 C 488.84375 679.0625 489.6875 678.132812 490.484375 677.160156 C 491.28125 676.1875 492.03125 675.179688 492.726562 674.132812 C 493.425781 673.089844 494.074219 672.011719 494.664062 670.902344 C 495.257812 669.792969 495.796875 668.65625 496.277344 667.496094 C 496.757812 666.332031 497.179688 665.148438 497.546875 663.945312 C 497.910156 662.742188 498.214844 661.523438 498.460938 660.292969 C 498.707031 659.058594 498.890625 657.816406 499.015625 656.5625 C 499.136719 655.3125 499.199219 654.058594 499.199219 652.800781 L 499.199219 499.199219 C 499.199219 497.941406 499.261719 496.6875 499.386719 495.4375 C 499.507812 494.183594 499.691406 492.941406 499.9375 491.707031 C 500.183594 490.476562 500.488281 489.257812 500.851562 488.054688 C 501.21875 486.847656 501.640625 485.667969 502.121094 484.503906 C 502.605469 483.34375 503.140625 482.207031 503.734375 481.097656 C 504.328125 479.988281 504.972656 478.910156 505.671875 477.867188 C 506.371094 476.820312 507.117188 475.8125 507.917969 474.839844 C 508.714844 473.867188 509.558594 472.9375 510.445312 472.046875 C 511.335938 471.15625 512.265625 470.3125 513.238281 469.515625 C 514.210938 468.71875 515.21875 467.96875 516.265625 467.273438 C 517.3125 466.574219 518.390625 465.925781 519.5 465.335938 C 520.609375 464.742188 521.742188 464.203125 522.90625 463.722656 C 524.066406 463.242188 525.25 462.820312 526.453125 462.453125 C 527.65625 462.089844 528.875 461.78125 530.109375 461.539062 C 531.34375 461.292969 532.585938 461.109375 533.835938 460.984375 C 535.085938 460.863281 536.34375 460.800781 537.601562 460.800781 C 538.859375 460.800781 540.113281 460.863281 541.363281 460.984375 C 542.617188 461.109375 543.859375 461.292969 545.089844 461.539062 C 546.324219 461.78125 547.542969 462.089844 548.746094 462.453125 C 549.949219 462.820312 551.132812 463.242188 552.296875 463.722656 C 553.457031 464.203125 554.59375 464.742188 555.703125 465.335938 C 556.8125 465.925781 557.886719 466.574219 558.933594 467.273438 C 559.980469 467.96875 560.988281 468.71875 561.960938 469.515625 C 562.933594 470.3125 563.863281 471.15625 564.753906 472.046875 C 565.640625 472.9375 566.484375 473.867188 567.285156 474.839844 C 568.082031 475.8125 568.828125 476.820312 569.527344 477.867188 C 570.226562 478.910156 570.871094 479.988281 571.464844 481.097656 C 572.058594 482.207031 572.59375 483.34375 573.078125 484.503906 C 573.558594 485.667969 573.980469 486.847656 574.347656 488.054688 C 574.710938 489.257812 575.015625 490.476562 575.261719 491.707031 C 575.507812 492.941406 575.691406 494.183594 575.816406 495.4375 C 575.9375 496.6875 576 497.941406 576 499.199219 L 576 652.800781 C 576 654.683594 575.949219 656.570312 575.855469 658.449219 C 575.761719 660.332031 575.621094 662.210938 575.433594 664.089844 C 575.25 665.964844 575.015625 667.832031 574.738281 669.699219 C 574.460938 671.5625 574.136719 673.417969 573.765625 675.265625 C 573.398438 677.113281 572.984375 678.953125 572.523438 680.78125 C 572.066406 682.609375 571.5625 684.425781 571.011719 686.226562 C 570.464844 688.03125 569.875 689.820312 569.238281 691.59375 C 568.601562 693.367188 567.921875 695.125 567.199219 696.867188 C 566.476562 698.609375 565.714844 700.332031 564.90625 702.035156 C 564.101562 703.738281 563.253906 705.421875 562.363281 707.082031 C 561.472656 708.742188 560.542969 710.382812 559.574219 712 C 558.605469 713.617188 557.597656 715.207031 556.550781 716.773438 C 555.503906 718.339844 554.417969 719.882812 553.292969 721.394531 C 552.171875 722.910156 551.011719 724.394531 549.816406 725.851562 C 548.621094 727.308594 547.390625 728.734375 546.121094 730.132812 C 544.855469 731.527344 543.558594 732.890625 542.226562 734.226562 C 540.890625 735.558594 539.527344 736.855469 538.132812 738.121094 C 536.734375 739.390625 535.308594 740.621094 533.851562 741.816406 C 532.394531 743.011719 530.910156 744.171875 529.394531 745.292969 C 527.882812 746.417969 526.339844 747.503906 524.773438 748.550781 C 523.207031 749.597656 521.617188 750.605469 520 751.574219 C 518.382812 752.546875 516.742188 753.472656 515.082031 754.363281 C 513.421875 755.253906 511.738281 756.101562 510.035156 756.90625 C 508.332031 757.714844 506.609375 758.476562 504.867188 759.199219 C 503.125 759.921875 501.367188 760.601562 499.59375 761.238281 C 497.820312 761.875 496.03125 762.464844 494.226562 763.015625 C 492.425781 763.5625 490.609375 764.066406 488.78125 764.523438 C 486.953125 764.984375 485.113281 765.398438 483.265625 765.765625 C 481.417969 766.136719 479.5625 766.460938 477.699219 766.738281 C 475.832031 767.015625 473.964844 767.25 472.089844 767.433594 C 470.210938 767.621094 468.332031 767.761719 466.449219 767.855469 C 464.570312 767.949219 462.683594 768 460.800781 768 Z M 460.800781 768 " fill-opacity="1" fill-rule="nonzero"/><path fill="#ff91fd" d="M 345.601562 192.382812 C 344.339844 192.386719 343.085938 192.328125 341.832031 192.207031 C 340.578125 192.089844 339.332031 191.90625 338.097656 191.664062 C 336.859375 191.421875 335.640625 191.121094 334.433594 190.757812 C 333.226562 190.394531 332.039062 189.976562 330.875 189.496094 C 329.710938 189.015625 328.574219 188.484375 327.460938 187.894531 C 326.347656 187.300781 325.265625 186.660156 324.21875 185.960938 C 323.167969 185.265625 322.15625 184.519531 321.179688 183.722656 C 320.203125 182.929688 319.269531 182.085938 318.375 181.199219 C 317.480469 180.3125 316.632812 179.382812 315.832031 178.410156 C 315.027344 177.441406 314.277344 176.433594 313.570312 175.386719 C 312.867188 174.34375 312.21875 173.265625 311.621094 172.15625 C 311.023438 171.050781 310.480469 169.914062 309.996094 168.753906 C 309.507812 167.589844 309.078125 166.40625 308.710938 165.203125 C 308.339844 164 308.027344 162.78125 307.777344 161.546875 C 307.527344 160.3125 307.339844 159.070312 307.210938 157.816406 C 307.082031 156.5625 307.015625 155.308594 307.007812 154.046875 C 307.003906 152.789062 307.0625 151.53125 307.179688 150.277344 C 307.296875 149.023438 307.476562 147.777344 307.714844 146.542969 C 307.957031 145.304688 308.257812 144.085938 308.617188 142.878906 C 308.976562 141.671875 309.394531 140.484375 309.871094 139.320312 C 310.347656 138.152344 310.882812 137.011719 311.46875 135.898438 C 312.058594 134.785156 312.699219 133.703125 313.394531 132.652344 C 314.089844 131.601562 314.835938 130.589844 315.628906 129.613281 C 316.421875 128.632812 317.261719 127.699219 318.148438 126.804688 C 319.035156 125.90625 319.964844 125.058594 320.933594 124.253906 C 321.902344 123.449219 322.910156 122.695312 323.953125 121.992188 C 324.996094 121.285156 326.070312 120.632812 327.179688 120.035156 C 328.285156 119.433594 329.421875 118.890625 330.582031 118.402344 C 331.742188 117.914062 332.925781 117.484375 334.128906 117.113281 C 335.332031 116.738281 336.550781 116.425781 337.785156 116.175781 C 339.015625 115.921875 340.261719 115.730469 341.511719 115.601562 C 342.765625 115.46875 344.023438 115.398438 345.28125 115.394531 C 346.539062 115.386719 347.796875 115.441406 349.050781 115.554688 C 350.304688 115.671875 351.550781 115.847656 352.789062 116.085938 C 354.023438 116.324219 355.246094 116.625 356.453125 116.980469 C 357.660156 117.339844 358.847656 117.757812 360.015625 118.230469 C 361.179688 118.707031 362.320312 119.238281 363.4375 119.824219 C 364.550781 120.410156 365.632812 121.050781 366.6875 121.742188 C 367.738281 122.4375 368.753906 123.179688 369.730469 123.972656 C 370.710938 124.765625 371.648438 125.601562 372.542969 126.488281 C 373.441406 127.371094 374.292969 128.296875 375.097656 129.265625 C 375.902344 130.234375 376.660156 131.238281 377.367188 132.28125 C 378.074219 133.324219 378.726562 134.398438 379.328125 135.503906 C 379.929688 136.613281 380.476562 137.746094 380.964844 138.90625 C 381.457031 140.066406 381.886719 141.246094 382.261719 142.449219 C 382.636719 143.652344 382.949219 144.871094 383.207031 146.101562 C 383.460938 147.335938 383.652344 148.578125 383.785156 149.832031 C 383.917969 151.085938 383.992188 152.339844 384 153.601562 L 384 153.984375 C 384 155.242188 383.9375 156.496094 383.816406 157.746094 C 383.691406 159 383.507812 160.242188 383.261719 161.476562 C 383.015625 162.707031 382.710938 163.925781 382.347656 165.132812 C 381.980469 166.335938 381.558594 167.515625 381.078125 168.679688 C 380.59375 169.839844 380.058594 170.976562 379.464844 172.085938 C 378.871094 173.195312 378.226562 174.273438 377.527344 175.316406 C 376.828125 176.363281 376.082031 177.371094 375.285156 178.34375 C 374.484375 179.316406 373.640625 180.246094 372.753906 181.136719 C 371.863281 182.027344 370.933594 182.871094 369.960938 183.667969 C 368.988281 184.464844 367.980469 185.214844 366.933594 185.914062 C 365.886719 186.609375 364.8125 187.257812 363.703125 187.851562 C 362.59375 188.441406 361.457031 188.980469 360.296875 189.460938 C 359.132812 189.941406 357.949219 190.367188 356.746094 190.730469 C 355.542969 191.09375 354.324219 191.402344 353.089844 191.644531 C 351.859375 191.890625 350.617188 192.074219 349.363281 192.199219 C 348.113281 192.324219 346.859375 192.382812 345.601562 192.382812 Z M 345.601562 192.382812 " fill-opacity="1" fill-rule="nonzero"/><path fill="#ff91fd" d="M 422.398438 653.183594 C 421.140625 653.1875 419.882812 653.128906 418.628906 653.007812 C 417.375 652.886719 416.132812 652.707031 414.894531 652.464844 C 413.660156 652.222656 412.4375 651.917969 411.234375 651.558594 C 410.027344 651.195312 408.839844 650.773438 407.675781 650.296875 C 406.511719 649.816406 405.371094 649.28125 404.257812 648.691406 C 403.148438 648.101562 402.066406 647.457031 401.015625 646.761719 C 399.96875 646.066406 398.953125 645.320312 397.980469 644.523438 C 397.003906 643.726562 396.066406 642.886719 395.175781 642 C 394.28125 641.109375 393.433594 640.183594 392.628906 639.210938 C 391.828125 638.238281 391.074219 637.230469 390.371094 636.1875 C 389.667969 635.144531 389.019531 634.066406 388.421875 632.957031 C 387.824219 631.847656 387.28125 630.714844 386.792969 629.550781 C 386.308594 628.390625 385.878906 627.207031 385.511719 626.003906 C 385.140625 624.800781 384.828125 623.582031 384.578125 622.347656 C 384.328125 621.113281 384.136719 619.867188 384.011719 618.617188 C 383.882812 617.363281 383.816406 616.105469 383.808594 614.847656 C 383.804688 613.589844 383.859375 612.332031 383.980469 611.078125 C 384.097656 609.824219 384.277344 608.578125 384.515625 607.34375 C 384.757812 606.105469 385.058594 604.882812 385.417969 603.675781 C 385.777344 602.46875 386.195312 601.285156 386.671875 600.117188 C 387.148438 598.953125 387.683594 597.8125 388.269531 596.699219 C 388.859375 595.585938 389.5 594.503906 390.195312 593.453125 C 390.890625 592.402344 391.632812 591.390625 392.429688 590.410156 C 393.222656 589.433594 394.0625 588.5 394.949219 587.601562 C 395.835938 586.707031 396.761719 585.859375 397.734375 585.054688 C 398.703125 584.25 399.707031 583.496094 400.753906 582.792969 C 401.796875 582.085938 402.871094 581.433594 403.980469 580.835938 C 405.085938 580.234375 406.222656 579.691406 407.382812 579.203125 C 408.542969 578.714844 409.726562 578.285156 410.929688 577.910156 C 412.132812 577.539062 413.351562 577.226562 414.582031 576.972656 C 415.816406 576.722656 417.0625 576.53125 418.3125 576.398438 C 419.566406 576.269531 420.820312 576.199219 422.082031 576.191406 C 423.339844 576.183594 424.597656 576.238281 425.851562 576.355469 C 427.105469 576.472656 428.351562 576.648438 429.585938 576.886719 C 430.824219 577.125 432.046875 577.425781 433.253906 577.78125 C 434.460938 578.140625 435.648438 578.558594 436.816406 579.03125 C 437.980469 579.507812 439.121094 580.035156 440.238281 580.625 C 441.351562 581.210938 442.433594 581.851562 443.484375 582.542969 C 444.539062 583.234375 445.550781 583.980469 446.53125 584.769531 C 447.511719 585.5625 448.449219 586.402344 449.34375 587.285156 C 450.242188 588.171875 451.09375 589.097656 451.898438 590.066406 C 452.703125 591.035156 453.460938 592.039062 454.164062 593.082031 C 454.871094 594.125 455.527344 595.199219 456.128906 596.304688 C 456.730469 597.410156 457.277344 598.546875 457.765625 599.707031 C 458.257812 600.867188 458.6875 602.046875 459.0625 603.25 C 459.4375 604.453125 459.75 605.671875 460.003906 606.902344 C 460.261719 608.136719 460.453125 609.378906 460.585938 610.632812 C 460.71875 611.882812 460.789062 613.140625 460.800781 614.398438 L 460.800781 614.785156 C 460.800781 616.042969 460.738281 617.296875 460.613281 618.546875 C 460.492188 619.800781 460.308594 621.042969 460.0625 622.273438 C 459.816406 623.507812 459.511719 624.726562 459.144531 625.929688 C 458.78125 627.132812 458.359375 628.316406 457.875 629.480469 C 457.394531 630.640625 456.859375 631.777344 456.265625 632.886719 C 455.671875 633.996094 455.027344 635.070312 454.328125 636.117188 C 453.628906 637.164062 452.882812 638.171875 452.082031 639.144531 C 451.285156 640.117188 450.441406 641.046875 449.554688 641.9375 C 448.664062 642.824219 447.734375 643.667969 446.761719 644.46875 C 445.789062 645.265625 444.78125 646.011719 443.734375 646.710938 C 442.6875 647.410156 441.609375 648.058594 440.5 648.648438 C 439.390625 649.242188 438.257812 649.78125 437.09375 650.261719 C 435.933594 650.742188 434.75 651.164062 433.546875 651.53125 C 432.34375 651.894531 431.125 652.199219 429.890625 652.445312 C 428.65625 652.691406 427.414062 652.875 426.164062 653 C 424.914062 653.121094 423.65625 653.183594 422.398438 653.183594 Z M 422.398438 653.183594 " fill-opacity="1" fill-rule="nonzero"/></svg>